<?xml version="1.0" encoding="UTF-8"?>
<svg version="1.1" xmlns="http://www.w3.org/2000/svg" width="4167" height="4167">
<path d="M0 0 C45.0759375 -0.061875 45.0759375 -0.061875 91.0625 -0.125 C105.23586304 -0.15231201 105.23586304 -0.15231201 119.69555664 -0.18017578 C131.33483887 -0.18920898 131.33483887 -0.18920898 136.8032074 -0.19088745 C140.57972112 -0.19273245 144.35617722 -0.20015325 148.13267517 -0.21115112 C195.20429208 -0.34189398 237.65145396 0.82047952 273.5625 35.1875 C293.98355228 56.09750705 306.02559136 86.80293035 306.203125 115.9609375 C306.20882507 116.70977203 306.21452515 117.45860657 306.22039795 118.23013306 C306.22979745 119.81177381 306.2363617 121.39343371 306.24023438 122.97509766 C306.2498333 125.33403264 306.28085914 127.69205403 306.3125 130.05078125 C306.53692629 162.18728039 295.28238528 192.86531507 272.88671875 216.1484375 C265.69748008 223.37934581 257.82941711 229.44269384 248.984375 234.52734375 C248.32953125 235.01332031 247.6746875 235.49929687 247 236 C247 239.15554598 247.47629604 240.33814871 248.8449707 243.10644531 C249.2503154 243.93374146 249.6556601 244.7610376 250.07328796 245.61340332 C250.51961075 246.50926147 250.96593353 247.40511963 251.42578125 248.328125 C251.88447098 249.26072144 252.34316071 250.19331787 252.81575012 251.1541748 C254.30946228 254.18871283 255.81107235 257.2192732 257.3125 260.25 C258.84593526 263.36193752 260.37722684 266.47492387 261.90844727 269.58795166 C262.91183662 271.62747075 263.91590172 273.66665752 264.9206543 275.70550537 C268.36662681 282.69957797 271.77679149 289.70850117 275.125 296.75 C275.52549561 297.59095215 275.92599121 298.4319043 276.33862305 299.29833984 C277.12994339 300.96132748 277.92072021 302.62457387 278.7109375 304.28808594 C281.34087847 309.82092386 283.98173137 315.34851969 286.625 320.875 C287.14723145 321.97166992 287.66946289 323.06833984 288.20751953 324.19824219 C288.68817871 325.20274414 289.16883789 326.20724609 289.6640625 327.2421875 C290.09154785 328.1379248 290.5190332 329.03366211 290.95947266 329.95654297 C291.83670508 331.93979278 291.83670508 331.93979278 293 333 C293.2423085 332.29368942 293.484617 331.58737885 293.73426819 330.85966492 C314.46062951 270.44967984 314.46062951 270.44967984 323.56375122 244.43319702 C328.91587462 229.13588554 334.21436883 213.8204062 339.5 198.5 C345.43419741 181.30080057 351.39244964 164.11048718 357.39648438 146.93554688 C363.21301871 130.29344539 368.96949953 113.63084366 374.7194519 96.96563721 C380.6961254 79.64519924 386.70189173 62.33527791 392.75390625 45.04101562 C397.88210174 30.3760698 402.93527503 15.6877024 408 1 C451.89 1 495.78 1 541 1 C545.95 15.52 550.9 30.04 556 45 C561.07216415 59.56809991 561.07216415 59.56809991 566.15924072 74.13090515 C570.98093251 87.90628849 575.74037099 101.70307821 580.5 115.5 C586.13872205 131.84318114 591.79480195 148.17990187 597.5 164.5 C603.20519866 180.82009987 608.86088856 197.15695213 614.5 213.5 C622.61553989 237.01815661 630.79379092 260.51326366 639 284 C643.95 298.19 648.9 312.38 654 327 C654.33 219.42 654.66 111.84 655 1 C702.52 1 750.04 1 799 1 C805.9887085 21.96612549 812.97153101 42.92173309 819.73925781 63.95828247 C821.05108587 68.03448789 822.36527986 72.10992852 823.6796875 76.18530273 C825.29146678 81.18327059 826.90258587 86.18145039 828.51289368 91.17989254 C831.31452444 99.87606195 834.1208691 108.57070179 836.92941284 117.26464081 C838.29643688 121.49653472 839.66297527 125.72858548 841.02952576 129.96063232 C842.11122673 133.31048658 843.19309303 136.66028719 844.27539062 140.00994873 C846.54191752 147.02549852 848.80443174 154.04231246 851.05712891 161.06231689 C851.65990848 162.94038418 852.2636549 164.81814161 852.86865234 166.69549561 C853.60443739 168.98178921 854.33467012 171.26975766 855.0625 173.55859375 C855.44535156 174.75669678 855.82820313 175.9547998 856.22265625 177.18920898 C857 180 857 180 857 183 C857.66 183 858.32 183 859 183 C859.37535889 181.15184692 859.37535889 181.15184692 859.75830078 179.26635742 C861.08797136 173.30112804 862.97023458 167.54343263 864.8671875 161.73828125 C865.44713722 159.94641388 865.44713722 159.94641388 866.0388031 158.11834717 C866.87556651 155.53483482 867.71378319 152.95185117 868.55459595 150.36965942 C869.89758522 146.24510308 871.23474686 142.11867162 872.57104492 137.99194336 C874.20483256 132.94778765 875.83992889 127.90406007 877.47684002 122.86091709 C881.68538755 109.8946933 885.87416292 96.92210742 890.05899048 83.94821167 C890.89327892 81.36178208 891.72789897 78.77545989 892.56283569 76.1892395 C896.9145227 62.70968804 901.25444978 49.22653654 905.5546875 35.73046875 C905.90985947 34.61587784 906.26503143 33.50128693 906.63096619 32.35292053 C908.28929393 27.14646859 909.94497457 21.93919211 911.59692383 16.73071289 C912.17268313 14.91943179 912.74844776 13.10815238 913.32421875 11.296875 C913.58359222 10.47620041 913.8429657 9.65552582 914.11019897 8.8099823 C915.8870796 3.22584079 915.8870796 3.22584079 917 1 C964.52 1 1012.04 1 1061 1 C1061 121.12 1061 241.24 1061 365 C1026.68 365 992.36 365 957 365 C956.67 291.74 956.34 218.48 956 143 C944.90375 176.28875 933.8075 209.5775 922.375 243.875 C908.91666667 284.25 895.45833333 324.625 882 365 C866.16 365 850.32 365 834 365 C797 254 797 254 760 143 C759.67 216.26 759.34 289.52 759 365 C691.02 365 623.04 365 553 365 C551.06713052 359.20139157 549.20021943 353.43891838 547.51953125 347.5703125 C547.30181564 346.81330048 547.08410004 346.05628845 546.85978699 345.27633667 C546.40590225 343.69526176 545.9530547 342.11388875 545.5012207 340.53222656 C544.80785541 338.10876617 544.10814206 335.68719385 543.40820312 333.265625 C542.96575885 331.72146499 542.52368794 330.17719795 542.08203125 328.6328125 C541.76804131 327.55001511 541.76804131 327.55001511 541.44770813 326.44534302 C540.62032279 323.52945312 540 321.04786827 540 318 C496.77 318 453.54 318 409 318 C408.34 321.3 407.68 324.6 407 328 C406.24657973 330.95194133 405.47383993 333.88421278 404.65234375 336.81640625 C404.43558487 337.59894272 404.21882599 338.38147919 403.99549866 339.18772888 C403.54262733 340.81908415 403.08797995 342.44994737 402.6315918 344.08032227 C401.93075607 346.58661732 401.23750907 349.09493015 400.54492188 351.60351562 C400.10200908 353.19543682 399.65866577 354.78723831 399.21484375 356.37890625 C399.00754135 357.12983047 398.80023895 357.8807547 398.58665466 358.6544342 C397.11508273 363.88491727 397.11508273 363.88491727 396 365 C393.31930668 365.09783696 390.66438877 365.12993911 387.98326111 365.12025452 C387.13302779 365.12110894 386.28279448 365.12196337 385.40679651 365.12284368 C382.5354183 365.1245011 379.66409751 365.11897286 376.79272461 365.11352539 C374.7433421 365.11324355 372.69395948 365.11340119 370.64457703 365.1139679 C365.06216088 365.11425599 359.47976602 365.10835736 353.89735484 365.10139394 C348.07037001 365.09516236 342.24338474 365.09455676 336.41639709 365.09336853 C325.37372706 365.09025464 314.33106687 365.08204047 303.28840119 365.07201904 C290.72029921 365.06085971 278.15219677 365.05534791 265.58409107 365.05032361 C239.72272191 365.0398579 213.86136151 365.02225734 188 365 C187.35960608 363.72993986 186.72045027 362.45925539 186.0818119 361.18831158 C185.72574824 360.48076691 185.36968457 359.77322225 185.0028311 359.04423684 C183.72765047 356.44482481 182.61613003 353.80068901 181.53662109 351.11450195 C181.09390366 350.01755508 180.65118622 348.92060822 180.1950531 347.79042053 C179.72591995 346.61821457 179.2567868 345.44600861 178.7734375 344.23828125 C178.26750086 342.98108181 177.7612731 341.7239995 177.254776 340.46702576 C175.90324618 337.11042405 174.55589404 333.75216099 173.20954514 330.39347839 C171.81239229 326.90961065 170.41194462 323.42706762 169.01196289 319.94433594 C166.75298726 314.32331804 164.49657356 308.70127754 162.24169922 303.07861328 C159.72748195 296.80957594 157.20673078 290.54320602 154.68237305 284.27824402 C152.98961092 280.07600539 151.2997936 275.87258778 149.61090088 271.66879272 C148.83032946 269.72714923 148.04871757 267.78592369 147.26605225 265.84512329 C146.19361001 263.1845139 145.12549295 260.52221098 144.05859375 257.859375 C143.74422867 257.08218613 143.42986359 256.30499725 143.10597229 255.5042572 C141 250.22857536 141 250.22857536 141 248 C128.79 248 116.58 248 104 248 C104 286.61 104 325.22 104 365 C69.68 365 35.36 365 0 365 C0 244.55 0 124.1 0 0 Z M104 93 C104 113.79 104 134.58 104 156 C115.59078204 156.11662138 115.59078204 156.11662138 127.18164062 156.1953125 C131.91921229 156.21909108 136.65647055 156.24701382 141.39379883 156.30175781 C145.2193676 156.34568168 149.04459963 156.36923347 152.87040138 156.37950897 C154.31944889 156.38681795 155.76848099 156.4010868 157.21738243 156.42292023 C169.5169162 156.60064566 181.36232923 155.33412351 191.05859375 147.06640625 C198.38578384 139.26744537 200.39016649 131.81061765 200.2734375 121.38671875 C199.57628774 112.75202101 195.55927653 105.60974316 189 100 C178.33007044 93.15940894 167.85476605 92.713784 155.5625 92.8046875 C154.07177928 92.80842353 152.58105609 92.81126771 151.09033203 92.81326294 C147.19082712 92.82085297 143.29147419 92.84046096 139.39202881 92.8626709 C134.70044596 92.88685246 130.00881194 92.89593239 125.31718445 92.90757751 C118.21135101 92.92688865 111.10585021 92.96524312 104 93 Z M474 100 C470.28918539 112.18674545 466.58096335 124.37427842 462.875 136.5625 C462.60193024 137.46056995 462.32886047 138.35863991 462.04751587 139.2839241 C453.26789438 168.16121297 444.57454148 197.06092249 436 226 C461.41 226 486.82 226 513 226 C503.82906776 195.02262887 494.48296161 164.10511816 485.01873207 133.2165451 C484.30361706 130.88256573 483.58870132 128.54852538 482.87380981 126.21447754 C481.99111606 123.3326176 481.10744841 120.45105901 480.22311401 117.56970215 C479.823522 116.26587691 479.423954 114.96204432 479.02441406 113.65820312 C478.68025452 112.53643677 478.33609497 111.41467041 477.98150635 110.25891113 C476.95418285 106.84787258 475.97080372 103.42749136 475 100 C474.67 100 474.34 100 474 100 Z " fill="#000000" transform="translate(2569,1852)"/>
<path d="M0 0 C35.97 0 71.94 0 109 0 C109.33 22.44 109.66 44.88 110 68 C115.445 62.555 115.445 62.555 121 57 C142.50253345 39.44490998 168.53027991 33.0801865 195.8203125 35.3125 C225.97977987 38.83845026 253.76874865 52.97087873 272.74609375 76.96484375 C303.76190322 118.73136707 311.32634718 173.33273485 304 224 C298.90262534 256.83983624 287.18769941 286.75059274 264 311 C263.37867188 311.68449219 262.75734375 312.36898437 262.1171875 313.07421875 C243.75174047 332.63073033 215.38755389 343.06188147 189.0078125 344.28515625 C160.57119713 345.05000882 135.65180926 336.01784911 114.63671875 316.84375 C112.05906648 314.32480203 110.00802383 312.01203575 108 309 C107.67 327.48 107.34 345.96 107 365 C121.19 365 135.38 365 150 365 C150 396.68 150 428.36 150 461 C134.82 461 119.64 461 104 461 C104 468.59 104 476.18 104 484 C100.43599597 513.50203338 88.87754174 538.91832304 65.26171875 557.6875 C37.76543499 577.18187124 4.02727281 582.32405468 -28.9375 576.8125 C-31.64908656 576.29206879 -34.32294019 575.67464778 -37 575 C-37.72171387 574.82307617 -38.44342773 574.64615234 -39.18701172 574.46386719 C-48.75982285 572.05453981 -57.36373282 568.84230009 -66 564 C-65.3184404 556.05292599 -63.19524604 548.47226809 -61.18359375 540.78125 C-60.80344257 539.31306047 -60.42373464 537.8447561 -60.04444885 536.37634277 C-59.0509703 532.53493719 -58.05152487 528.69510918 -57.05078125 524.85559082 C-56.0282561 520.92810916 -55.01144744 516.99914841 -53.99414062 513.0703125 C-52.00165019 505.37875859 -50.00284659 497.68886368 -48 490 C-44.71060269 491.08456081 -41.49416638 492.19688589 -38.3125 493.5625 C-29.59273715 496.80126906 -21.53971772 496.59329671 -13 493 C-7.09841976 490.10488516 -4.5841544 485.84780756 -2 480 C-0.45545446 473.82181785 -0.42361464 467.35421956 0 461 C-18.48 461 -36.96 461 -56 461 C-56 429.32 -56 397.64 -56 365 C-37.52 365 -19.04 365 0 365 C-0.33 346.85 -0.66 328.7 -1 310 C-3.64 312.97 -6.28 315.94 -9 319 C-28.52135965 337.50526364 -54.34158318 344.54633771 -80.625 344.21484375 C-112.01244358 343.30333971 -138.87164236 329.46637935 -160.3828125 307.0234375 C-170.15607202 296.42586511 -177.09896674 284.07013966 -183 271 C-183.53238281 269.84628906 -184.06476563 268.69257813 -184.61328125 267.50390625 C-204.78860284 220.74095157 -203.63425039 158.75628073 -185.01171875 111.70703125 C-179.64379856 98.80944925 -173.02906715 86.69550572 -164 76 C-163.16984375 75.00742188 -162.3396875 74.01484375 -161.484375 72.9921875 C-142.73494618 51.23200301 -116.41620262 38.05687913 -87.8671875 35.2421875 C-58.84507942 33.42464134 -33.41504089 39.97976592 -11.33984375 59.33203125 C-7.80632392 62.47915179 -4.34634977 65.65365023 -1 69 C-0.67 46.23 -0.34 23.46 0 0 Z M-72 143 C-73.03125 143.7425 -74.0625 144.485 -75.125 145.25 C-86.56228404 156.19001082 -91.81072995 171.47073265 -92.28369141 187.04467773 C-92.51262091 204.56942509 -87.97792453 220.92631273 -75.515625 233.8125 C-63.31041242 244.42572833 -50.0759432 247.24778959 -34.37011719 246.25878906 C-21.85253682 244.89201576 -10.15273914 238.44868229 -1 230 C0.48265221 227.03469557 0.20798094 223.99472877 0.25634766 220.73974609 C0.27095032 219.99152588 0.28555298 219.24330566 0.30059814 218.47241211 C0.42670969 211.56243624 0.49538134 204.65130955 0.54844093 197.7404232 C0.58417964 193.09904233 0.63742148 188.45939808 0.73388672 183.81884766 C0.8269257 179.32946892 0.87539576 174.84162566 0.89283371 170.35133743 C0.90689332 168.64402064 0.93645562 166.93675541 0.98213577 165.22999191 C1.45860371 155.74568667 1.45860371 155.74568667 -1.94845581 147.19276428 C-4.2077372 145.14135954 -6.36870597 143.53444827 -9 142 C-10.10085938 141.34386719 -11.20171875 140.68773437 -12.3359375 140.01171875 C-32.62503532 131.17109643 -53.40566264 128.57140013 -72 143 Z M116 143 C115.12097771 143.42039803 115.12097771 143.42039803 114.22419739 143.84928894 C111.79119843 145.34427586 110.54883661 146.57283737 109 149 C107.89152315 155.00299484 107.98947477 160.97049695 108.03515625 167.05859375 C108.02789549 168.84929765 108.01870535 170.63999467 108.00767517 172.43067932 C107.99286354 176.17922082 108.00380037 179.92659601 108.0324707 183.67504883 C108.06673772 188.46877123 108.03342774 193.25923492 107.98026371 198.05268764 C107.94738714 201.74960435 107.95236066 205.44574871 107.9684124 209.14274788 C107.97122467 210.90932518 107.96196861 212.67596598 107.94020271 214.44241142 C107.54371524 223.96273539 107.54371524 223.96273539 110.7436676 232.61276245 C112.75570936 234.41170588 114.62767743 235.72885419 117 237 C117.99644531 237.62390625 118.99289062 238.2478125 120.01953125 238.890625 C134.48670636 245.93199134 149.26863347 248.80024514 165.0625 244.375 C170.67211497 242.37560323 175.31092064 239.63857279 180 236 C181.03125 235.2575 182.0625 234.515 183.125 233.75 C195.1388327 222.25850786 199.78568675 206.51535899 200.3125 190.25 C199.91689306 173.41472673 195.26600934 158.45095718 183.31640625 146.1171875 C172.2729403 136.02349687 159.95008419 132.45301659 145.203125 132.72265625 C134.89189398 133.19326421 124.70620392 137.63316197 116 143 Z " fill="#000000" transform="translate(438,1846)"/>
<path d="M0 0 C55.0996875 -0.12375 55.0996875 -0.12375 111.3125 -0.25 C128.67290894 -0.30462402 128.67290894 -0.30462402 146.3840332 -0.36035156 C160.58044434 -0.37841797 160.58044434 -0.37841797 167.23869324 -0.3817749 C171.86210399 -0.38548261 176.48532868 -0.40039663 181.10868835 -0.42230225 C187.02643968 -0.4499645 192.94392477 -0.45792331 198.86173475 -0.4522891 C201.0208261 -0.45346532 203.17992782 -0.46126255 205.33896315 -0.47686052 C235.61314245 -0.68521973 262.34845607 6.97773701 284.6875 28.375 C301.51344165 45.76180637 309.72143915 69.26238456 310.3125 93.1875 C309.91139462 117.32902997 303.09222757 140.86507691 285.8515625 158.3125 C277.55895943 166.1279944 267.86077401 172.379742 257 176 C258.10794922 176.43699219 258.10794922 176.43699219 259.23828125 176.8828125 C281.40275785 185.83872554 299.08872782 200.34514576 308.6640625 222.796875 C314.27866853 236.77924077 316.55661132 250.27044217 316.4375 265.3125 C316.43293793 266.32123169 316.43293793 266.32123169 316.42828369 267.3503418 C316.35528163 278.31038426 315.49822664 288.57671245 312 299 C311.78037598 299.65838867 311.56075195 300.31677734 311.33447266 300.99511719 C303.36860267 324.05273094 288.67360786 342.50176694 266.8125 353.4375 C264.22854648 354.67376964 261.624901 355.85352434 259 357 C258.04480469 357.42023437 257.08960938 357.84046875 256.10546875 358.2734375 C240.80251911 364.37626299 225.0842451 364.42516045 208.88671875 364.34057617 C206.56191523 364.3396554 204.23711088 364.34006065 201.91230774 364.34167194 C195.73073161 364.34234453 189.54933249 364.32505656 183.36779785 364.30384064 C177.55053192 364.28665598 171.73330734 364.28594588 165.91601562 364.28381348 C148.94398731 364.26812063 131.97199137 364.22623684 115 364.1875 C77.05 364.125625 39.1 364.06375 0 364 C0 243.88 0 123.76 0 0 Z M104 90 C104 104.85 104 119.7 104 135 C118.55660976 135.1164227 118.55660976 135.1164227 133.11328125 135.1953125 C139.05401981 135.21918603 144.9945108 135.24737088 150.93505859 135.30175781 C155.72669176 135.34534963 160.51805927 135.36916532 165.30987549 135.37950897 C167.13425882 135.38687645 168.95862829 135.40126339 170.78289795 135.42292023 C173.34646559 135.45213201 175.90894787 135.45594867 178.47265625 135.45410156 C179.22000534 135.46848267 179.96735443 135.48286377 180.73735046 135.49768066 C187.07995315 135.44851634 192.20591672 133.41111048 197.0234375 129.25390625 C197.46945312 128.69574219 197.91546875 128.13757812 198.375 127.5625 C198.83648438 127.00691406 199.29796875 126.45132812 199.7734375 125.87890625 C203.83663254 119.65471257 203.68933898 113.20751893 203 106 C201.32574858 99.8042672 197.31106474 95.4670984 192 92 C187.64377073 89.80204601 183.59088752 89.72763542 178.81323242 89.77294922 C178.00295593 89.77265717 177.19267944 89.77236511 176.35784912 89.77206421 C173.69027855 89.7734531 171.02299029 89.78899348 168.35546875 89.8046875 C166.50173597 89.8084192 164.64800121 89.81126543 162.79426575 89.81326294 C157.92313154 89.82088705 153.05211722 89.84052506 148.18103027 89.8626709 C142.33230314 89.88675936 136.48353584 89.89591613 130.63477325 89.90757751 C121.7564322 89.92695014 112.87835405 89.96528126 104 90 Z M104 225 C104 241.17 104 257.34 104 274 C119.42086932 274.11643449 119.42086932 274.11643449 134.84179688 274.1953125 C141.13579883 274.21918027 147.42956697 274.24734967 153.72338867 274.30175781 C158.80031451 274.34536926 163.87698944 274.36916948 168.95408821 274.37950897 C170.88649505 274.38687292 172.81888889 274.40125287 174.75118828 274.42292023 C177.46780442 274.45215784 180.18339714 274.45594756 182.90014648 274.45410156 C183.69065399 274.46848267 184.4811615 274.48286377 185.29562378 274.49768066 C192.11764074 274.44785195 198.04150556 272.43989358 203.33984375 268.0703125 C208.91900055 261.27710935 210.55030113 255.93235702 210.375 247.1015625 C209.56081871 240.36760475 206.49797939 235.02771 201.5 230.5 C194.59053463 225.20224577 187.17399242 224.84609582 178.69970703 224.88647461 C177.48407326 224.88625557 177.48407326 224.88625557 176.24388123 224.8860321 C173.5818305 224.88672529 170.91985091 224.89448977 168.2578125 224.90234375 C166.40550779 224.90421004 164.55320259 224.90563295 162.70089722 224.90663147 C157.8380394 224.91044003 152.97521169 224.92025608 148.11236572 224.93133545 C142.27110415 224.94338913 136.42983248 224.94795972 130.58856201 224.95378876 C121.7256871 224.96346876 112.86287819 224.98263694 104 225 Z " fill="#000000" transform="translate(903,1853)"/>
<path d="M0 0 C239.36130008 0 239.36130008 0 290.61474609 49.66162109 C291.80926144 50.81571576 293.02212082 51.95076858 294.23828125 53.08203125 C326.7982464 84.07598606 339.98423531 132.05790883 341.18359375 175.64453125 C342.03385683 225.89933058 328.40627201 273.57563395 294 311 C292.93265625 312.19109375 292.93265625 312.19109375 291.84375 313.40625 C268.72730747 337.94524284 235.79735131 352.56021832 203.375 359.75 C202.48208252 359.94875732 201.58916504 360.14751465 200.66918945 360.35229492 C135.20062905 374.12117182 66.90078006 364 0 364 C0 243.88 0 123.76 0 0 Z M104 96 C104 152.43 104 208.86 104 267 C147.7179552 270.09839927 147.7179552 270.09839927 190.375 259.25 C191.03363037 258.90783447 191.69226074 258.56566895 192.37084961 258.21313477 C198.13679372 255.12067828 203.16466091 251.4113448 208 247 C208.6084375 246.48308594 209.216875 245.96617187 209.84375 245.43359375 C226.27736166 230.53129591 233.48712711 206.70160578 234.89794922 185.26708984 C235.99438786 160.90936447 229.0845135 137.34499098 213.1015625 118.796875 C203.37314635 108.39342589 190.36147973 102.10762924 176.6875 98.75 C176.03700684 98.58669189 175.38651367 98.42338379 174.71630859 98.25512695 C152.75101051 93.26494727 124.16722331 96 104 96 Z " fill="#000000" transform="translate(1843,1853)"/>
<path d="M0 0 C0.84070038 -0.00705963 1.68140076 -0.01411926 2.5475769 -0.02139282 C37.63281879 -0.24919017 37.63281879 -0.24919017 52.890625 3.203125 C53.79796387 3.40180176 54.70530273 3.60047852 55.64013672 3.80517578 C89.88635913 11.49545449 119.25020229 27.24596668 144.890625 51.203125 C145.76589844 52.01265625 146.64117188 52.8221875 147.54296875 53.65625 C178.41234945 83.24125187 198.04739123 129.19939773 199.05175781 171.83886719 C199.07160483 173.47585099 199.0853498 175.11291744 199.09375 176.75 C199.09945007 177.64189026 199.10515015 178.53378052 199.11102295 179.45269775 C199.12041574 181.33515257 199.12698398 183.2176234 199.13085938 185.10009766 C199.14045783 187.90428583 199.1714915 190.70770527 199.203125 193.51171875 C199.30173678 210.19362054 197.61099714 226.63219648 193.203125 242.765625 C192.94821289 243.7134082 192.69330078 244.66119141 192.43066406 245.63769531 C186.20786185 267.93421126 176.05538115 288.8897914 161.890625 307.203125 C161.19710938 308.11964844 160.50359375 309.03617188 159.7890625 309.98046875 C129.76220198 348.27315042 84.49215024 370.94546033 36.6027832 376.75170898 C31.99002848 377.24315407 27.41745493 377.38021629 22.78125 377.40625 C21.94054962 377.41330963 21.09984924 377.42036926 20.2336731 377.42764282 C-14.85156879 377.65544017 -14.85156879 377.65544017 -30.109375 374.203125 C-31.01671387 374.00444824 -31.92405273 373.80577148 -32.85888672 373.60107422 C-67.10510913 365.91079551 -96.46895229 350.16028332 -122.109375 326.203125 C-122.98464844 325.39359375 -123.85992188 324.5840625 -124.76171875 323.75 C-155.63109945 294.16499813 -175.26614123 248.20685227 -176.27050781 205.56738281 C-176.29035483 203.93039901 -176.3040998 202.29333256 -176.3125 200.65625 C-176.31820007 199.76435974 -176.32390015 198.87246948 -176.32977295 197.95355225 C-176.33916574 196.07109743 -176.34573398 194.1886266 -176.34960938 192.30615234 C-176.35920783 189.50196417 -176.3902415 186.69854473 -176.421875 183.89453125 C-176.52048678 167.21262946 -174.82974714 150.77405352 -170.421875 134.640625 C-170.16696289 133.6928418 -169.91205078 132.74505859 -169.64941406 131.76855469 C-163.42661185 109.47203874 -153.27413115 88.5164586 -139.109375 70.203125 C-138.41585938 69.28660156 -137.72234375 68.37007812 -137.0078125 67.42578125 C-106.98095198 29.13309958 -61.71090024 6.46078967 -13.8215332 0.65454102 C-9.20877848 0.16309593 -4.63620493 0.02603371 0 0 Z M-40.109375 116.203125 C-41.00398438 117.00492188 -41.89859375 117.80671875 -42.8203125 118.6328125 C-61.36480108 136.16116472 -69.85333243 160.40265531 -70.58007812 185.50244141 C-70.83152352 212.97285037 -63.29817386 237.09408179 -44.109375 257.203125 C-43.57957031 257.81929687 -43.04976562 258.43546875 -42.50390625 259.0703125 C-32.00321188 270.78574015 -14.08088116 278.32298069 1.49926758 279.38012695 C24.64324619 279.8892093 44.9917462 277.33108999 62.890625 261.203125 C63.78523438 260.40132812 64.67984375 259.59953125 65.6015625 258.7734375 C84.14605108 241.24508528 92.63458243 217.00359469 93.36132812 191.90380859 C93.61277352 164.43339963 86.07942386 140.31216821 66.890625 120.203125 C66.36082031 119.58695313 65.83101562 118.97078125 65.28515625 118.3359375 C54.78446188 106.62050985 36.86213116 99.08326931 21.28198242 98.02612305 C-1.86199619 97.5170407 -22.2104962 100.07516001 -40.109375 116.203125 Z " fill="#000000" transform="translate(1389.109375,1846.796875)"/>
<path d="M0 0 C85.8 0 171.6 0 260 0 C260 30.69 260 61.38 260 93 C208.52 93 157.04 93 104 93 C104 106.86 104 120.72 104 135 C154.49 135 204.98 135 257 135 C257 165.36 257 195.72 257 227 C206.51 227 156.02 227 104 227 C104 242.18 104 257.36 104 273 C155.48 273 206.96 273 260 273 C260 303.69 260 334.38 260 366 C174.2 366 88.4 366 0 366 C0 245.22 0 124.44 0 0 Z " fill="#000000" transform="translate(3658,1852)"/>
<path d="M0 0 C85.8 0 171.6 0 260 0 C260 30.69 260 61.38 260 93 C208.52 93 157.04 93 104 93 C104 106.86 104 120.72 104 135 C154.49 135 204.98 135 257 135 C257 165.36 257 195.72 257 227 C206.51 227 156.02 227 104 227 C104 272.54 104 318.08 104 365 C69.68 365 35.36 365 0 365 C0 244.55 0 124.1 0 0 Z " fill="#000000" transform="translate(2294,1852)"/>
<path d="M0 0 C34.32 0 68.64 0 104 0 C104 88.11 104 176.22 104 267 C146.9 267 189.8 267 234 267 C234 299.01 234 331.02 234 364 C156.78 364 79.56 364 0 364 C0 243.88 0 123.76 0 0 Z " fill="#000000" transform="translate(1596,1853)"/>
<path d="M0 0 C12.54 0 25.08 0 38 0 C38 48.51 38 97.02 38 147 C25.46 147 12.92 147 0 147 C-0.33 144.69 -0.66 142.38 -1 140 C-1.72445312 140.55429688 -2.44890625 141.10859375 -3.1953125 141.6796875 C-4.64550781 142.76636719 -4.64550781 142.76636719 -6.125 143.875 C-7.55199219 144.95394531 -7.55199219 144.95394531 -9.0078125 146.0546875 C-17.32382663 151.46118233 -27.41716564 150.99223916 -37 150 C-45.13987828 148.03731676 -51.24518601 143.97466082 -57 138 C-57.54269531 137.46632813 -58.08539062 136.93265625 -58.64453125 136.3828125 C-66.75019907 127.80516908 -68.55213405 117.42337443 -71 106 C-92.12 106 -113.24 106 -135 106 C-130.89074767 112.16387849 -127.98088681 115.69591517 -121 118 C-111.98610525 118.99920654 -104.65038365 118.15392069 -96.48828125 114.19140625 C-94.28391571 113.1359408 -92.36306311 112.5451779 -90 112 C-87.6255212 115.73749825 -85.27907065 119.49181279 -82.9375 123.25 C-81.92333008 124.84521484 -81.92333008 124.84521484 -80.88867188 126.47265625 C-80.25380859 127.49746094 -79.61894531 128.52226562 -78.96484375 129.578125 C-78.3730835 130.52075195 -77.78132324 131.46337891 -77.17163086 132.43457031 C-76 135 -76 135 -76.20043945 137.24121094 C-78.06589206 141.34463708 -83.13241524 143.14096764 -87 145 C-104.49621349 151.47932205 -126.50173448 153.59669323 -144 146 C-157.74175694 139.30282351 -166.93049239 128.96726746 -172.22265625 114.58984375 C-176.93182711 98.90049561 -176.28224703 81.63401511 -169.375 66.6875 C-161.66799926 52.52945421 -150.10385582 43.89308314 -135 39 C-121.81665414 35.19109813 -106.04223494 37.26417546 -94.12109375 43.5078125 C-82.48428083 50.31574387 -76.03915568 59.74855275 -71 72 C-71 72.99 -71 73.98 -71 75 C-70.34 75 -69.68 75 -69 75 C-68.896875 73.98679687 -68.79375 72.97359375 -68.6875 71.9296875 C-66.83588352 61.34601602 -60.56582201 51.42107702 -52 45 C-40.15702082 38.03874698 -28.34468588 35.81097941 -14.76953125 38.68359375 C-8.87488853 40.88608816 -6.12792483 43.60463586 -1 48 C-0.67 32.16 -0.34 16.32 0 0 Z M-132 73 C-134.18702362 75.98893229 -135 77.27944454 -135 81 C-124.77 81 -114.54 81 -104 81 C-106.18708065 74.43875805 -107.83183318 72.08408341 -114 69 C-120.90756362 68.36921949 -126.69735858 67.96928891 -132 73 Z M-26.875 78.3125 C-31.18482217 83.76315745 -33.54079206 89.16667099 -32.75 96.234375 C-31.36196518 103.62070316 -28.25815031 108.6674344 -22 113 C-16.29900468 114.90033177 -10.99144571 114.78993868 -5.5625 112.125 C-3.29300354 110.88709284 -1.84905433 109.84905433 0 108 C0.54346282 103.41638518 0.46330514 98.79958527 0.5 94.1875 C0.54125 92.90294922 0.5825 91.61839844 0.625 90.29492188 C0.8883282 83.89778459 0.8883282 83.89778459 -1.21948242 78.05126953 C-9.13826102 71.14913324 -19.04821785 72.01704479 -26.875 78.3125 Z " fill="#000000" transform="translate(3673,2276)"/>
<path d="M0 0 C19.47 0 38.94 0 59 0 C61.866875 8.745 64.73375 17.49 67.6875 26.5 C68.58170654 29.22572266 69.47591309 31.95144531 70.3972168 34.75976562 C74.34786432 46.81463479 78.2792948 58.87185232 82 71 C83.77369197 65.70928754 85.54404168 60.41746408 87.3125 55.125 C87.57922516 54.32710052 87.84595032 53.52920105 88.12075806 52.7071228 C91.19322883 43.50970413 94.23950966 34.30483108 97.2109375 25.07421875 C97.46395126 24.28853516 97.71696503 23.50285156 97.97764587 22.69335938 C99.19304564 18.91517532 100.4035461 15.1354864 101.60864258 11.35400391 C102.04503895 9.99249838 102.48147856 8.63100671 102.91796875 7.26953125 C103.29719482 6.07948486 103.6764209 4.88943848 104.06713867 3.66333008 C105 1 105 1 106 0 C125.14 0 144.28 0 164 0 C164 48.51 164 97.02 164 147 C150.14 147 136.28 147 122 147 C121.67 118.95 121.34 90.9 121 62 C118.99035156 68.05214844 116.98070313 74.10429687 114.91015625 80.33984375 C113.6390015 84.16352176 112.36767139 87.98713964 111.09570312 91.81054688 C109.07484823 97.88508749 107.05466182 103.95984494 105.03833008 110.03588867 C103.41348838 114.93207468 101.7857547 119.82729027 100.15597343 124.72183418 C99.53332909 126.59347513 98.91174452 128.46546896 98.2912159 130.33781242 C97.42485597 132.95131721 96.55480559 135.56356493 95.68383789 138.17553711 C95.42561249 138.95740387 95.16738708 139.73927063 94.90133667 140.54483032 C93.11405216 145.88594784 93.11405216 145.88594784 92 147 C90.5112814 147.08669432 89.018555 147.10703494 87.52734375 147.09765625 C86.62822266 147.09443359 85.72910156 147.09121094 84.80273438 147.08789062 C83.85720703 147.07951172 82.91167969 147.07113281 81.9375 147.0625 C80.5134082 147.05573242 80.5134082 147.05573242 79.06054688 147.04882812 C76.70696935 147.0370011 74.35351523 147.02052025 72 147 C62.17453918 118.38497759 52.54050887 89.71153142 43 61 C42.67 89.38 42.34 117.76 42 147 C28.14 147 14.28 147 0 147 C0 98.49 0 49.98 0 0 Z " fill="#000000" transform="translate(3330,2276)"/>
<path d="M0 0 C1.08539062 -0.01160156 2.17078125 -0.02320312 3.2890625 -0.03515625 C16.1064215 0.01072928 28.48294257 2.7802034 38.32421875 11.4140625 C50.08208735 23.71527068 50.31044179 39.64855441 50.1953125 55.76171875 C50.19157368 57.31541256 50.18873082 58.86910876 50.18673706 60.42280579 C50.17916894 64.47515589 50.15958068 68.52735836 50.1373291 72.57965088 C50.1130871 77.46153463 50.10405715 82.34346826 50.09242249 87.2253952 C50.073151 94.6086989 50.03478141 101.99167984 50 109.375 C37.46 109.375 24.92 109.375 12 109.375 C11.505 105.91 11.505 105.91 11 102.375 C10.56171875 102.76171875 10.1234375 103.1484375 9.671875 103.546875 C-0.64118348 112.0153214 -12.0610301 113.50763696 -24.99707031 112.58935547 C-34.22221374 111.60207171 -41.01347898 106.20005854 -47 99.375 C-53.62381479 88.99870298 -54.84699258 76.98760673 -52.28125 65.0234375 C-49.36740926 56.49340371 -45.33819401 51.72465689 -37.37890625 47.453125 C-30.89380223 44.51406308 -25.35677096 43.98811695 -18.3125 44 C-17.33023438 44.00161133 -16.34796875 44.00322266 -15.3359375 44.00488281 C-5.59630292 44.16979694 3.85278251 46.22778251 11 53.375 C11.34820897 46.96537561 11.44155752 41.92589923 8 36.375 C2.58143736 31.46048969 -3.90969519 31.61761359 -10.91015625 31.91796875 C-18.20320293 32.52274137 -24.62138829 35.59557958 -30.5625 39.75 C-31.366875 40.28625 -32.17125 40.8225 -33 41.375 C-36.86069696 40.08810101 -37.0871084 38.87121319 -38.91796875 35.31640625 C-39.44970703 34.29095703 -39.98144531 33.26550781 -40.52929688 32.20898438 C-41.07650391 31.12939453 -41.62371094 30.04980469 -42.1875 28.9375 C-42.74630859 27.86177734 -43.30511719 26.78605469 -43.88085938 25.67773438 C-48 17.66577953 -48 17.66577953 -48 15.375 C-34.11841156 4.52659329 -17.37932896 -0.1857648 0 0 Z M-15 74.375 C-15.52245555 79.08016025 -15.52245555 79.08016025 -13.6875 83.25 C-8.58709752 86.65026832 -1.85504363 85.79218984 4 85.375 C7.56108467 84.04713792 9.35513566 83.01986434 12 80.375 C12.50059916 77.96017587 12.50059916 77.96017587 12 75.375 C9.24886774 71.67155273 6.4453103 70.38148535 2 69.375 C-4.74404729 68.68485512 -9.99018124 69.36518124 -15 74.375 Z " fill="#000000" transform="translate(3816,2313.625)"/>
<path d="M0 0 C12.54 0 25.08 0 38 0 C38 34.98 38 69.96 38 106 C25.46 106 12.92 106 0 106 C0 71.02 0 36.04 0 0 Z " fill="#000000" transform="translate(3721,2317)"/>
<path d="M0 0 C5.35581254 5.35581254 7.56988569 10.98559975 8.375 18.5 C7.46911018 26.95497162 4.54080822 33.38633547 -2 39 C-8.47056965 42.90216805 -14.62934085 43.00809464 -22 42 C-28.48571586 39.38718304 -32.45295526 34.87479284 -36 29 C-38.18415515 22.44753454 -38.3455619 12.82529409 -35.4375 6.4375 C-31.78761846 0.47559386 -26.06809547 -3.83768701 -19.375 -5.75 C-12.1213827 -6.28730498 -5.63341789 -4.71634986 0 0 Z " fill="#000000" transform="translate(3910,2384)"/>
<path d="M0 0 C5.01286794 4.55894682 8.5176155 9.12569084 9.37109375 15.98046875 C9.53087179 23.69680829 8.83340676 29.77277362 4 36 C-1.12928455 40.77823085 -6.01609244 43 -13 43 C-19.12147657 42.22469011 -24.36076155 40.12428768 -28.4453125 35.2890625 C-33.65149811 28.2383997 -33.67051295 21.63045954 -33 13 C-31.35421843 6.68456109 -27.25944982 2.64207915 -22 -1 C-15.42630119 -4.80582563 -6.36404084 -3.90638279 0 0 Z " fill="#000000" transform="translate(3752,2264)"/>
</svg>
