<?xml version="1.0" encoding="UTF-8"?>
<svg version="1.1" xmlns="http://www.w3.org/2000/svg" viewBox="238.64 1846 3679.74 580.84">
<path d="M0 0 C45.0759375 -0.061875 45.0759375 -0.061875 91.0625 -0.125 C105.23586304 -0.15231201 105.23586304 -0.15231201 119.69555664 -0.18017578 C131.33483887 -0.18920898 131.33483887 -0.18920898 136.8032074 -0.19088745 C140.57972112 -0.19273245 144.35617722 -0.20015325 148.13267517 -0.21115112 C195.20429208 -0.34189398 237.65145396 0.82047952 273.5625 35.1875 C293.98355228 56.09750705 306.02559136 86.80293035 306.203125 115.9609375 C306.20882507 116.70977203 306.21452515 117.45860657 306.22039795 118.23013306 C306.22979745 119.81177381 306.2363617 121.39343371 306.24023438 122.97509766 C306.2498333 125.33403264 306.28085914 127.69205403 306.3125 130.05078125 C306.53692629 162.18728039 295.28238528 192.86531507 272.88671875 216.1484375 C265.69748008 223.37934581 257.82941711 229.44269384 248.984375 234.52734375 C248.32953125 235.01332031 247.6746875 235.49929687 247 236 C247 239.15554598 247.47629604 240.33814871 248.8449707 243.10644531 C249.2503154 243.93374146 249.6556601 244.7610376 250.07328796 245.61340332 C250.51961075 246.50926147 250.96593353 247.40511963 251.42578125 248.328125 C251.88447098 249.26072144 252.34316071 250.19331787 252.81575012 251.1541748 C254.30946228 254.18871283 255.81107235 257.2192732 257.3125 260.25 C258.84593526 263.36193752 260.37722684 266.47492387 261.90844727 269.58795166 C262.91183662 271.62747075 263.91590172 273.66665752 264.9206543 275.70550537 C268.36662425 282.69957278 271.77707271 289.70837159 275.125 296.75 C275.52477051 297.59022705 275.92454102 298.4304541 276.33642578 299.29614258 C277.12684199 300.95847958 277.91688448 302.62099433 278.70654297 304.28369141 C281.35309374 309.84154794 284.02214747 315.38864273 286.6875 320.9375 C287.21811035 322.04254883 287.7487207 323.14759766 288.29541016 324.28613281 C289.53011053 326.85750016 290.76497323 329.42878941 292 332 C300.98056097 306.72974405 309.76643385 281.3934282 318.52635193 256.04597473 C322.52921487 244.46496076 326.54483163 232.88838444 330.5625 221.3125 C331.2665269 219.28377512 331.97054708 217.2550479 332.67456055 215.22631836 C334.08000277 211.17640613 335.4855336 207.12652468 336.89111328 203.07666016 C340.07368601 193.90655098 343.25503729 184.73601803 346.43649292 175.56552124 C348.20761308 170.46033054 349.9788104 165.35516661 351.75 160.25 C352.4583337 158.20833346 353.16666704 156.1666668 353.875 154.125 C358.12499995 141.87500015 358.12499995 141.87500015 359.18746948 138.81259155 C359.89590751 136.77062074 360.60434256 134.7286489 361.31277466 132.68667603 C363.08198194 127.58715438 364.8512405 122.48765053 366.62060547 117.38818359 C369.82749319 108.14548526 373.03399163 98.90265276 376.23860168 89.65916443 C378.0338162 84.48102237 379.82933054 79.30298431 381.625 74.125 C381.97386261 73.1189975 382.32272522 72.112995 382.68215942 71.07650757 C388.55232027 54.15121533 394.44568787 37.23408152 400.35595703 20.32275391 C400.80439217 19.03894585 400.80439217 19.03894585 401.2618866 17.72920227 C401.81434005 16.14768173 402.36713753 14.56628129 402.92036438 12.98503113 C403.16634872 12.28074478 403.41233307 11.57645844 403.66577148 10.85083008 C403.87652817 10.2480574 404.08728485 9.64528473 404.3044281 9.02424622 C405.22137491 6.355757 406.10772055 3.67683834 407 1 C450.89 1 494.78 1 540 1 C544.95 15.52 549.9 30.04 555 45 C560.07216415 59.56809991 560.07216415 59.56809991 565.15924072 74.13090515 C569.98093251 87.90628849 574.74037099 101.70307821 579.5 115.5 C585.13872205 131.84318114 590.79480195 148.17990187 596.5 164.5 C602.2051986 180.82009969 607.86092821 197.15693856 613.5 213.5 C621.61532881 237.01822571 629.79680481 260.5122189 638 284 C645.92 306.77 645.92 306.77 654 330 C654.33 221.43 654.66 112.86 655 1 C702.52 1 750.04 1 799 1 C805.9887085 21.96612549 812.97153101 42.92173309 819.73925781 63.95828247 C821.05108587 68.03448789 822.36527986 72.10992852 823.6796875 76.18530273 C825.29146678 81.18327059 826.90258587 86.18145039 828.51289368 91.17989254 C831.31452444 99.87606195 834.1208691 108.57070179 836.92941284 117.26464081 C838.29643688 121.49653472 839.66297527 125.72858548 841.02952576 129.96063232 C842.11122673 133.31048658 843.19309303 136.66028719 844.27539062 140.00994873 C846.54191752 147.02549852 848.80443174 154.04231246 851.05712891 161.06231689 C851.65990848 162.94038418 852.2636549 164.81814161 852.86865234 166.69549561 C853.60443739 168.98178921 854.33467012 171.26975766 855.0625 173.55859375 C855.44535156 174.75669678 855.82820313 175.9547998 856.22265625 177.18920898 C857 180 857 180 857 183 C857.66 183 858.32 183 859 183 C859.37535889 181.15184692 859.37535889 181.15184692 859.75830078 179.26635742 C861.08797136 173.30112804 862.97023458 167.54343263 864.8671875 161.73828125 C865.44713722 159.94641388 865.44713722 159.94641388 866.0388031 158.11834717 C866.87556651 155.53483482 867.71378319 152.95185117 868.55459595 150.36965942 C869.89758522 146.24510308 871.23474686 142.11867162 872.57104492 137.99194336 C874.20483256 132.94778765 875.83992889 127.90406007 877.47684002 122.86091709 C881.68538755 109.8946933 885.87416292 96.92210742 890.05899048 83.94821167 C890.89327892 81.36178208 891.72789897 78.77545989 892.56283569 76.1892395 C896.9145227 62.70968804 901.25444978 49.22653654 905.5546875 35.73046875 C905.90985947 34.61587784 906.26503143 33.50128693 906.63096619 32.35292053 C908.28929393 27.14646859 909.94497457 21.93919211 911.59692383 16.73071289 C912.17268313 14.91943179 912.74844776 13.10815238 913.32421875 11.296875 C913.58359222 10.47620041 913.8429657 9.65552582 914.11019897 8.8099823 C915.8870796 3.22584079 915.8870796 3.22584079 917 1 C964.52 1 1012.04 1 1061 1 C1061 121.12 1061 241.24 1061 365 C1026.68 365 992.36 365 957 365 C956.67 291.74 956.34 218.48 956 143 C944.90375 176.28875 933.8075 209.5775 922.375 243.875 C908.91666667 284.25 895.45833333 324.625 882 365 C866.16 365 850.32 365 834 365 C797 254 797 254 760 143 C759.67 216.26 759.34 289.52 759 365 C690.69 365 622.38 365 552 365 C550.06713052 359.20139157 548.20021943 353.43891838 546.51953125 347.5703125 C546.30181564 346.81330048 546.08410004 346.05628845 545.85978699 345.27633667 C545.40590225 343.69526176 544.9530547 342.11388875 544.5012207 340.53222656 C543.80785541 338.10876617 543.10814206 335.68719385 542.40820312 333.265625 C541.96575885 331.72146499 541.52368794 330.17719795 541.08203125 328.6328125 C540.76804131 327.55001511 540.76804131 327.55001511 540.44770813 326.44534302 C539.62032279 323.52945312 539 321.04786827 539 318 C495.77 318 452.54 318 408 318 C407.34 321.3 406.68 324.6 406 328 C405.24657973 330.95194133 404.47383993 333.88421278 403.65234375 336.81640625 C403.43558487 337.59894272 403.21882599 338.38147919 402.99549866 339.18772888 C402.54262733 340.81908415 402.08797995 342.44994737 401.6315918 344.08032227 C400.93075607 346.58661732 400.23750907 349.09493015 399.54492188 351.60351562 C399.10200908 353.19543682 398.65866577 354.78723831 398.21484375 356.37890625 C398.00754135 357.12983047 397.80023895 357.8807547 397.58665466 358.6544342 C396.11508273 363.88491727 396.11508273 363.88491727 395 365 C392.33192067 365.09782976 389.68973961 365.12994029 387.02122498 365.12025452 C386.17507521 365.12110894 385.32892545 365.12196337 384.45713478 365.12284368 C381.59957601 365.12450108 378.74207492 365.11897288 375.88452148 365.11352539 C373.84499106 365.11324355 371.80546054 365.11340119 369.76593018 365.1139679 C364.21037264 365.11425599 358.65483648 365.10835738 353.09928393 365.10139394 C347.30032632 365.09516234 341.50136828 365.09455676 335.70240784 365.09336853 C324.71286173 365.09025464 313.72332552 365.08204048 302.73378378 365.07201904 C290.22614015 365.06085969 277.71849606 365.0553479 265.21084869 365.05032361 C239.47389363 365.03985791 213.73694737 365.02225736 188 365 C187.35960608 363.72993986 186.72045027 362.45925539 186.0818119 361.18831158 C185.72574824 360.48076691 185.36968457 359.77322225 185.0028311 359.04423684 C183.72765047 356.44482481 182.61613003 353.80068901 181.53662109 351.11450195 C181.09390366 350.01755508 180.65118622 348.92060822 180.1950531 347.79042053 C179.72591995 346.61821457 179.2567868 345.44600861 178.7734375 344.23828125 C178.26750086 342.98108181 177.7612731 341.7239995 177.254776 340.46702576 C175.90324618 337.11042405 174.55589404 333.75216099 173.20954514 330.39347839 C171.81239229 326.90961065 170.41194462 323.42706762 169.01196289 319.94433594 C166.75298726 314.32331804 164.49657356 308.70127754 162.24169922 303.07861328 C159.72748195 296.80957594 157.20673078 290.54320602 154.68237305 284.27824402 C152.98961092 280.07600539 151.2997936 275.87258778 149.61090088 271.66879272 C148.83032946 269.72714923 148.04871757 267.78592369 147.26605225 265.84512329 C146.19361001 263.1845139 145.12549295 260.52221098 144.05859375 257.859375 C143.74422867 257.08218613 143.42986359 256.30499725 143.10597229 255.5042572 C141 250.22857536 141 250.22857536 141 248 C128.79 248 116.58 248 104 248 C104 286.61 104 325.22 104 365 C69.68 365 35.36 365 0 365 C0 244.55 0 124.1 0 0 Z M104 93 C104 113.79 104 134.58 104 156 C115.59078204 156.11662138 115.59078204 156.11662138 127.18164062 156.1953125 C131.91921229 156.21909108 136.65647055 156.24701382 141.39379883 156.30175781 C145.2193676 156.34568168 149.04459963 156.36923347 152.87040138 156.37950897 C154.31944889 156.38681795 155.76848099 156.4010868 157.21738243 156.42292023 C169.5169162 156.60064566 181.36232923 155.33412351 191.05859375 147.06640625 C198.38578384 139.26744537 200.39016649 131.81061765 200.2734375 121.38671875 C199.57628774 112.75202101 195.55927653 105.60974316 189 100 C178.33007044 93.15940894 167.85476605 92.713784 155.5625 92.8046875 C154.07177928 92.80842353 152.58105609 92.81126771 151.09033203 92.81326294 C147.19082712 92.82085297 143.29147419 92.84046096 139.39202881 92.8626709 C134.70044596 92.88685246 130.00881194 92.89593239 125.31718445 92.90757751 C118.21135101 92.92688865 111.10585021 92.96524312 104 93 Z M473 100 C469.28918539 112.18674545 465.58096335 124.37427842 461.875 136.5625 C461.60193024 137.46056995 461.32886047 138.35863991 461.04751587 139.2839241 C452.26789438 168.16121297 443.57454148 197.06092249 435 226 C460.41 226 485.82 226 512 226 C502.82906776 195.02262887 493.48296161 164.10511816 484.01873207 133.2165451 C483.30361706 130.88256573 482.58870132 128.54852538 481.87380981 126.21447754 C480.99111606 123.3326176 480.10744841 120.45105901 479.22311401 117.56970215 C478.823522 116.26587691 478.423954 114.96204432 478.02441406 113.65820312 C477.68025452 112.53643677 477.33609497 111.41467041 476.98150635 110.25891113 C475.95418285 106.84787258 474.97080372 103.42749136 474 100 C473.67 100 473.34 100 473 100 Z " fill="#FFFFFF" transform="translate(2571,1840)"/>
<path d="M0 0 C35.97 0 71.94 0 109 0 C109.33 22.77 109.66 45.54 110 69 C113.96 65.04 117.92 61.08 122 57 C145.48072025 39.27435824 171.43601498 32.34481595 200.5625 35.75 C230.74502412 40.29326416 257.70377123 55.36192417 276 80 C306.06351641 122.80839174 312.68651747 178.22202052 304.1875 229.0390625 C298.60132013 260.09617258 286.9836686 288.00975317 265 311 C264.37867188 311.68449219 263.75734375 312.36898437 263.1171875 313.07421875 C244.75174047 332.63073033 216.38755389 343.06188147 190.0078125 344.28515625 C161.57119713 345.05000882 136.65180926 336.01784911 115.63671875 316.84375 C113.05906648 314.32480203 111.00802383 312.01203575 109 309 C108.67 327.48 108.34 345.96 108 365 C122.19 365 136.38 365 151 365 C151 396.68 151 428.36 151 461 C135.82 461 120.64 461 105 461 C105 468.59 105 476.18 105 484 C101.43599597 513.50203338 89.87754174 538.91832304 66.26171875 557.6875 C38.76543499 577.18187124 5.02727281 582.32405468 -27.9375 576.8125 C-30.64908656 576.29206879 -33.32294019 575.67464778 -36 575 C-36.72171387 574.82307617 -37.44342773 574.64615234 -38.18701172 574.46386719 C-47.75982285 572.05453981 -56.36373282 568.84230009 -65 564 C-64.3184404 556.05292599 -62.19524604 548.47226809 -60.18359375 540.78125 C-59.80344257 539.31306047 -59.42373464 537.8447561 -59.04444885 536.37634277 C-58.0509703 532.53493719 -57.05152487 528.69510918 -56.05078125 524.85559082 C-55.0282561 520.92810916 -54.01144744 516.99914841 -52.99414062 513.0703125 C-51.00165019 505.37875859 -49.00284659 497.68886368 -47 490 C-43.71060269 491.08456081 -40.49416638 492.19688589 -37.3125 493.5625 C-28.59273715 496.80126906 -20.53971772 496.59329671 -12 493 C-6.09841976 490.10488516 -3.5841544 485.84780756 -1 480 C0.54454554 473.82181785 0.57638536 467.35421956 1 461 C-17.48 461 -35.96 461 -55 461 C-55 429.32 -55 397.64 -55 365 C-36.52 365 -18.04 365 1 365 C0.67 346.85 0.34 328.7 0 310 C-2.64 312.97 -5.28 315.94 -8 319 C-27.52135965 337.50526364 -53.34158318 344.54633771 -79.625 344.21484375 C-111.01244358 343.30333971 -137.87164236 329.46637935 -159.3828125 307.0234375 C-169.15607202 296.42586511 -176.09896674 284.07013966 -182 271 C-182.53238281 269.84628906 -183.06476563 268.69257813 -183.61328125 267.50390625 C-203.78860284 220.74095157 -202.63425039 158.75628073 -184.01171875 111.70703125 C-178.64379856 98.80944925 -172.02906715 86.69550572 -163 76 C-162.16984375 75.00742188 -161.3396875 74.01484375 -160.484375 72.9921875 C-141.73494618 51.23200301 -115.41620262 38.05687913 -86.8671875 35.2421875 C-57.83314002 33.42389362 -32.37450203 39.984133 -10.3046875 59.3671875 C-7.14289929 62.18667385 -3.99591258 65.00408742 -1 68 C-0.67 45.56 -0.34 23.12 0 0 Z M-71 143 C-72.03125 143.7425 -73.0625 144.485 -74.125 145.25 C-85.56228404 156.19001082 -90.81072995 171.47073265 -91.28369141 187.04467773 C-91.51262091 204.56942509 -86.97792453 220.92631273 -74.515625 233.8125 C-62.31041242 244.42572833 -49.0759432 247.24778959 -33.37011719 246.25878906 C-23.45434559 245.17610284 -14.0258311 240.80651433 -6 235 C-4.98034149 234.30425873 -3.96068298 233.60851746 -2.91012573 232.89169312 C-0.22188503 230.62176864 -0.01338667 230.0626592 0.77536011 226.37075806 C0.81684123 224.95037242 0.82566724 223.52879285 0.80810547 222.10791016 C0.82869522 220.93862221 0.82869522 220.93862221 0.84970093 219.74571228 C0.88621927 217.17608177 0.87856791 214.60889609 0.8671875 212.0390625 C0.87631345 210.24693002 0.88692529 208.45480454 0.8989563 206.66268921 C0.9168153 202.90830033 0.91197947 199.1547623 0.89208984 195.40039062 C0.86912621 190.59885778 0.90949834 185.80027032 0.96792412 180.99912453 C1.0046995 177.2979581 1.00405369 173.59749401 0.99264908 169.89619064 C0.99234315 168.12680305 1.00439142 166.35736708 1.02923203 164.58815384 C1.44520756 155.0562012 1.44520756 155.0562012 -1.73374939 146.38500977 C-3.75052173 144.57681813 -5.61251895 143.26358394 -8 142 C-9.06863281 141.37609375 -10.13726562 140.7521875 -11.23828125 140.109375 C-31.51788605 131.14202752 -52.3796668 128.55122821 -71 143 Z M117 143 C116.01028702 143.53992584 116.01028702 143.53992584 115.00057983 144.09075928 C110.99885217 146.77581254 109.24420066 148.84174234 108.2346344 153.63017273 C107.81721518 158.30969061 107.85963392 162.9898145 107.90234375 167.68359375 C107.89440573 169.42563492 107.884243 171.16766725 107.8719635 172.90968323 C107.85569242 176.55404237 107.86872057 180.19683288 107.90209961 183.84106445 C107.94206288 188.4971418 107.90547341 193.14892668 107.84632015 197.80467129 C107.80978577 201.40047649 107.81596835 204.99526837 107.83459663 208.59117317 C107.83806887 210.30668859 107.82804299 212.02228933 107.80390739 213.73763847 C107.47060694 223.25470904 107.47060694 223.25470904 110.97174072 231.80952454 C113.22299352 233.84911023 115.3889974 235.4586802 118 237 C119.02867187 237.65613281 120.05734375 238.31226562 121.1171875 238.98828125 C135.57389213 245.9299567 150.31703774 248.78668286 166.0625 244.375 C171.67211497 242.37560323 176.31092064 239.63857279 181 236 C182.03125 235.2575 183.0625 234.515 184.125 233.75 C196.1388327 222.25850786 200.78568675 206.51535899 201.3125 190.25 C200.91689306 173.41472673 196.26600934 158.45095718 184.31640625 146.1171875 C173.2729403 136.02349687 160.95008419 132.45301659 146.203125 132.72265625 C135.94169089 133.19099146 125.6246633 137.57388733 117 143 Z " fill="#FFFFFF" transform="translate(439,1834)"/>
<path d="M0 0 C55.0996875 -0.12375 55.0996875 -0.12375 111.3125 -0.25 C128.67290894 -0.30462402 128.67290894 -0.30462402 146.3840332 -0.36035156 C160.58044434 -0.37841797 160.58044434 -0.37841797 167.23869324 -0.3817749 C171.86210399 -0.38548261 176.48532868 -0.40039663 181.10868835 -0.42230225 C187.02643968 -0.4499645 192.94392477 -0.45792331 198.86173475 -0.4522891 C201.0208261 -0.45346532 203.17992782 -0.46126255 205.33896315 -0.47686052 C235.61314245 -0.68521973 262.34845607 6.97773701 284.6875 28.375 C301.51344165 45.76180637 309.72143915 69.26238456 310.3125 93.1875 C309.91139462 117.32902997 303.09222757 140.86507691 285.8515625 158.3125 C277.55895943 166.1279944 267.86077401 172.379742 257 176 C258.10794922 176.43699219 258.10794922 176.43699219 259.23828125 176.8828125 C281.40275785 185.83872554 299.08872782 200.34514576 308.6640625 222.796875 C314.27866853 236.77924077 316.55661132 250.27044217 316.4375 265.3125 C316.43293793 266.32123169 316.43293793 266.32123169 316.42828369 267.3503418 C316.35528163 278.31038426 315.49822664 288.57671245 312 299 C311.78037598 299.65838867 311.56075195 300.31677734 311.33447266 300.99511719 C303.36860267 324.05273094 288.67360786 342.50176694 266.8125 353.4375 C264.22854648 354.67376964 261.624901 355.85352434 259 357 C258.04480469 357.42023437 257.08960938 357.84046875 256.10546875 358.2734375 C240.80251911 364.37626299 225.0842451 364.42516045 208.88671875 364.34057617 C206.56191523 364.3396554 204.23711088 364.34006065 201.91230774 364.34167194 C195.73073161 364.34234453 189.54933249 364.32505656 183.36779785 364.30384064 C177.55053192 364.28665598 171.73330734 364.28594588 165.91601562 364.28381348 C148.94398731 364.26812063 131.97199137 364.22623684 115 364.1875 C77.05 364.125625 39.1 364.06375 0 364 C0 243.88 0 123.76 0 0 Z M104 90 C104 104.85 104 119.7 104 135 C118.55660976 135.1164227 118.55660976 135.1164227 133.11328125 135.1953125 C139.05401981 135.21918603 144.9945108 135.24737088 150.93505859 135.30175781 C155.72669176 135.34534963 160.51805927 135.36916532 165.30987549 135.37950897 C167.13425882 135.38687645 168.95862829 135.40126339 170.78289795 135.42292023 C173.34646559 135.45213201 175.90894787 135.45594867 178.47265625 135.45410156 C179.22000534 135.46848267 179.96735443 135.48286377 180.73735046 135.49768066 C187.07995315 135.44851634 192.20591672 133.41111048 197.0234375 129.25390625 C197.46945312 128.69574219 197.91546875 128.13757812 198.375 127.5625 C198.83648438 127.00691406 199.29796875 126.45132812 199.7734375 125.87890625 C203.83663254 119.65471257 203.68933898 113.20751893 203 106 C201.32574858 99.8042672 197.31106474 95.4670984 192 92 C187.64377073 89.80204601 183.59088752 89.72763542 178.81323242 89.77294922 C178.00295593 89.77265717 177.19267944 89.77236511 176.35784912 89.77206421 C173.69027855 89.7734531 171.02299029 89.78899348 168.35546875 89.8046875 C166.50173597 89.8084192 164.64800121 89.81126543 162.79426575 89.81326294 C157.92313154 89.82088705 153.05211722 89.84052506 148.18103027 89.8626709 C142.33230314 89.88675936 136.48353584 89.89591613 130.63477325 89.90757751 C121.7564322 89.92695014 112.87835405 89.96528126 104 90 Z M104 225 C104 241.17 104 257.34 104 274 C119.42086932 274.11643449 119.42086932 274.11643449 134.84179688 274.1953125 C141.13579883 274.21918027 147.42956697 274.24734967 153.72338867 274.30175781 C158.80031451 274.34536926 163.87698944 274.36916948 168.95408821 274.37950897 C170.88649505 274.38687292 172.81888889 274.40125287 174.75118828 274.42292023 C177.46780442 274.45215784 180.18339714 274.45594756 182.90014648 274.45410156 C183.69065399 274.46848267 184.4811615 274.48286377 185.29562378 274.49768066 C192.11764074 274.44785195 198.04150556 272.43989358 203.33984375 268.0703125 C208.91900055 261.27710935 210.55030113 255.93235702 210.375 247.1015625 C209.56081871 240.36760475 206.49797939 235.02771 201.5 230.5 C194.59053463 225.20224577 187.17399242 224.84609582 178.69970703 224.88647461 C177.48407326 224.88625557 177.48407326 224.88625557 176.24388123 224.8860321 C173.5818305 224.88672529 170.91985091 224.89448977 168.2578125 224.90234375 C166.40550779 224.90421004 164.55320259 224.90563295 162.70089722 224.90663147 C157.8380394 224.91044003 152.97521169 224.92025608 148.11236572 224.93133545 C142.27110415 224.94338913 136.42983248 224.94795972 130.58856201 224.95378876 C121.7256871 224.96346876 112.86287819 224.98263694 104 225 Z " fill="#FFFFFF" transform="translate(905,1841)"/>
<path d="M0 0 C239.36130008 0 239.36130008 0 290.61474609 49.66162109 C291.80926144 50.81571576 293.02212082 51.95076858 294.23828125 53.08203125 C326.7982464 84.07598606 339.98423531 132.05790883 341.18359375 175.64453125 C342.03385683 225.89933058 328.40627201 273.57563395 294 311 C292.93265625 312.19109375 292.93265625 312.19109375 291.84375 313.40625 C268.72730747 337.94524284 235.79735131 352.56021832 203.375 359.75 C202.48208252 359.94875732 201.58916504 360.14751465 200.66918945 360.35229492 C135.20062905 374.12117182 66.90078006 364 0 364 C0 243.88 0 123.76 0 0 Z M104 96 C104 152.43 104 208.86 104 267 C147.7179552 270.09839927 147.7179552 270.09839927 190.375 259.25 C191.03363037 258.90783447 191.69226074 258.56566895 192.37084961 258.21313477 C198.13679372 255.12067828 203.16466091 251.4113448 208 247 C208.6084375 246.48308594 209.216875 245.96617187 209.84375 245.43359375 C226.27736166 230.53129591 233.48712711 206.70160578 234.89794922 185.26708984 C235.99438786 160.90936447 229.0845135 137.34499098 213.1015625 118.796875 C203.37314635 108.39342589 190.36147973 102.10762924 176.6875 98.75 C176.03700684 98.58669189 175.38651367 98.42338379 174.71630859 98.25512695 C152.75101051 93.26494727 124.16722331 96 104 96 Z " fill="#FFFFFF" transform="translate(1845,1841)"/>
<path d="M0 0 C0.84070038 -0.00705963 1.68140076 -0.01411926 2.5475769 -0.02139282 C37.63281879 -0.24919017 37.63281879 -0.24919017 52.890625 3.203125 C53.79796387 3.40180176 54.70530273 3.60047852 55.64013672 3.80517578 C89.88635913 11.49545449 119.25020229 27.24596668 144.890625 51.203125 C145.76589844 52.01265625 146.64117188 52.8221875 147.54296875 53.65625 C178.41234945 83.24125187 198.04739123 129.19939773 199.05175781 171.83886719 C199.07160483 173.47585099 199.0853498 175.11291744 199.09375 176.75 C199.09945007 177.64189026 199.10515015 178.53378052 199.11102295 179.45269775 C199.12041574 181.33515257 199.12698398 183.2176234 199.13085938 185.10009766 C199.14045783 187.90428583 199.1714915 190.70770527 199.203125 193.51171875 C199.30173678 210.19362054 197.61099714 226.63219648 193.203125 242.765625 C192.94821289 243.7134082 192.69330078 244.66119141 192.43066406 245.63769531 C186.20786185 267.93421126 176.05538115 288.8897914 161.890625 307.203125 C161.19710938 308.11964844 160.50359375 309.03617188 159.7890625 309.98046875 C129.76220198 348.27315042 84.49215024 370.94546033 36.6027832 376.75170898 C31.99002848 377.24315407 27.41745493 377.38021629 22.78125 377.40625 C21.94054962 377.41330963 21.09984924 377.42036926 20.2336731 377.42764282 C-14.85156879 377.65544017 -14.85156879 377.65544017 -30.109375 374.203125 C-31.01671387 374.00444824 -31.92405273 373.80577148 -32.85888672 373.60107422 C-67.10510913 365.91079551 -96.46895229 350.16028332 -122.109375 326.203125 C-122.98464844 325.39359375 -123.85992188 324.5840625 -124.76171875 323.75 C-155.63109945 294.16499813 -175.26614123 248.20685227 -176.27050781 205.56738281 C-176.29035483 203.93039901 -176.3040998 202.29333256 -176.3125 200.65625 C-176.31820007 199.76435974 -176.32390015 198.87246948 -176.32977295 197.95355225 C-176.33916574 196.07109743 -176.34573398 194.1886266 -176.34960938 192.30615234 C-176.35920783 189.50196417 -176.3902415 186.69854473 -176.421875 183.89453125 C-176.52048678 167.21262946 -174.82974714 150.77405352 -170.421875 134.640625 C-170.16696289 133.6928418 -169.91205078 132.74505859 -169.64941406 131.76855469 C-163.42661185 109.47203874 -153.27413115 88.5164586 -139.109375 70.203125 C-138.41585938 69.28660156 -137.72234375 68.37007812 -137.0078125 67.42578125 C-106.98095198 29.13309958 -61.71090024 6.46078967 -13.8215332 0.65454102 C-9.20877848 0.16309593 -4.63620493 0.02603371 0 0 Z M-40.109375 116.203125 C-41.00398438 117.00492188 -41.89859375 117.80671875 -42.8203125 118.6328125 C-61.36480108 136.16116472 -69.85333243 160.40265531 -70.58007812 185.50244141 C-70.83152352 212.97285037 -63.29817386 237.09408179 -44.109375 257.203125 C-43.57957031 257.81929687 -43.04976562 258.43546875 -42.50390625 259.0703125 C-32.00321188 270.78574015 -14.08088116 278.32298069 1.49926758 279.38012695 C24.64324619 279.8892093 44.9917462 277.33108999 62.890625 261.203125 C63.78523438 260.40132812 64.67984375 259.59953125 65.6015625 258.7734375 C84.14605108 241.24508528 92.63458243 217.00359469 93.36132812 191.90380859 C93.61277352 164.43339963 86.07942386 140.31216821 66.890625 120.203125 C66.36082031 119.58695313 65.83101562 118.97078125 65.28515625 118.3359375 C54.78446188 106.62050985 36.86213116 99.08326931 21.28198242 98.02612305 C-1.86199619 97.5170407 -22.2104962 100.07516001 -40.109375 116.203125 Z " fill="#FFFFFF" transform="translate(1391.109375,1834.796875)"/>
<path d="M0 0 C85.8 0 171.6 0 260 0 C260 30.69 260 61.38 260 93 C208.52 93 157.04 93 104 93 C104 106.86 104 120.72 104 135 C154.49 135 204.98 135 257 135 C257 165.36 257 195.72 257 227 C206.51 227 156.02 227 104 227 C104 242.18 104 257.36 104 273 C155.48 273 206.96 273 260 273 C260 303.69 260 334.38 260 366 C174.2 366 88.4 366 0 366 C0 245.22 0 124.44 0 0 Z " fill="#FFFFFF" transform="translate(3660,1840)"/>
<path d="M0 0 C85.8 0 171.6 0 260 0 C260 30.69 260 61.38 260 93 C208.52 93 157.04 93 104 93 C104 106.86 104 120.72 104 135 C154.49 135 204.98 135 257 135 C257 165.36 257 195.72 257 227 C206.51 227 156.02 227 104 227 C104 272.54 104 318.08 104 365 C69.68 365 35.36 365 0 365 C0 244.55 0 124.1 0 0 Z " fill="#FFFFFF" transform="translate(2296,1840)"/>
<path d="M0 0 C34.32 0 68.64 0 104 0 C104 88.11 104 176.22 104 267 C146.9 267 189.8 267 234 267 C234 299.01 234 331.02 234 364 C156.78 364 79.56 364 0 364 C0 243.88 0 123.76 0 0 Z " fill="#FFFFFF" transform="translate(1598,1841)"/>
<path d="M0 0 C12.54 0 25.08 0 38 0 C38 48.51 38 97.02 38 147 C25.46 147 12.92 147 0 147 C-0.33 144.69 -0.66 142.38 -1 140 C-1.72445312 140.55429688 -2.44890625 141.10859375 -3.1953125 141.6796875 C-4.64550781 142.76636719 -4.64550781 142.76636719 -6.125 143.875 C-7.55199219 144.95394531 -7.55199219 144.95394531 -9.0078125 146.0546875 C-17.32382663 151.46118233 -27.41716564 150.99223916 -37 150 C-45.13987828 148.03731676 -51.24518601 143.97466082 -57 138 C-57.54269531 137.46632813 -58.08539062 136.93265625 -58.64453125 136.3828125 C-66.75019907 127.80516908 -68.55213405 117.42337443 -71 106 C-92.12 106 -113.24 106 -135 106 C-130.89074767 112.16387849 -127.98088681 115.69591517 -121 118 C-111.98610525 118.99920654 -104.65038365 118.15392069 -96.48828125 114.19140625 C-94.28391571 113.1359408 -92.36306311 112.5451779 -90 112 C-87.6255212 115.73749825 -85.27907065 119.49181279 -82.9375 123.25 C-81.92333008 124.84521484 -81.92333008 124.84521484 -80.88867188 126.47265625 C-80.25380859 127.49746094 -79.61894531 128.52226562 -78.96484375 129.578125 C-78.3730835 130.52075195 -77.78132324 131.46337891 -77.17163086 132.43457031 C-76 135 -76 135 -76.20043945 137.24121094 C-78.06589206 141.34463708 -83.13241524 143.14096764 -87 145 C-104.49621349 151.47932205 -126.50173448 153.59669323 -144 146 C-157.74175694 139.30282351 -166.93049239 128.96726746 -172.22265625 114.58984375 C-176.93182711 98.90049561 -176.28224703 81.63401511 -169.375 66.6875 C-161.66799926 52.52945421 -150.10385582 43.89308314 -135 39 C-121.81665414 35.19109813 -106.04223494 37.26417546 -94.12109375 43.5078125 C-82.48428083 50.31574387 -76.03915568 59.74855275 -71 72 C-71 72.99 -71 73.98 -71 75 C-70.34 75 -69.68 75 -69 75 C-68.896875 73.98679687 -68.79375 72.97359375 -68.6875 71.9296875 C-66.83588352 61.34601602 -60.56582201 51.42107702 -52 45 C-40.15702082 38.03874698 -28.34468588 35.81097941 -14.76953125 38.68359375 C-8.87488853 40.88608816 -6.12792483 43.60463586 -1 48 C-0.67 32.16 -0.34 16.32 0 0 Z M-132 73 C-134.18702362 75.98893229 -135 77.27944454 -135 81 C-124.77 81 -114.54 81 -104 81 C-106.18708065 74.43875805 -107.83183318 72.08408341 -114 69 C-120.90756362 68.36921949 -126.69735858 67.96928891 -132 73 Z M-26.875 78.3125 C-31.18482217 83.76315745 -33.54079206 89.16667099 -32.75 96.234375 C-31.36196518 103.62070316 -28.25815031 108.6674344 -22 113 C-16.29900468 114.90033177 -10.99144571 114.78993868 -5.5625 112.125 C-3.29300354 110.88709284 -1.84905433 109.84905433 0 108 C0.54346282 103.41638518 0.46330514 98.79958527 0.5 94.1875 C0.54125 92.90294922 0.5825 91.61839844 0.625 90.29492188 C0.8883282 83.89778459 0.8883282 83.89778459 -1.21948242 78.05126953 C-9.13826102 71.14913324 -19.04821785 72.01704479 -26.875 78.3125 Z " fill="#FFFFFF" transform="translate(3675,2264)"/>
<path d="M0 0 C19.47 0 38.94 0 59 0 C61.866875 8.745 64.73375 17.49 67.6875 26.5 C68.58170654 29.22572266 69.47591309 31.95144531 70.3972168 34.75976562 C74.34786432 46.81463479 78.2792948 58.87185232 82 71 C83.77369197 65.70928754 85.54404168 60.41746408 87.3125 55.125 C87.57922516 54.32710052 87.84595032 53.52920105 88.12075806 52.7071228 C91.19322883 43.50970413 94.23950966 34.30483108 97.2109375 25.07421875 C97.46395126 24.28853516 97.71696503 23.50285156 97.97764587 22.69335938 C99.19304564 18.91517532 100.4035461 15.1354864 101.60864258 11.35400391 C102.04503895 9.99249838 102.48147856 8.63100671 102.91796875 7.26953125 C103.29719482 6.07948486 103.6764209 4.88943848 104.06713867 3.66333008 C105 1 105 1 106 0 C125.14 0 144.28 0 164 0 C164 48.51 164 97.02 164 147 C150.14 147 136.28 147 122 147 C121.67 118.95 121.34 90.9 121 62 C118.99035156 68.05214844 116.98070313 74.10429687 114.91015625 80.33984375 C113.6390015 84.16352176 112.36767139 87.98713964 111.09570312 91.81054688 C109.07484823 97.88508749 107.05466182 103.95984494 105.03833008 110.03588867 C103.41348838 114.93207468 101.7857547 119.82729027 100.15597343 124.72183418 C99.53332909 126.59347513 98.91174452 128.46546896 98.2912159 130.33781242 C97.42485597 132.95131721 96.55480559 135.56356493 95.68383789 138.17553711 C95.42561249 138.95740387 95.16738708 139.73927063 94.90133667 140.54483032 C93.11405216 145.88594784 93.11405216 145.88594784 92 147 C90.5112814 147.08669432 89.018555 147.10703494 87.52734375 147.09765625 C86.62822266 147.09443359 85.72910156 147.09121094 84.80273438 147.08789062 C83.85720703 147.07951172 82.91167969 147.07113281 81.9375 147.0625 C80.5134082 147.05573242 80.5134082 147.05573242 79.06054688 147.04882812 C76.70696935 147.0370011 74.35351523 147.02052025 72 147 C62.17453918 118.38497759 52.54050887 89.71153142 43 61 C42.67 89.38 42.34 117.76 42 147 C28.14 147 14.28 147 0 147 C0 98.49 0 49.98 0 0 Z " fill="#FFFFFF" transform="translate(3332,2264)"/>
<path d="M0 0 C1.08539062 -0.01160156 2.17078125 -0.02320312 3.2890625 -0.03515625 C16.1064215 0.01072928 28.48294257 2.7802034 38.32421875 11.4140625 C50.08208735 23.71527068 50.31044179 39.64855441 50.1953125 55.76171875 C50.19157368 57.31541256 50.18873082 58.86910876 50.18673706 60.42280579 C50.17916894 64.47515589 50.15958068 68.52735836 50.1373291 72.57965088 C50.1130871 77.46153463 50.10405715 82.34346826 50.09242249 87.2253952 C50.073151 94.6086989 50.03478141 101.99167984 50 109.375 C37.46 109.375 24.92 109.375 12 109.375 C11.505 105.91 11.505 105.91 11 102.375 C10.56171875 102.76171875 10.1234375 103.1484375 9.671875 103.546875 C-0.64118348 112.0153214 -12.0610301 113.50763696 -24.99707031 112.58935547 C-34.22221374 111.60207171 -41.01347898 106.20005854 -47 99.375 C-53.62381479 88.99870298 -54.84699258 76.98760673 -52.28125 65.0234375 C-49.36740926 56.49340371 -45.33819401 51.72465689 -37.37890625 47.453125 C-30.89380223 44.51406308 -25.35677096 43.98811695 -18.3125 44 C-17.33023438 44.00161133 -16.34796875 44.00322266 -15.3359375 44.00488281 C-5.59630292 44.16979694 3.85278251 46.22778251 11 53.375 C11.34820897 46.96537561 11.44155752 41.92589923 8 36.375 C2.58143736 31.46048969 -3.90969519 31.61761359 -10.91015625 31.91796875 C-18.20320293 32.52274137 -24.62138829 35.59557958 -30.5625 39.75 C-31.366875 40.28625 -32.17125 40.8225 -33 41.375 C-36.86069696 40.08810101 -37.0871084 38.87121319 -38.91796875 35.31640625 C-39.44970703 34.29095703 -39.98144531 33.26550781 -40.52929688 32.20898438 C-41.07650391 31.12939453 -41.62371094 30.04980469 -42.1875 28.9375 C-42.74630859 27.86177734 -43.30511719 26.78605469 -43.88085938 25.67773438 C-48 17.66577953 -48 17.66577953 -48 15.375 C-34.11841156 4.52659329 -17.37932896 -0.1857648 0 0 Z M-15 74.375 C-15.52245555 79.08016025 -15.52245555 79.08016025 -13.6875 83.25 C-8.58709752 86.65026832 -1.85504363 85.79218984 4 85.375 C7.56108467 84.04713792 9.35513566 83.01986434 12 80.375 C12.50059916 77.96017587 12.50059916 77.96017587 12 75.375 C9.24886774 71.67155273 6.4453103 70.38148535 2 69.375 C-4.74404729 68.68485512 -9.99018124 69.36518124 -15 74.375 Z " fill="#FFFFFF" transform="translate(3817,2301.625)"/>
<path d="M0 0 C12.54 0 25.08 0 38 0 C38 34.98 38 69.96 38 106 C25.46 106 12.92 106 0 106 C0 71.02 0 36.04 0 0 Z " fill="#FFFFFF" transform="translate(3723,2305)"/>
<path d="M0 0 C5.35581254 5.35581254 7.56988569 10.98559975 8.375 18.5 C7.46911018 26.95497162 4.54080822 33.38633547 -2 39 C-8.47056965 42.90216805 -14.62934085 43.00809464 -22 42 C-28.48571586 39.38718304 -32.45295526 34.87479284 -36 29 C-38.18415515 22.44753454 -38.3455619 12.82529409 -35.4375 6.4375 C-31.78761846 0.47559386 -26.06809547 -3.83768701 -19.375 -5.75 C-12.1213827 -6.28730498 -5.63341789 -4.71634986 0 0 Z " fill="#FFFFFF" transform="translate(3911,2372)"/>
<path d="M0 0 C5.01286794 4.55894682 8.5176155 9.12569084 9.37109375 15.98046875 C9.53087179 23.69680829 8.83340676 29.77277362 4 36 C-1.12928455 40.77823085 -6.01609244 43 -13 43 C-19.12147657 42.22469011 -24.36076155 40.12428768 -28.4453125 35.2890625 C-33.65149811 28.2383997 -33.67051295 21.63045954 -33 13 C-31.35421843 6.68456109 -27.25944982 2.64207915 -22 -1 C-15.42630119 -4.80582563 -6.36404084 -3.90638279 0 0 Z " fill="#FFFFFF" transform="translate(3754,2252)"/>
</svg>
