<?xml version="1.0" encoding="UTF-8"?>
<svg version="1.1" xmlns="http://www.w3.org/2000/svg" width="4167" height="4167">
<path d="M0 0 C191.73 0 383.46 0 581 0 C581.33 124.74 581.66 249.48 582 378 C592.60656442 366.69708167 592.60656442 366.69708167 603.125 355.3125 C610.95868012 346.81369609 618.96587241 338.41264618 627.7890625 330.9296875 C630.24148228 328.78923632 632.61003635 326.57235312 634.98217773 324.34375 C641.44660826 318.2733764 648.07201071 312.54055377 655 307 C656.19158109 306.01871778 657.38158596 305.03551955 658.5703125 304.05078125 C674.33457381 291.02891105 690.80245184 279.0576089 708 268 C708.80630859 267.48083008 709.61261719 266.96166016 710.44335938 266.42675781 C771.66749177 227.23854856 840.53566958 202.33331359 912.5625 192.8125 C913.73111572 192.65749023 914.89973145 192.50248047 916.10375977 192.34277344 C920.06480213 191.847879 924.02920583 191.40740548 928 191 C928.84894836 190.91172943 929.69789673 190.82345886 930.5725708 190.73251343 C948.54521092 188.92559245 966.44999813 188.6368138 984.49254227 188.68194199 C986.78399984 188.68758371 989.07545001 188.69040359 991.36691284 188.69302368 C1013.31285191 188.72948957 1035.13029761 189.0627701 1056.93817139 191.74676514 C1059.09743309 192.01196678 1061.25780745 192.26639009 1063.41845703 192.52001953 C1147.25795621 202.49169598 1229.39170788 229.190547 1371 323 C1371.88558594 323.73694092 1371.88558594 323.73694092 1372.7890625 324.48876953 C1380.00235825 330.50321876 1387.05888601 336.67270436 1394 343 C1395.32378662 344.19653198 1395.32378662 344.19653198 1396.67431641 345.41723633 C1403.54743724 351.66068229 1410.22266175 358.06511696 1416.7746582 364.64428711 C1418.32584727 366.20089389 1419.88239392 367.75200171 1421.43945312 369.30273438 C1426.3058665 374.16591467 1431.07388056 379.0720962 1435.54858398 384.3034668 C1437.59600752 386.69666211 1439.73806047 388.99928095 1441.875 391.3125 C1446.7957178 396.71491457 1451.42792553 402.30168859 1456 408 C1456.91225289 409.12020516 1457.82503803 410.23997705 1458.73828125 411.359375 C1476.67278382 433.43701282 1493.11944617 456.76548384 1508 481 C1508.38961914 481.63147949 1508.77923828 482.26295898 1509.18066406 482.91357422 C1552.08065401 552.63078255 1583.18782408 629.1514707 1635.90625 896.59765625 C1635.96687622 897.25495224 1636.02750244 897.91224823 1636.08996582 898.58946228 C1639.36839185 935.49903859 1640.35669755 972.40744381 1640.31567383 1009.44921875 C1640.31106183 1013.96169049 1640.3179183 1018.47389134 1640.33618164 1022.98632812 C1640.436126 1047.96435527 1640.09163189 1072.84541208 1638.62109375 1097.78515625 C1638.55952906 1098.83081505 1638.49796436 1099.87647385 1638.43453407 1100.95381927 C1632.62581357 1197.35990246 1615.25664314 1292.70775867 1549.85418701 1469.18804932 C1548.49911923 1472.06249713 1547.1598059 1474.94430312 1545.81640625 1477.82421875 C1520.90156338 1530.84739592 1488.70366685 1581.39990026 1450.59765625 1625.93359375 C1448.27347258 1628.65770986 1446.04076416 1631.44669993 1443.8125 1634.25 C1432.34785946 1648.23368786 1419.25787203 1660.83945012 1406.5 1673.625 C1405.79632294 1674.3313559 1405.09264587 1675.03771179 1404.36764526 1675.76547241 C1402.32100113 1677.8180156 1400.27054807 1679.8666726 1398.21875 1681.9140625 C1397.61080093 1682.52398544 1397.00285187 1683.13390839 1396.3764801 1683.76231384 C1392.07890926 1688.03725061 1387.59594787 1692.04937542 1383 1696 C1381.88228335 1696.97335104 1380.76500421 1697.94720504 1379.6484375 1698.921875 C1371.62451009 1705.87222951 1363.42650017 1712.54435956 1355 1719 C1354.38962891 1719.46873535 1353.77925781 1719.9374707 1353.15039062 1720.42041016 C1281.09078382 1775.58521277 1197.83833988 1813.44239827 1058 1839 C1056.07003174 1839.22647217 1056.07003174 1839.22647217 1054.10107422 1839.45751953 C1010.07055762 1844.47913618 962.96402107 1844.75209386 919 1839 C917.58223357 1838.82097551 916.16442628 1838.64227435 914.74658203 1838.46386719 C895.2883432 1835.98322304 876.08003278 1832.59199775 857 1828 C855.23922119 1827.57726807 855.23922119 1827.57726807 853.44287109 1827.14599609 C773.26487862 1807.55318212 699.53606364 1767.89393529 638.53442383 1712.29882812 C636.95486145 1710.86609917 635.36822163 1709.44108719 633.77099609 1708.02807617 C627.41886421 1702.39762488 621.36350823 1696.51831339 615.3762207 1690.5065918 C613.8072764 1688.93225845 612.23301442 1687.36338411 610.65820312 1685.79492188 C605.22789367 1680.36856454 599.97137665 1674.85394455 595 1669 C593.95509647 1667.80816452 592.90823282 1666.61804455 591.859375 1665.4296875 C590.82273229 1664.24495297 589.78627307 1663.06005786 588.75 1661.875 C588.00556641 1661.03195312 588.00556641 1661.03195312 587.24609375 1660.171875 C581.54754363 1653.63904583 576.38258746 1646.85056586 571 1640 C570.67 1745.93 570.34 1851.86 570 1961 C647.55 1961 725.1 1961 805 1961 C805 2128.97 805 2296.94 805 2470 C724.15 2470 643.3 2470 560 2470 C560 2501.68 560 2533.36 560 2566 C557.66282848 2604.56333004 557.66282848 2604.56333004 556.25 2615.875 C556.16763092 2616.55115356 556.08526184 2617.22730713 556.00039673 2617.9239502 C543.45835364 2720.40222763 505.89205331 2819.38328483 433 2910 C432.50822266 2910.59087402 432.01644531 2911.18174805 431.50976562 2911.79052734 C420.80376695 2924.61557048 409.34332803 2936.72351555 397.5625 2948.5625 C396.92473633 2949.20493652 396.28697266 2949.84737305 395.62988281 2950.50927734 C391.8185008 2954.30776296 387.88685053 2957.91326851 383.81469727 2961.43041992 C381.56914676 2963.37265646 379.3787124 2965.37182509 377.1875 2967.375 C371.9358995 2972.10223494 366.52853209 2976.6016186 361 2981 C360.34467285 2981.52255371 359.6893457 2982.04510742 359.01416016 2982.58349609 C348.62715395 2990.83886698 338.0580282 2998.66911408 327 3006 C326.22930176 3006.5141748 325.45860352 3007.02834961 324.66455078 3007.55810547 C312.70469306 3015.51938648 300.54157896 3022.99266434 288 3030 C287.0929834 3030.51030762 286.1859668 3031.02061523 285.25146484 3031.54638672 C213.43814326 3071.80444274 132.35570604 3094.21539672 36 3102 C34.44128174 3102.10803955 34.44128174 3102.10803955 32.85107422 3102.21826172 C-52.71599973 3107.79647145 -140.83182903 3097.31742082 -349 3025 C-347.41395971 3014.95098624 -344.88809087 3005.15184233 -342.40625 2995.296875 C-341.93628496 2993.42009348 -341.46660662 2991.54324016 -340.99719238 2989.6663208 C-340.00401845 2985.69822933 -339.00855136 2981.73072307 -338.01123047 2977.76367188 C-336.79413535 2972.92241818 -335.58062625 2968.08027758 -334.36878967 2963.23770523 C-329.67502211 2944.48302574 -324.95422548 2925.73529935 -320.1875 2906.99902344 C-311.16459642 2871.5249484 -302.24503882 2836.02611884 -293.39395332 2800.50875568 C-292.20417059 2795.73489491 -291.01388139 2790.96116049 -289.82357168 2786.1874311 C-284.6228192 2765.32973259 -279.42280098 2744.47185382 -274.23339844 2723.61132812 C-271.48791523 2712.57506113 -268.73829984 2701.53983273 -265.98389053 2690.50579 C-264.5400534 2684.72109972 -263.09836259 2678.93589364 -261.66186523 2673.14937592 C-260.32711012 2667.77273043 -258.98699031 2662.39745202 -257.64261246 2657.0232048 C-257.15115013 2655.0543752 -256.6617174 2653.08503773 -256.17443466 2651.11516953 C-255.51150013 2648.43646054 -254.84140663 2645.75964441 -254.16943359 2643.08319092 C-253.97742622 2642.29991511 -253.78541885 2641.5166393 -253.58759308 2640.70962787 C-252.73509655 2637.34362925 -251.94582895 2634.91874343 -250 2632 C-249.52393311 2632.28609131 -249.04786621 2632.57218262 -248.55737305 2632.86694336 C-220.3553093 2649.72625083 -191.66967518 2661.06940078 -159 2666 C-158.27433838 2666.11053711 -157.54867676 2666.22107422 -156.80102539 2666.33496094 C-119.61963826 2671.22576013 -78.31391169 2664.5200375 -47.76123047 2641.81689453 C-33.44965079 2630.73155013 -21.91021261 2617.84452033 -13 2602 C-12.40445312 2600.94554688 -11.80890625 2599.89109375 -11.1953125 2598.8046875 C10.00118595 2558.95527041 6.31178268 2514.0459083 7 2470 C-92.33 2470 -191.66 2470 -294 2470 C-294 2302.03 -294 2134.06 -294 1961 C-194.67 1961 -95.34 1961 7 1961 C6.67 1856.39 6.34 1751.78 6 1644 C3.36 1647.3 0.72 1650.6 -2 1654 C-3.90369013 1656.2849265 -5.8111522 1658.55834256 -7.75 1660.8125 C-8.2538623 1661.39870117 -8.75772461 1661.98490234 -9.27685547 1662.58886719 C-17.79783726 1672.44414225 -26.71663707 1681.86143823 -36 1691 C-38.91325346 1693.90334443 -41.81279141 1696.81991892 -44.70703125 1699.7421875 C-46.0754682 1701.11984395 -47.44395897 1702.49744694 -48.8125 1703.875 C-49.48603516 1704.55691406 -50.15957031 1705.23882813 -50.85351562 1705.94140625 C-55.3994155 1710.50905685 -60.1027568 1714.81301454 -65 1719 C-66.00921786 1719.8774854 -67.01834086 1720.75507992 -68.02734375 1721.6328125 C-141.53730652 1784.58496854 -230.60866693 1823.55687374 -387.4140625 1842.203125 C-388.86560091 1842.21014443 -390.31713899 1842.21723127 -391.76867676 1842.22438049 C-396.38745561 1842.24380518 -401.00618443 1842.24881499 -405.625 1842.25 C-406.41143639 1842.25044186 -407.19787277 1842.25088371 -408.00814056 1842.25133896 C-431.47307629 1842.25825711 -454.69039499 1841.93573307 -478 1839 C-479.43393626 1838.83079131 -480.86802363 1838.66285914 -482.30224609 1838.49609375 C-552.27137017 1830.28505771 -619.08722677 1809.52937127 -682 1778 C-683.03382813 1777.484375 -684.06765625 1776.96875 -685.1328125 1776.4375 C-706.34592953 1765.80324812 -726.45536033 1753.43750192 -746 1740 C-746.70286133 1739.51853516 -747.40572266 1739.03707031 -748.12988281 1738.54101562 C-763.04027114 1728.29055132 -777.35549696 1717.2901148 -791.07421875 1705.4921875 C-793.75779581 1703.20631011 -796.49038526 1701.00529732 -799.25 1698.8125 C-812.69377434 1687.80086147 -824.83553776 1675.2599304 -837.125 1663 C-837.75960144 1662.36807739 -838.39420288 1661.73615479 -839.04803467 1661.08508301 C-845.58595401 1654.56809888 -852.04638036 1648.06307636 -858 1641 C-859.04452864 1639.80783595 -860.09141324 1638.61773206 -861.140625 1637.4296875 C-867.4032544 1630.28489956 -873.44959575 1623.0271779 -879.26171875 1615.51171875 C-881.10536018 1613.13070792 -882.98277582 1610.78369187 -884.89453125 1608.45703125 C-891.77226573 1600.06562911 -897.98679765 1591.36011399 -904.04296875 1582.359375 C-906.30103073 1579.00681877 -908.63679033 1575.73427956 -911.0625 1572.5 C-929.88628418 1546.88860391 -945.01424276 1518.08165113 -959.51953125 1489.87744141 C-960.47456031 1488.02124542 -961.43266828 1486.16662878 -962.39453125 1484.31396484 C-1001.65441949 1408.58028273 -1026.30596541 1324.27031102 -1056.1875 1129.4375 C-1056.30585709 1128.11049576 -1056.30585709 1128.11049576 -1056.42660522 1126.75668335 C-1059.47180594 1092.18645475 -1060.33570707 1057.62699355 -1060.26074219 1022.93725586 C-1060.24935614 1017.62952716 -1060.25613666 1012.32199932 -1060.26761913 1007.01427746 C-1060.33193657 971.94501918 -1059.2426176 937.0082102 -1056.1875 902.0625 C-1056.10351959 901.08148315 -1056.01953918 900.10046631 -1055.93301392 899.08972168 C-1048.44324168 812.01256403 -1032.12714947 726.00021193 -1001.67126465 636.94348145 C-1001.04200114 635.12160397 -1000.41590639 633.29863289 -999.79003906 631.47558594 C-991.01445947 606.03173287 -980.46272417 581.33970663 -969 557 C-968.29689697 555.49324707 -968.29689697 555.49324707 -967.57958984 553.95605469 C-942.5525498 500.3787094 -910.68973831 450.53379552 -873 405 C-872.51789063 404.41734375 -872.03578125 403.8346875 -871.5390625 403.234375 C-865.41484787 395.8582491 -859.07899782 388.72005169 -852.5534668 381.69702148 C-851.37484102 380.4094798 -850.20931939 379.10992746 -849.05004883 377.80493164 C-843.67156634 371.75391446 -838.09837599 365.94232584 -832.36108398 360.23071289 C-830.93160283 358.80662508 -829.50759489 357.37721956 -828.08398438 355.94726562 C-823.4262698 351.2960336 -818.72543939 346.7663923 -813.72729492 342.48217773 C-811.32620824 340.42182477 -809.01132303 338.27173543 -806.6875 336.125 C-802.25503526 332.08720678 -797.72257823 328.22692566 -793.0546875 324.46484375 C-790.8168842 322.65914825 -788.59518101 320.84020688 -786.3828125 319.00390625 C-758.54686358 295.98079675 -727.93755479 276.41552509 -696.21679688 259.20458984 C-694.75463729 258.41006392 -693.29493196 257.61100243 -691.83789062 256.80712891 C-619.82587664 217.11610677 -537.59801977 196.44576403 -456 190 C-454.89188965 189.90428711 -453.7837793 189.80857422 -452.64208984 189.70996094 C-438.04222258 188.60231635 -423.38347117 188.75409023 -408.75 188.75 C-408.02617126 188.74955814 -407.30234253 188.74911629 -406.55657959 188.74866104 C-383.91401045 188.74141906 -361.48751905 189.13261554 -339 192 C-338.33226562 192.0825 -337.66453125 192.165 -336.9765625 192.25 C-286.85545626 198.44367282 -237.92912347 211.92879309 -192 233 C-190.4840625 233.69416016 -190.4840625 233.69416016 -188.9375 234.40234375 C-149.62704239 252.53429232 -112.06801047 275.96949942 -79 304 C-77.99066406 304.84820313 -76.98132812 305.69640625 -75.94140625 306.5703125 C-73.19017341 308.88536412 -70.45051283 311.21371867 -67.71337891 313.54541016 C-65.96416753 315.03042033 -64.20724891 316.50591435 -62.44921875 317.98046875 C-55.81134103 323.57407399 -49.52403559 329.33892416 -43.453125 335.54296875 C-41.32582214 337.67365903 -39.16049485 339.66793256 -36.875 341.625 C-30.29888428 347.25974946 -24.37745432 353.46740316 -18.74609375 360.03515625 C-16.2837284 362.80600585 -13.63678623 365.37314416 -10.99609375 367.97265625 C-8.32192633 370.6886893 -5.83069543 373.54331352 -3.34765625 376.43359375 C-2.59150381 377.31248398 -1.81982149 378.18017851 -1 379 C-0.67 253.93 -0.34 128.86 0 0 Z M-419.57861328 793.89892578 C-473.44933833 854.28846126 -495.19790533 935.80897571 -495.25 1015.3125 C-495.25067474 1016.24797668 -495.25134949 1017.18345337 -495.25204468 1018.14727783 C-495.17725653 1084.07687459 -480.60116901 1151.86844964 -443 1207 C-442.60699707 1207.5784668 -442.21399414 1208.15693359 -441.80908203 1208.75292969 C-435.72711506 1217.64176976 -429.06957325 1225.88267408 -422 1234 C-421.43152344 1234.680625 -420.86304688 1235.36125 -420.27734375 1236.0625 C-410.98197216 1247.0933246 -400.39880371 1257.18734106 -389 1266 C-388.06671875 1266.76183594 -387.1334375 1267.52367187 -386.171875 1268.30859375 C-332.7424866 1311.12060368 -260.5415051 1328.82142482 -193.00634766 1322.22631836 C-135.4760118 1315.50338891 -75.21413394 1292.6453263 -30 1256 C-29.0821875 1255.27425781 -28.164375 1254.54851563 -27.21875 1253.80078125 C-22.04926406 1249.66370701 -17.07300631 1245.34083239 -12.1875 1240.875 C-11.66027344 1240.39627441 -11.13304687 1239.91754883 -10.58984375 1239.42431641 C-9.58256913 1238.4917607 -8.59172831 1237.54102989 -7.62100482 1236.57048458 C-6 1235 -6 1235 -4.41901326 1233.77539831 C-0.75898185 1230.4922062 0.36066197 1227.49035588 0.70266779 1222.58791038 C0.8399176 1218.71245094 0.83575482 1214.84327998 0.81573486 1210.96592712 C0.82838018 1209.20030431 0.84361124 1207.43469844 0.86120296 1205.66911799 C0.90178357 1200.82053709 0.90485913 1195.97254783 0.90162039 1191.12382472 C0.90450997 1185.89311563 0.94168408 1180.66263119 0.97412109 1175.43203735 C1.03835146 1163.9959183 1.05798823 1152.55997966 1.06940556 1141.12370372 C1.07690899 1133.98075065 1.09452583 1126.83784572 1.11440277 1119.69491768 C1.16828277 1099.91211904 1.21330038 1080.12936695 1.21815872 1060.346488 C1.21846987 1059.08065049 1.21878102 1057.81481298 1.21910159 1056.51061675 C1.2196837 1053.94452703 1.22025444 1051.37843731 1.2208139 1048.81234758 C1.22109961 1047.53856243 1.22138532 1046.26477728 1.22167969 1044.95239258 C1.22195902 1043.6770497 1.22223836 1042.40170682 1.22252616 1041.08771718 C1.22879541 1020.42699633 1.30195913 999.76711446 1.4049522 979.10667055 C1.50988855 957.88695901 1.56238419 936.66766155 1.56126094 915.44768435 C1.56176596 903.53649296 1.58418681 891.62626551 1.66361237 879.71531487 C1.73090917 869.57167703 1.7497275 859.42937822 1.70609847 849.28558647 C1.6852511 844.11233008 1.68672409 838.94169445 1.74962616 833.76872063 C1.80673942 829.02529883 1.79831194 824.28651688 1.73930821 819.54315979 C1.72928505 817.83448644 1.74255633 816.12547026 1.78243724 814.41723298 C1.9743123 805.62203638 1.35540115 799.61499459 -4.85701866 793.01479823 C-7.78543644 790.18634468 -10.84072287 787.56532893 -14 785 C-15.0244584 784.12662817 -16.04667972 783.25062131 -17.06601977 782.37128109 C-19.65647502 780.1701486 -22.31257511 778.08132481 -25 776 C-25.98097656 775.21367188 -26.96195313 774.42734375 -27.97265625 773.6171875 C-99.50813983 716.70324232 -201.39857655 694.06542772 -419.57861328 793.89892578 Z M704 725 C702.51669189 725.50007568 702.51669189 725.50007568 701.00341797 726.01025391 C662.89090226 739.07252716 626.10773375 759.14815594 596.50390625 786.68359375 C593.68957383 789.28718053 590.79115368 791.77392424 587.8515625 794.234375 C582.68035768 799.0657497 582.68035768 799.0657497 580.36519951 805.49496758 C580.36059324 806.79546008 580.35598697 808.09595259 580.35124111 809.43585396 C580.34187673 810.16687092 580.33251235 810.89788789 580.3228642 811.65105689 C580.29758531 814.10222787 580.30784491 816.55194275 580.31797791 819.00320435 C580.30720413 820.77763327 580.29427501 822.5520502 580.27937514 824.32644928 C580.24487882 829.2039044 580.24170483 834.08095539 580.24376333 838.95851374 C580.24067194 844.21848123 580.20902317 849.47828967 580.18132019 854.73817444 C580.12633856 866.24032643 580.10861451 877.7423576 580.09785151 889.24462366 C580.09084439 896.42724827 580.07551484 903.6098395 580.05835152 910.79244614 C580.01184344 930.68072434 579.97293191 950.56897074 579.96759701 970.45730782 C579.96725386 971.73011879 579.96691072 973.00292977 579.96655718 974.31431078 C579.96589988 976.89459379 579.9652508 979.47487681 579.96460991 982.05515982 C579.96428425 983.33600982 579.96395858 984.61685981 579.96362305 985.93652344 C579.96330283 987.21893767 579.96298261 988.5013519 579.96265269 989.82262717 C579.95597619 1010.60105839 579.89237026 1031.37888345 579.8034889 1052.15711035 C579.71295531 1073.4920268 579.66732661 1094.82664337 579.66758639 1116.1617564 C579.66674918 1128.13986238 579.6470211 1140.11726099 579.57841301 1152.09518814 C579.52027412 1162.29515909 579.50354174 1172.49415466 579.54041748 1182.69424267 C579.55802051 1187.89736423 579.55637571 1193.09856931 579.50224304 1198.30148125 C579.45311472 1203.06970446 579.45988999 1207.83453515 579.51027686 1212.60271512 C579.51878745 1214.32281554 579.5072207 1216.04316376 579.47300791 1217.76294495 C579.32253828 1225.85361666 579.40312162 1232.11569787 585.13344849 1238.26763981 C587.64666906 1240.67960625 590.2637637 1242.83961664 593 1245 C593.95925367 1245.81482916 594.91850734 1246.62965832 595.9068293 1247.46917927 C598.55450638 1249.7147441 601.2694453 1251.85614557 604 1254 C605.06893342 1254.86958999 606.13659133 1255.74074968 607.203125 1256.61328125 C622.59143566 1269.10486387 639.44035527 1278.88062649 657 1288 C658.07338623 1288.5583252 658.07338623 1288.5583252 659.16845703 1289.12792969 C693.98768789 1306.96862409 733.26027301 1317.51765345 772 1322 C773.21417603 1322.14356934 773.21417603 1322.14356934 774.45288086 1322.29003906 C782.97392234 1323.18639897 791.50387675 1323.24339794 800.0625 1323.25 C801.24943954 1323.25101212 801.24943954 1323.25101212 802.46035767 1323.25204468 C816.80611877 1323.23274795 830.82316912 1322.31235514 845 1320 C846.02561035 1319.83371094 847.0512207 1319.66742187 848.10791016 1319.49609375 C900.66289226 1310.64265736 948.63662717 1286.9522308 987 1250 C987.91531494 1249.12553223 987.91531494 1249.12553223 988.84912109 1248.23339844 C997.1745178 1240.24594865 1004.80671305 1232.04815508 1011.68066406 1222.77685547 C1013.04068182 1220.94521053 1014.42149374 1219.13059517 1015.8046875 1217.31640625 C1022.17319143 1208.89109674 1027.86131782 1200.2254796 1033 1191 C1033.45487793 1190.18595703 1033.90975586 1189.37191406 1034.37841797 1188.53320312 C1063.29034634 1136.25409978 1075.20974517 1077.98489495 1075.25 1018.625 C1075.25100708 1017.59075897 1075.25201416 1016.55651794 1075.25305176 1015.49093628 C1075.21920905 963.84348093 1065.98241515 913.3359881 1045 866 C1044.6479248 865.19804199 1044.29584961 864.39608398 1043.93310547 863.56982422 C1032.77354577 838.32316035 1017.08972757 814.67044813 998.28125 794.46875 C996.38769392 792.41955918 994.5940214 790.3325972 992.8125 788.1875 C974.52093304 767.29503424 950.46505108 750.83343987 926 738 C925.1862793 737.57074219 924.37255859 737.14148437 923.53417969 736.69921875 C854.84514217 700.95104324 776.25379459 700.5296852 704 725 Z " fill="#FFFFFF" transform="translate(1793,487)"/>
</svg>
