<?xml version="1.0" encoding="UTF-8"?>
<svg version="1.1" xmlns="http://www.w3.org/2000/svg" width="4167" height="4167">
<path d="M0 0 C45.0759375 -0.061875 45.0759375 -0.061875 91.0625 -0.125 C105.23586304 -0.15231201 105.23586304 -0.15231201 119.69555664 -0.18017578 C131.33483887 -0.18920898 131.33483887 -0.18920898 136.8032074 -0.19088745 C140.57972112 -0.19273245 144.35617722 -0.20015325 148.13267517 -0.21115112 C195.20429208 -0.34189398 237.65145396 0.82047952 273.5625 35.1875 C293.98355228 56.09750705 306.02559136 86.80293035 306.203125 115.9609375 C306.20882507 116.70977203 306.21452515 117.45860657 306.22039795 118.23013306 C306.22979745 119.81177381 306.2363617 121.39343371 306.24023438 122.97509766 C306.2498333 125.33403264 306.28085914 127.69205403 306.3125 130.05078125 C306.53692629 162.18728039 295.28238528 192.86531507 272.88671875 216.1484375 C265.69748008 223.37934581 257.82941711 229.44269384 248.984375 234.52734375 C248.32953125 235.01332031 247.6746875 235.49929687 247 236 C247 239.15554598 247.47629604 240.33814871 248.8449707 243.10644531 C249.2503154 243.93374146 249.6556601 244.7610376 250.07328796 245.61340332 C250.51961075 246.50926147 250.96593353 247.40511963 251.42578125 248.328125 C251.88447098 249.26072144 252.34316071 250.19331787 252.81575012 251.1541748 C254.30946228 254.18871283 255.81107235 257.2192732 257.3125 260.25 C258.84593526 263.36193752 260.37722684 266.47492387 261.90844727 269.58795166 C262.91183662 271.62747075 263.91590172 273.66665752 264.9206543 275.70550537 C268.36662425 282.69957278 271.77707271 289.70837159 275.125 296.75 C275.52477051 297.59022705 275.92454102 298.4304541 276.33642578 299.29614258 C277.12684199 300.95847958 277.91688448 302.62099433 278.70654297 304.28369141 C281.35309374 309.84154794 284.02214747 315.38864273 286.6875 320.9375 C287.21811035 322.04254883 287.7487207 323.14759766 288.29541016 324.28613281 C289.53011053 326.85750016 290.76497323 329.42878941 292 332 C300.98056097 306.72974405 309.76643385 281.3934282 318.52635193 256.04597473 C322.52921487 244.46496076 326.54483163 232.88838444 330.5625 221.3125 C331.2665269 219.28377512 331.97054708 217.2550479 332.67456055 215.22631836 C334.08000277 211.17640613 335.4855336 207.12652468 336.89111328 203.07666016 C340.07368601 193.90655098 343.25503729 184.73601803 346.43649292 175.56552124 C348.20761308 170.46033054 349.9788104 165.35516661 351.75 160.25 C352.4583337 158.20833346 353.16666704 156.1666668 353.875 154.125 C358.12499995 141.87500015 358.12499995 141.87500015 359.18746948 138.81259155 C359.89590751 136.77062074 360.60434256 134.7286489 361.31277466 132.68667603 C363.08198194 127.58715438 364.8512405 122.48765053 366.62060547 117.38818359 C369.82749319 108.14548526 373.03399163 98.90265276 376.23860168 89.65916443 C378.0338162 84.48102237 379.82933054 79.30298431 381.625 74.125 C381.97386261 73.1189975 382.32272522 72.112995 382.68215942 71.07650757 C388.55232027 54.15121533 394.44568787 37.23408152 400.35595703 20.32275391 C400.80439217 19.03894585 400.80439217 19.03894585 401.2618866 17.72920227 C401.81434005 16.14768173 402.36713753 14.56628129 402.92036438 12.98503113 C403.16634872 12.28074478 403.41233307 11.57645844 403.66577148 10.85083008 C403.87652817 10.2480574 404.08728485 9.64528473 404.3044281 9.02424622 C405.22137491 6.355757 406.10772055 3.67683834 407 1 C450.89 1 494.78 1 540 1 C544.95 15.52 549.9 30.04 555 45 C560.07216415 59.56809991 560.07216415 59.56809991 565.15924072 74.13090515 C569.98093251 87.90628849 574.74037099 101.70307821 579.5 115.5 C585.13872205 131.84318114 590.79480195 148.17990187 596.5 164.5 C602.2051986 180.82009969 607.86092821 197.15693856 613.5 213.5 C621.61532881 237.01822571 629.79680481 260.5122189 638 284 C645.92 306.77 645.92 306.77 654 330 C654.33 221.43 654.66 112.86 655 1 C702.52 1 750.04 1 799 1 C805.9887085 21.96612549 812.97153101 42.92173309 819.73925781 63.95828247 C821.05108587 68.03448789 822.36527986 72.10992852 823.6796875 76.18530273 C825.29146678 81.18327059 826.90258587 86.18145039 828.51289368 91.17989254 C831.31452444 99.87606195 834.1208691 108.57070179 836.92941284 117.26464081 C838.29643688 121.49653472 839.66297527 125.72858548 841.02952576 129.96063232 C842.11122673 133.31048658 843.19309303 136.66028719 844.27539062 140.00994873 C846.54191752 147.02549852 848.80443174 154.04231246 851.05712891 161.06231689 C851.65990848 162.94038418 852.2636549 164.81814161 852.86865234 166.69549561 C853.60443739 168.98178921 854.33467012 171.26975766 855.0625 173.55859375 C855.44535156 174.75669678 855.82820313 175.9547998 856.22265625 177.18920898 C857 180 857 180 857 183 C857.66 183 858.32 183 859 183 C859.37535889 181.15184692 859.37535889 181.15184692 859.75830078 179.26635742 C861.08797136 173.30112804 862.97023458 167.54343263 864.8671875 161.73828125 C865.44713722 159.94641388 865.44713722 159.94641388 866.0388031 158.11834717 C866.87556651 155.53483482 867.71378319 152.95185117 868.55459595 150.36965942 C869.89758522 146.24510308 871.23474686 142.11867162 872.57104492 137.99194336 C874.20483256 132.94778765 875.83992889 127.90406007 877.47684002 122.86091709 C881.68538755 109.8946933 885.87416292 96.92210742 890.05899048 83.94821167 C890.89327892 81.36178208 891.72789897 78.77545989 892.56283569 76.1892395 C896.9145227 62.70968804 901.25444978 49.22653654 905.5546875 35.73046875 C905.90985947 34.61587784 906.26503143 33.50128693 906.63096619 32.35292053 C908.28929393 27.14646859 909.94497457 21.93919211 911.59692383 16.73071289 C912.17268313 14.91943179 912.74844776 13.10815238 913.32421875 11.296875 C913.58359222 10.47620041 913.8429657 9.65552582 914.11019897 8.8099823 C915.8870796 3.22584079 915.8870796 3.22584079 917 1 C964.52 1 1012.04 1 1061 1 C1061 121.12 1061 241.24 1061 365 C1026.68 365 992.36 365 957 365 C956.67 291.74 956.34 218.48 956 143 C944.90375 176.28875 933.8075 209.5775 922.375 243.875 C908.91666667 284.25 895.45833333 324.625 882 365 C866.16 365 850.32 365 834 365 C797 254 797 254 760 143 C759.67 216.26 759.34 289.52 759 365 C690.69 365 622.38 365 552 365 C550.06713052 359.20139157 548.20021943 353.43891838 546.51953125 347.5703125 C546.30181564 346.81330048 546.08410004 346.05628845 545.85978699 345.27633667 C545.40590225 343.69526176 544.9530547 342.11388875 544.5012207 340.53222656 C543.80785541 338.10876617 543.10814206 335.68719385 542.40820312 333.265625 C541.96575885 331.72146499 541.52368794 330.17719795 541.08203125 328.6328125 C540.76804131 327.55001511 540.76804131 327.55001511 540.44770813 326.44534302 C539.62032279 323.52945312 539 321.04786827 539 318 C495.77 318 452.54 318 408 318 C407.34 321.3 406.68 324.6 406 328 C405.24657973 330.95194133 404.47383993 333.88421278 403.65234375 336.81640625 C403.43558487 337.59894272 403.21882599 338.38147919 402.99549866 339.18772888 C402.54262733 340.81908415 402.08797995 342.44994737 401.6315918 344.08032227 C400.93075607 346.58661732 400.23750907 349.09493015 399.54492188 351.60351562 C399.10200908 353.19543682 398.65866577 354.78723831 398.21484375 356.37890625 C398.00754135 357.12983047 397.80023895 357.8807547 397.58665466 358.6544342 C396.11508273 363.88491727 396.11508273 363.88491727 395 365 C392.33192067 365.09782976 389.68973961 365.12994029 387.02122498 365.12025452 C386.17507521 365.12110894 385.32892545 365.12196337 384.45713478 365.12284368 C381.59957601 365.12450108 378.74207492 365.11897288 375.88452148 365.11352539 C373.84499106 365.11324355 371.80546054 365.11340119 369.76593018 365.1139679 C364.21037264 365.11425599 358.65483648 365.10835738 353.09928393 365.10139394 C347.30032632 365.09516234 341.50136828 365.09455676 335.70240784 365.09336853 C324.71286173 365.09025464 313.72332552 365.08204048 302.73378378 365.07201904 C290.22614015 365.06085969 277.71849606 365.0553479 265.21084869 365.05032361 C239.47389363 365.03985791 213.73694737 365.02225736 188 365 C187.35960608 363.72993986 186.72045027 362.45925539 186.0818119 361.18831158 C185.72574824 360.48076691 185.36968457 359.77322225 185.0028311 359.04423684 C183.72765047 356.44482481 182.61613003 353.80068901 181.53662109 351.11450195 C181.09390366 350.01755508 180.65118622 348.92060822 180.1950531 347.79042053 C179.72591995 346.61821457 179.2567868 345.44600861 178.7734375 344.23828125 C178.26750086 342.98108181 177.7612731 341.7239995 177.254776 340.46702576 C175.90324618 337.11042405 174.55589404 333.75216099 173.20954514 330.39347839 C171.81239229 326.90961065 170.41194462 323.42706762 169.01196289 319.94433594 C166.75298726 314.32331804 164.49657356 308.70127754 162.24169922 303.07861328 C159.72748195 296.80957594 157.20673078 290.54320602 154.68237305 284.27824402 C152.98961092 280.07600539 151.2997936 275.87258778 149.61090088 271.66879272 C148.83032946 269.72714923 148.04871757 267.78592369 147.26605225 265.84512329 C146.19361001 263.1845139 145.12549295 260.52221098 144.05859375 257.859375 C143.74422867 257.08218613 143.42986359 256.30499725 143.10597229 255.5042572 C141 250.22857536 141 250.22857536 141 248 C128.79 248 116.58 248 104 248 C104 286.61 104 325.22 104 365 C69.68 365 35.36 365 0 365 C0 244.55 0 124.1 0 0 Z M104 93 C104 113.79 104 134.58 104 156 C115.59078204 156.11662138 115.59078204 156.11662138 127.18164062 156.1953125 C131.91921229 156.21909108 136.65647055 156.24701382 141.39379883 156.30175781 C145.2193676 156.34568168 149.04459963 156.36923347 152.87040138 156.37950897 C154.31944889 156.38681795 155.76848099 156.4010868 157.21738243 156.42292023 C169.5169162 156.60064566 181.36232923 155.33412351 191.05859375 147.06640625 C198.38578384 139.26744537 200.39016649 131.81061765 200.2734375 121.38671875 C199.57628774 112.75202101 195.55927653 105.60974316 189 100 C178.33007044 93.15940894 167.85476605 92.713784 155.5625 92.8046875 C154.07177928 92.80842353 152.58105609 92.81126771 151.09033203 92.81326294 C147.19082712 92.82085297 143.29147419 92.84046096 139.39202881 92.8626709 C134.70044596 92.88685246 130.00881194 92.89593239 125.31718445 92.90757751 C118.21135101 92.92688865 111.10585021 92.96524312 104 93 Z M473 100 C469.28918539 112.18674545 465.58096335 124.37427842 461.875 136.5625 C461.60193024 137.46056995 461.32886047 138.35863991 461.04751587 139.2839241 C452.26789438 168.16121297 443.57454148 197.06092249 435 226 C460.41 226 485.82 226 512 226 C502.82906776 195.02262887 493.48296161 164.10511816 484.01873207 133.2165451 C483.30361706 130.88256573 482.58870132 128.54852538 481.87380981 126.21447754 C480.99111606 123.3326176 480.10744841 120.45105901 479.22311401 117.56970215 C478.823522 116.26587691 478.423954 114.96204432 478.02441406 113.65820312 C477.68025452 112.53643677 477.33609497 111.41467041 476.98150635 110.25891113 C475.95418285 106.84787258 474.97080372 103.42749136 474 100 C473.67 100 473.34 100 473 100 Z " fill="#FFFFFF" transform="translate(2565,1853)"/>
<path d="M0 0 C37.29 0 74.58 0 113 0 C113 18.15 113 36.3 113 55 C115.64 55 118.28 55 121 55 C121 53.35 121 51.7 121 50 C122.32 50 123.64 50 125 50 C125 48.68 125 47.36 125 46 C130.61 46 136.22 46 142 46 C142 44.68 142 43.36 142 42 C144.97 42 147.94 42 151 42 C151 40.68 151 39.36 151 38 C157.6 38 164.2 38 171 38 C171 36.68 171 35.36 171 34 C179.25 34 187.5 34 196 34 C196 35.32 196 36.64 196 38 C201.94 38 207.88 38 214 38 C214 39.32 214 40.64 214 42 C218.29 42 222.58 42 227 42 C227 43.32 227 44.64 227 46 C232.28 46 237.56 46 243 46 C243 47.32 243 48.64 243 50 C245.97 50 248.94 50 252 50 C252 51.65 252 53.3 252 55 C253.32 55 254.64 55 256 55 C256 56.32 256 57.64 256 59 C257.32 59 258.64 59 260 59 C260 60.32 260 61.64 260 63 C261.32 63 262.64 63 264 63 C264 64.32 264 65.64 264 67 C265.32 67 266.64 67 268 67 C268 68.32 268 69.64 268 71 C269.65 71 271.3 71 273 71 C273 72.65 273 74.3 273 76 C274.32 76 275.64 76 277 76 C277 77.32 277 78.64 277 80 C278.32 80 279.64 80 281 80 C281 82.97 281 85.94 281 89 C282.32 89 283.64 89 285 89 C285 91.97 285 94.94 285 98 C286.32 98 287.64 98 289 98 C289 100.64 289 103.28 289 106 C290.32 106 291.64 106 293 106 C293 112.93 293 119.86 293 127 C294.65 127 296.3 127 298 127 C298 131.29 298 135.58 298 140 C299.32 140 300.64 140 302 140 C302 173 302 206 302 240 C300.68 240 299.36 240 298 240 C298 244.29 298 248.58 298 253 C296.35 253 294.7 253 293 253 C293 261.25 293 269.5 293 278 C291.68 278 290.36 278 289 278 C289 280.64 289 283.28 289 286 C287.68 286 286.36 286 285 286 C285 287.65 285 289.3 285 291 C283.68 291 282.36 291 281 291 C281 293.64 281 296.28 281 299 C279.68 299 278.36 299 277 299 C277 300.32 277 301.64 277 303 C275.68 303 274.36 303 273 303 C273 304.32 273 305.64 273 307 C271.35 307 269.7 307 268 307 C268 308.65 268 310.3 268 312 C266.68 312 265.36 312 264 312 C264 313.32 264 314.64 264 316 C262.68 316 261.36 316 260 316 C260 317.65 260 319.3 260 321 C258.68 321 257.36 321 256 321 C256 322.32 256 323.64 256 325 C254.68 325 253.36 325 252 325 C252 326.32 252 327.64 252 329 C250.68 329 249.36 329 248 329 C248 330.65 248 332.3 248 334 C245.03 334 242.06 334 239 334 C239 335.32 239 336.64 239 338 C232.07 338 225.14 338 218 338 C218 339.32 218 340.64 218 342 C212.39 342 206.78 342 201 342 C201 343.32 201 344.64 201 346 C188.46 346 175.92 346 163 346 C163 344.68 163 343.36 163 342 C157.39 342 151.78 342 146 342 C146 340.68 146 339.36 146 338 C140.72 338 135.44 338 130 338 C130 336.68 130 335.36 130 334 C127.03 334 124.06 334 121 334 C121 332.35 121 330.7 121 329 C119.68 329 118.36 329 117 329 C117 327.68 117 326.36 117 325 C115.68 325 114.36 325 113 325 C113 322.03 113 319.06 113 316 C111.68 316 110.36 316 109 316 C109 331.51 109 347.02 109 363 C122.86 363 136.72 363 151 363 C151 396.33 151 429.66 151 464 C137.14 464 123.28 464 109 464 C109 472.25 109 480.5 109 489 C107.68 489 106.36 489 105 489 C105 495.93 105 502.86 105 510 C103.35 510 101.7 510 100 510 C100 513.96 100 517.92 100 522 C98.68 522 97.36 522 96 522 C96 524.97 96 527.94 96 531 C94.68 531 93.36 531 92 531 C92 532.32 92 533.64 92 535 C90.68 535 89.36 535 88 535 C88 536.32 88 537.64 88 539 C86.68 539 85.36 539 84 539 C84 541.97 84 544.94 84 548 C82.68 548 81.36 548 80 548 C80 549.65 80 551.3 80 553 C78.35 553 76.7 553 75 553 C75 554.32 75 555.64 75 557 C73.68 557 72.36 557 71 557 C71 558.32 71 559.64 71 561 C68.36 561 65.72 561 63 561 C63 562.32 63 563.64 63 565 C61.68 565 60.36 565 59 565 C59 566.65 59 568.3 59 570 C56.03 570 53.06 570 50 570 C50 571.32 50 572.64 50 574 C47.36 574 44.72 574 42 574 C42 575.32 42 576.64 42 578 C11.31 578 -19.38 578 -51 578 C-51 576.68 -51 575.36 -51 574 C-54.96 574 -58.92 574 -63 574 C-63 559.81 -63 545.62 -63 531 C-61.68 531 -60.36 531 -59 531 C-59 526.71 -59 522.42 -59 518 C-57.68 518 -56.36 518 -55 518 C-55 512.39 -55 506.78 -55 501 C-53.68 501 -52.36 501 -51 501 C-51 498.36 -51 495.72 -51 493 C-46.71 493 -42.42 493 -38 493 C-38 494.32 -38 495.64 -38 497 C-29.42 497 -20.84 497 -12 497 C-12 495.68 -12 494.36 -12 493 C-10.68 493 -9.36 493 -8 493 C-8 491.68 -8 490.36 -8 489 C-6.68 489 -5.36 489 -4 489 C-4 487.68 -4 486.36 -4 485 C-2.68 485 -1.36 485 0 485 C0 478.07 0 471.14 0 464 C-19.47 464 -38.94 464 -59 464 C-59 430.67 -59 397.34 -59 363 C-39.53 363 -20.06 363 0 363 C0 347.49 0 331.98 0 316 C-1.32 316 -2.64 316 -4 316 C-4 317.65 -4 319.3 -4 321 C-5.32 321 -6.64 321 -8 321 C-8 322.32 -8 323.64 -8 325 C-9.32 325 -10.64 325 -12 325 C-12 326.32 -12 327.64 -12 329 C-13.32 329 -14.64 329 -16 329 C-16 330.65 -16 332.3 -16 334 C-19.3 334 -22.6 334 -26 334 C-26 335.32 -26 336.64 -26 338 C-31.61 338 -37.22 338 -43 338 C-43 339.32 -43 340.64 -43 342 C-46.96 342 -50.92 342 -55 342 C-55 343.32 -55 344.64 -55 346 C-68.86 346 -82.72 346 -97 346 C-97 344.68 -97 343.36 -97 342 C-102.28 342 -107.56 342 -113 342 C-113 340.68 -113 339.36 -113 338 C-119.93 338 -126.86 338 -134 338 C-134 336.68 -134 335.36 -134 334 C-135.65 334 -137.3 334 -139 334 C-139 332.35 -139 330.7 -139 329 C-141.64 329 -144.28 329 -147 329 C-147 327.68 -147 326.36 -147 325 C-148.32 325 -149.64 325 -151 325 C-151 322.03 -151 319.06 -151 316 C-152.32 316 -153.64 316 -155 316 C-155 314.68 -155 313.36 -155 312 C-156.32 312 -157.64 312 -159 312 C-159 310.35 -159 308.7 -159 307 C-160.65 307 -162.3 307 -164 307 C-164 305.68 -164 304.36 -164 303 C-165.32 303 -166.64 303 -168 303 C-168 300.36 -168 297.72 -168 295 C-169.32 295 -170.64 295 -172 295 C-172 293.68 -172 292.36 -172 291 C-173.32 291 -174.64 291 -176 291 C-176 288.03 -176 285.06 -176 282 C-177.32 282 -178.64 282 -180 282 C-180 279.36 -180 276.72 -180 274 C-181.32 274 -182.64 274 -184 274 C-184 269.71 -184 265.42 -184 261 C-185.65 261 -187.3 261 -189 261 C-189 257.04 -189 253.08 -189 249 C-190.32 249 -191.64 249 -193 249 C-193 244.71 -193 240.42 -193 236 C-194.32 236 -195.64 236 -197 236 C-197 205.64 -197 175.28 -197 144 C-195.68 144 -194.36 144 -193 144 C-193 139.71 -193 135.42 -193 131 C-191.68 131 -190.36 131 -189 131 C-189 127.04 -189 123.08 -189 119 C-187.35 119 -185.7 119 -184 119 C-184 114.71 -184 110.42 -184 106 C-182.68 106 -181.36 106 -180 106 C-180 103.36 -180 100.72 -180 98 C-178.68 98 -177.36 98 -176 98 C-176 95.03 -176 92.06 -176 89 C-174.68 89 -173.36 89 -172 89 C-172 87.35 -172 85.7 -172 84 C-170.68 84 -169.36 84 -168 84 C-168 82.68 -168 81.36 -168 80 C-166.68 80 -165.36 80 -164 80 C-164 77.03 -164 74.06 -164 71 C-162.35 71 -160.7 71 -159 71 C-159 69.68 -159 68.36 -159 67 C-157.68 67 -156.36 67 -155 67 C-155 65.68 -155 64.36 -155 63 C-153.68 63 -152.36 63 -151 63 C-151 60.36 -151 57.72 -151 55 C-148.36 55 -145.72 55 -143 55 C-143 53.35 -143 51.7 -143 50 C-141.68 50 -140.36 50 -139 50 C-139 48.68 -139 47.36 -139 46 C-133.39 46 -127.78 46 -122 46 C-122 44.68 -122 43.36 -122 42 C-117.71 42 -113.42 42 -109 42 C-109 40.68 -109 39.36 -109 38 C-102.07 38 -95.14 38 -88 38 C-88 36.68 -88 35.36 -88 34 C-79.75 34 -71.5 34 -63 34 C-63 35.32 -63 36.64 -63 38 C-57.72 38 -52.44 38 -47 38 C-47 39.32 -47 40.64 -47 42 C-42.71 42 -38.42 42 -34 42 C-34 43.32 -34 44.64 -34 46 C-30.04 46 -26.08 46 -22 46 C-22 47.32 -22 48.64 -22 50 C-18.7 50 -15.4 50 -12 50 C-12 51.65 -12 53.3 -12 55 C-10.68 55 -9.36 55 -8 55 C-8 56.32 -8 57.64 -8 59 C-6.68 59 -5.36 59 -4 59 C-4 60.32 -4 61.64 -4 63 C-2.68 63 -1.36 63 0 63 C0 42.21 0 21.42 0 0 Z M-47 135 C-47 136.65 -47 138.3 -47 140 C-52.28 140 -57.56 140 -63 140 C-63 141.32 -63 142.64 -63 144 C-65.97 144 -68.94 144 -72 144 C-72 145.32 -72 146.64 -72 148 C-73.32 148 -74.64 148 -76 148 C-76 149.32 -76 150.64 -76 152 C-77.32 152 -78.64 152 -80 152 C-80 154.64 -80 157.28 -80 160 C-81.32 160 -82.64 160 -84 160 C-84 162.97 -84 165.94 -84 169 C-85.32 169 -86.64 169 -88 169 C-88 182.86 -88 196.72 -88 211 C-86.68 211 -85.36 211 -84 211 C-84 213.64 -84 216.28 -84 219 C-82.68 219 -81.36 219 -80 219 C-80 221.97 -80 224.94 -80 228 C-78.68 228 -77.36 228 -76 228 C-76 229.32 -76 230.64 -76 232 C-74.68 232 -73.36 232 -72 232 C-72 233.32 -72 234.64 -72 236 C-70.68 236 -69.36 236 -68 236 C-68 237.32 -68 238.64 -68 240 C-63.71 240 -59.42 240 -55 240 C-55 241.32 -55 242.64 -55 244 C-46.75 244 -38.5 244 -30 244 C-30 242.68 -30 241.36 -30 240 C-24.06 240 -18.12 240 -12 240 C-12 238.68 -12 237.36 -12 236 C-9.36 236 -6.72 236 -4 236 C-4 234.68 -4 233.36 -4 232 C-2.68 232 -1.36 232 0 232 C0 204.28 0 176.56 0 148 C-1.32 148 -2.64 148 -4 148 C-4 146.68 -4 145.36 -4 144 C-9.94 144 -15.88 144 -22 144 C-22 142.68 -22 141.36 -22 140 C-27.28 140 -32.56 140 -38 140 C-38 138.35 -38 136.7 -38 135 C-40.97 135 -43.94 135 -47 135 Z M142 135 C142 136.65 142 138.3 142 140 C136.39 140 130.78 140 125 140 C125 141.32 125 142.64 125 144 C121.04 144 117.08 144 113 144 C113 174.36 113 204.72 113 236 C114.32 236 115.64 236 117 236 C117 237.32 117 238.64 117 240 C122.61 240 128.22 240 134 240 C134 241.32 134 242.64 134 244 C142.25 244 150.5 244 159 244 C159 242.68 159 241.36 159 240 C164.61 240 170.22 240 176 240 C176 238.68 176 237.36 176 236 C178.64 236 181.28 236 184 236 C184 234.68 184 233.36 184 232 C185.32 232 186.64 232 188 232 C188 229.03 188 226.06 188 223 C189.32 223 190.64 223 192 223 C192 220.36 192 217.72 192 215 C193.32 215 194.64 215 196 215 C196 209.39 196 203.78 196 198 C197.65 198 199.3 198 201 198 C201 194.04 201 190.08 201 186 C199.35 186 197.7 186 196 186 C196 179.07 196 172.14 196 165 C194.68 165 193.36 165 192 165 C192 162.03 192 159.06 192 156 C190.68 156 189.36 156 188 156 C188 154.68 188 153.36 188 152 C186.68 152 185.36 152 184 152 C184 150.68 184 149.36 184 148 C182.68 148 181.36 148 180 148 C180 146.68 180 145.36 180 144 C175.71 144 171.42 144 167 144 C167 142.68 167 141.36 167 140 C163.04 140 159.08 140 155 140 C155 138.35 155 136.7 155 135 C150.71 135 146.42 135 142 135 Z " fill="#880000" transform="translate(433,1848)"/>
<path d="M0 0 C55.0996875 -0.12375 55.0996875 -0.12375 111.3125 -0.25 C128.67290894 -0.30462402 128.67290894 -0.30462402 146.3840332 -0.36035156 C160.58044434 -0.37841797 160.58044434 -0.37841797 167.23869324 -0.3817749 C171.86210399 -0.38548261 176.48532868 -0.40039663 181.10868835 -0.42230225 C187.02643968 -0.4499645 192.94392477 -0.45792331 198.86173475 -0.4522891 C201.0208261 -0.45346532 203.17992782 -0.46126255 205.33896315 -0.47686052 C235.61314245 -0.68521973 262.34845607 6.97773701 284.6875 28.375 C301.51344165 45.76180637 309.72143915 69.26238456 310.3125 93.1875 C309.91139462 117.32902997 303.09222757 140.86507691 285.8515625 158.3125 C277.55895943 166.1279944 267.86077401 172.379742 257 176 C258.10794922 176.43699219 258.10794922 176.43699219 259.23828125 176.8828125 C281.40275785 185.83872554 299.08872782 200.34514576 308.6640625 222.796875 C314.27866853 236.77924077 316.55661132 250.27044217 316.4375 265.3125 C316.43293793 266.32123169 316.43293793 266.32123169 316.42828369 267.3503418 C316.35528163 278.31038426 315.49822664 288.57671245 312 299 C311.78037598 299.65838867 311.56075195 300.31677734 311.33447266 300.99511719 C303.36860267 324.05273094 288.67360786 342.50176694 266.8125 353.4375 C264.22854648 354.67376964 261.624901 355.85352434 259 357 C258.04480469 357.42023437 257.08960938 357.84046875 256.10546875 358.2734375 C240.80251911 364.37626299 225.0842451 364.42516045 208.88671875 364.34057617 C206.56191523 364.3396554 204.23711088 364.34006065 201.91230774 364.34167194 C195.73073161 364.34234453 189.54933249 364.32505656 183.36779785 364.30384064 C177.55053192 364.28665598 171.73330734 364.28594588 165.91601562 364.28381348 C148.94398731 364.26812063 131.97199137 364.22623684 115 364.1875 C77.05 364.125625 39.1 364.06375 0 364 C0 243.88 0 123.76 0 0 Z M104 90 C104 104.85 104 119.7 104 135 C118.55660976 135.1164227 118.55660976 135.1164227 133.11328125 135.1953125 C139.05401981 135.21918603 144.9945108 135.24737088 150.93505859 135.30175781 C155.72669176 135.34534963 160.51805927 135.36916532 165.30987549 135.37950897 C167.13425882 135.38687645 168.95862829 135.40126339 170.78289795 135.42292023 C173.34646559 135.45213201 175.90894787 135.45594867 178.47265625 135.45410156 C179.22000534 135.46848267 179.96735443 135.48286377 180.73735046 135.49768066 C187.07995315 135.44851634 192.20591672 133.41111048 197.0234375 129.25390625 C197.46945312 128.69574219 197.91546875 128.13757812 198.375 127.5625 C198.83648438 127.00691406 199.29796875 126.45132812 199.7734375 125.87890625 C203.83663254 119.65471257 203.68933898 113.20751893 203 106 C201.32574858 99.8042672 197.31106474 95.4670984 192 92 C187.64377073 89.80204601 183.59088752 89.72763542 178.81323242 89.77294922 C178.00295593 89.77265717 177.19267944 89.77236511 176.35784912 89.77206421 C173.69027855 89.7734531 171.02299029 89.78899348 168.35546875 89.8046875 C166.50173597 89.8084192 164.64800121 89.81126543 162.79426575 89.81326294 C157.92313154 89.82088705 153.05211722 89.84052506 148.18103027 89.8626709 C142.33230314 89.88675936 136.48353584 89.89591613 130.63477325 89.90757751 C121.7564322 89.92695014 112.87835405 89.96528126 104 90 Z M104 225 C104 241.17 104 257.34 104 274 C119.42086932 274.11643449 119.42086932 274.11643449 134.84179688 274.1953125 C141.13579883 274.21918027 147.42956697 274.24734967 153.72338867 274.30175781 C158.80031451 274.34536926 163.87698944 274.36916948 168.95408821 274.37950897 C170.88649505 274.38687292 172.81888889 274.40125287 174.75118828 274.42292023 C177.46780442 274.45215784 180.18339714 274.45594756 182.90014648 274.45410156 C183.69065399 274.46848267 184.4811615 274.48286377 185.29562378 274.49768066 C192.11764074 274.44785195 198.04150556 272.43989358 203.33984375 268.0703125 C208.91900055 261.27710935 210.55030113 255.93235702 210.375 247.1015625 C209.56081871 240.36760475 206.49797939 235.02771 201.5 230.5 C194.59053463 225.20224577 187.17399242 224.84609582 178.69970703 224.88647461 C177.48407326 224.88625557 177.48407326 224.88625557 176.24388123 224.8860321 C173.5818305 224.88672529 170.91985091 224.89448977 168.2578125 224.90234375 C166.40550779 224.90421004 164.55320259 224.90563295 162.70089722 224.90663147 C157.8380394 224.91044003 152.97521169 224.92025608 148.11236572 224.93133545 C142.27110415 224.94338913 136.42983248 224.94795972 130.58856201 224.95378876 C121.7256871 224.96346876 112.86287819 224.98263694 104 225 Z " fill="#FFFFFF" transform="translate(898,1854)"/>
<path d="M0 0 C239.36130008 0 239.36130008 0 290.61474609 49.66162109 C291.80926144 50.81571576 293.02212082 51.95076858 294.23828125 53.08203125 C326.7982464 84.07598606 339.98423531 132.05790883 341.18359375 175.64453125 C342.03385683 225.89933058 328.40627201 273.57563395 294 311 C292.93265625 312.19109375 292.93265625 312.19109375 291.84375 313.40625 C268.72730747 337.94524284 235.79735131 352.56021832 203.375 359.75 C202.48208252 359.94875732 201.58916504 360.14751465 200.66918945 360.35229492 C135.20062905 374.12117182 66.90078006 364 0 364 C0 243.88 0 123.76 0 0 Z M104 96 C104 152.43 104 208.86 104 267 C147.7179552 270.09839927 147.7179552 270.09839927 190.375 259.25 C191.03363037 258.90783447 191.69226074 258.56566895 192.37084961 258.21313477 C198.13679372 255.12067828 203.16466091 251.4113448 208 247 C208.6084375 246.48308594 209.216875 245.96617187 209.84375 245.43359375 C226.27736166 230.53129591 233.48712711 206.70160578 234.89794922 185.26708984 C235.99438786 160.90936447 229.0845135 137.34499098 213.1015625 118.796875 C203.37314635 108.39342589 190.36147973 102.10762924 176.6875 98.75 C176.03700684 98.58669189 175.38651367 98.42338379 174.71630859 98.25512695 C152.75101051 93.26494727 124.16722331 96 104 96 Z " fill="#FFFFFF" transform="translate(1838,1854)"/>
<path d="M0 0 C0.84070038 -0.00705963 1.68140076 -0.01411926 2.5475769 -0.02139282 C37.63281879 -0.24919017 37.63281879 -0.24919017 52.890625 3.203125 C53.79796387 3.40180176 54.70530273 3.60047852 55.64013672 3.80517578 C89.88635913 11.49545449 119.25020229 27.24596668 144.890625 51.203125 C145.76589844 52.01265625 146.64117188 52.8221875 147.54296875 53.65625 C178.41234945 83.24125187 198.04739123 129.19939773 199.05175781 171.83886719 C199.07160483 173.47585099 199.0853498 175.11291744 199.09375 176.75 C199.09945007 177.64189026 199.10515015 178.53378052 199.11102295 179.45269775 C199.12041574 181.33515257 199.12698398 183.2176234 199.13085938 185.10009766 C199.14045783 187.90428583 199.1714915 190.70770527 199.203125 193.51171875 C199.30173678 210.19362054 197.61099714 226.63219648 193.203125 242.765625 C192.94821289 243.7134082 192.69330078 244.66119141 192.43066406 245.63769531 C186.20786185 267.93421126 176.05538115 288.8897914 161.890625 307.203125 C161.19710938 308.11964844 160.50359375 309.03617188 159.7890625 309.98046875 C129.76220198 348.27315042 84.49215024 370.94546033 36.6027832 376.75170898 C31.99002848 377.24315407 27.41745493 377.38021629 22.78125 377.40625 C21.94054962 377.41330963 21.09984924 377.42036926 20.2336731 377.42764282 C-14.85156879 377.65544017 -14.85156879 377.65544017 -30.109375 374.203125 C-31.01671387 374.00444824 -31.92405273 373.80577148 -32.85888672 373.60107422 C-67.10510913 365.91079551 -96.46895229 350.16028332 -122.109375 326.203125 C-122.98464844 325.39359375 -123.85992188 324.5840625 -124.76171875 323.75 C-155.63109945 294.16499813 -175.26614123 248.20685227 -176.27050781 205.56738281 C-176.29035483 203.93039901 -176.3040998 202.29333256 -176.3125 200.65625 C-176.31820007 199.76435974 -176.32390015 198.87246948 -176.32977295 197.95355225 C-176.33916574 196.07109743 -176.34573398 194.1886266 -176.34960938 192.30615234 C-176.35920783 189.50196417 -176.3902415 186.69854473 -176.421875 183.89453125 C-176.52048678 167.21262946 -174.82974714 150.77405352 -170.421875 134.640625 C-170.16696289 133.6928418 -169.91205078 132.74505859 -169.64941406 131.76855469 C-163.42661185 109.47203874 -153.27413115 88.5164586 -139.109375 70.203125 C-138.41585938 69.28660156 -137.72234375 68.37007812 -137.0078125 67.42578125 C-106.98095198 29.13309958 -61.71090024 6.46078967 -13.8215332 0.65454102 C-9.20877848 0.16309593 -4.63620493 0.02603371 0 0 Z M-40.109375 116.203125 C-41.00398438 117.00492188 -41.89859375 117.80671875 -42.8203125 118.6328125 C-61.36480108 136.16116472 -69.85333243 160.40265531 -70.58007812 185.50244141 C-70.83152352 212.97285037 -63.29817386 237.09408179 -44.109375 257.203125 C-43.57957031 257.81929687 -43.04976562 258.43546875 -42.50390625 259.0703125 C-32.00321188 270.78574015 -14.08088116 278.32298069 1.49926758 279.38012695 C24.64324619 279.8892093 44.9917462 277.33108999 62.890625 261.203125 C63.78523438 260.40132812 64.67984375 259.59953125 65.6015625 258.7734375 C84.14605108 241.24508528 92.63458243 217.00359469 93.36132812 191.90380859 C93.61277352 164.43339963 86.07942386 140.31216821 66.890625 120.203125 C66.36082031 119.58695313 65.83101562 118.97078125 65.28515625 118.3359375 C54.78446188 106.62050985 36.86213116 99.08326931 21.28198242 98.02612305 C-1.86199619 97.5170407 -22.2104962 100.07516001 -40.109375 116.203125 Z " fill="#FFFFFF" transform="translate(1384.109375,1847.796875)"/>
<path d="M0 0 C85.8 0 171.6 0 260 0 C260 30.69 260 61.38 260 93 C208.52 93 157.04 93 104 93 C104 106.86 104 120.72 104 135 C154.49 135 204.98 135 257 135 C257 165.36 257 195.72 257 227 C206.51 227 156.02 227 104 227 C104 242.18 104 257.36 104 273 C155.48 273 206.96 273 260 273 C260 303.69 260 334.38 260 366 C174.2 366 88.4 366 0 366 C0 245.22 0 124.44 0 0 Z " fill="#FFFFFF" transform="translate(3653,1853)"/>
<path d="M0 0 C85.8 0 171.6 0 260 0 C260 30.69 260 61.38 260 93 C208.52 93 157.04 93 104 93 C104 106.86 104 120.72 104 135 C154.49 135 204.98 135 257 135 C257 165.36 257 195.72 257 227 C206.51 227 156.02 227 104 227 C104 272.54 104 318.08 104 365 C69.68 365 35.36 365 0 365 C0 244.55 0 124.1 0 0 Z " fill="#FFFFFF" transform="translate(2289,1853)"/>
<path d="M0 0 C34.32 0 68.64 0 104 0 C104 88.11 104 176.22 104 267 C146.9 267 189.8 267 234 267 C234 299.01 234 331.02 234 364 C156.78 364 79.56 364 0 364 C0 243.88 0 123.76 0 0 Z " fill="#FFFFFF" transform="translate(1592,1854)"/>
<path d="M0 0 C4.29 0 8.58 0 13 0 C13 1.32 13 2.64 13 4 C18.28 4 23.56 4 29 4 C29 5.32 29 6.64 29 8 C31.97 8 34.94 8 38 8 C38 9.65 38 11.3 38 13 C39.32 13 40.64 13 42 13 C42 14.32 42 15.64 42 17 C43.32 17 44.64 17 46 17 C46 18.32 46 19.64 46 21 C47.32 21 48.64 21 50 21 C50 22.32 50 23.64 50 25 C51.32 25 52.64 25 54 25 C54 26.32 54 27.64 54 29 C55.65 29 57.3 29 59 29 C59 30.65 59 32.3 59 34 C60.32 34 61.64 34 63 34 C63 35.32 63 36.64 63 38 C64.32 38 65.64 38 67 38 C67 40.97 67 43.94 67 47 C68.32 47 69.64 47 71 47 C71 49.97 71 52.94 71 56 C72.32 56 73.64 56 75 56 C75 58.64 75 61.28 75 64 C76.32 64 77.64 64 79 64 C79 70.93 79 77.86 79 85 C80.65 85 82.3 85 84 85 C84 89.29 84 93.58 84 98 C85.32 98 86.64 98 88 98 C88 131 88 164 88 198 C86.68 198 85.36 198 84 198 C84 202.29 84 206.58 84 211 C82.35 211 80.7 211 79 211 C79 219.25 79 227.5 79 236 C77.68 236 76.36 236 75 236 C75 238.64 75 241.28 75 244 C73.68 244 72.36 244 71 244 C71 245.65 71 247.3 71 249 C69.68 249 68.36 249 67 249 C67 251.64 67 254.28 67 257 C65.68 257 64.36 257 63 257 C63 258.32 63 259.64 63 261 C61.68 261 60.36 261 59 261 C59 262.32 59 263.64 59 265 C57.35 265 55.7 265 54 265 C54 266.65 54 268.3 54 270 C52.68 270 51.36 270 50 270 C50 271.32 50 272.64 50 274 C48.68 274 47.36 274 46 274 C46 275.65 46 277.3 46 279 C44.68 279 43.36 279 42 279 C42 280.32 42 281.64 42 283 C40.68 283 39.36 283 38 283 C38 284.32 38 285.64 38 287 C36.68 287 35.36 287 34 287 C34 288.65 34 290.3 34 292 C31.03 292 28.06 292 25 292 C25 293.32 25 294.64 25 296 C18.07 296 11.14 296 4 296 C4 297.32 4 298.64 4 300 C-1.61 300 -7.22 300 -13 300 C-13 298.68 -13 297.36 -13 296 C-11.68 296 -10.36 296 -9 296 C-9 294.68 -9 293.36 -9 292 C-7.68 292 -6.36 292 -5 292 C-5 289.03 -5 286.06 -5 283 C-6.32 283 -7.64 283 -9 283 C-9 280.03 -9 277.06 -9 274 C-10.32 274 -11.64 274 -13 274 C-13 268.39 -13 262.78 -13 257 C-14.65 257 -16.3 257 -18 257 C-18 262.61 -18 268.22 -18 274 C-19.32 274 -20.64 274 -22 274 C-22 269.71 -22 265.42 -22 261 C-24.64 261 -27.28 261 -30 261 C-29.814375 261.66 -29.62875 262.32 -29.4375 263 C-28.86972692 266.89330114 -29.40718293 270.11375479 -30 274 C-31.32 274.33 -32.64 274.66 -34 275 C-34 273.35 -34 271.7 -34 270 C-36.97 270 -39.94 270 -43 270 C-43 268.35 -43 266.7 -43 265 C-44.32 265 -45.64 265 -47 265 C-47 263.68 -47 262.36 -47 261 C-45.68 261 -44.36 261 -43 261 C-43 258.36 -43 255.72 -43 253 C-44.32 253 -45.64 253 -47 253 C-47 248.71 -47 244.42 -47 240 C-49.64 240 -52.28 240 -55 240 C-55 245.61 -55 251.22 -55 257 C-53.68 257 -52.36 257 -51 257 C-51 259.64 -51 262.28 -51 265 C-52.32 265 -53.64 265 -55 265 C-55 269.62 -55 274.24 -55 279 C-53.68 279 -52.36 279 -51 279 C-51 280.32 -51 281.64 -51 283 C-49.68 283 -48.36 283 -47 283 C-47 284.32 -47 285.64 -47 287 C-49.64 287 -52.28 287 -55 287 C-55 285.68 -55 284.36 -55 283 C-56.32 283 -57.64 283 -59 283 C-59 281.68 -59 280.36 -59 279 C-60.32 279 -61.64 279 -63 279 C-63 276.03 -63 273.06 -63 270 C-65.97 270 -68.94 270 -72 270 C-72 268.35 -72 266.7 -72 265 C-70.68 265 -69.36 265 -68 265 C-68 262.36 -68 259.72 -68 257 C-69.32 257 -70.64 257 -72 257 C-72 255.68 -72 254.36 -72 253 C-73.32 253 -74.64 253 -76 253 C-76 251.68 -76 250.36 -76 249 C-77.32 249 -78.64 249 -80 249 C-80 250.32 -80 251.64 -80 253 C-80.99 253.33 -81.98 253.66 -83 254 C-83.33 254.99 -83.66 255.98 -84 257 C-85.65 257 -87.3 257 -89 257 C-89 255.68 -89 254.36 -89 253 C-90.32 253 -91.64 253 -93 253 C-93 254.32 -93 255.64 -93 257 C-93.99 257.33 -94.98 257.66 -96 258 C-96.33 260.31 -96.66 262.62 -97 265 C-99.64 265 -102.28 265 -105 265 C-105 262.36 -105 259.72 -105 257 C-103.68 257 -102.36 257 -101 257 C-101 255.68 -101 254.36 -101 253 C-103.64 253 -106.28 253 -109 253 C-109 251.68 -109 250.36 -109 249 C-107.68 249 -106.36 249 -105 249 C-105 247.35 -105 245.7 -105 244 C-103.68 244 -102.36 244 -101 244 C-101 242.68 -101 241.36 -101 240 C-102.32 240 -103.64 240 -105 240 C-105 237.36 -105 234.72 -105 232 C-103.68 232 -102.36 232 -101 232 C-101 230.68 -101 229.36 -101 228 C-97.04 228 -93.08 228 -89 228 C-89 226.35 -89 224.7 -89 223 C-84.71 223 -80.42 223 -76 223 C-76 221.68 -76 220.36 -76 219 C-74.68 219 -73.36 219 -72 219 C-72 217.68 -72 216.36 -72 215 C-70.68 215 -69.36 215 -68 215 C-68 212.36 -68 209.72 -68 207 C-65.03 207 -62.06 207 -59 207 C-59 205.35 -59 203.7 -59 202 C-57.68 202 -56.36 202 -55 202 C-55 200.68 -55 199.36 -55 198 C-49.39 198 -43.78 198 -38 198 C-38 196.68 -38 195.36 -38 194 C-35.36 194 -32.72 194 -30 194 C-30 192.68 -30 191.36 -30 190 C-28.68 190 -27.36 190 -26 190 C-26 187.03 -26 184.06 -26 181 C-24.68 181 -23.36 181 -22 181 C-22 178.36 -22 175.72 -22 173 C-20.68 173 -19.36 173 -18 173 C-18 167.39 -18 161.78 -18 156 C-16.35 156 -14.7 156 -13 156 C-13 152.04 -13 148.08 -13 144 C-14.65 144 -16.3 144 -18 144 C-18 137.07 -18 130.14 -18 123 C-19.32 123 -20.64 123 -22 123 C-22 120.03 -22 117.06 -22 114 C-23.32 114 -24.64 114 -26 114 C-26 112.68 -26 111.36 -26 110 C-27.32 110 -28.64 110 -30 110 C-30 108.68 -30 107.36 -30 106 C-31.32 106 -32.64 106 -34 106 C-34 104.68 -34 103.36 -34 102 C-38.29 102 -42.58 102 -47 102 C-47 100.68 -47 99.36 -47 98 C-50.96 98 -54.92 98 -59 98 C-59 96.35 -59 94.7 -59 93 C-49.43 93 -39.86 93 -30 93 C-30 91.68 -30 90.36 -30 89 C-28.68 89 -27.36 89 -26 89 C-26 86.36 -26 83.72 -26 81 C-24.68 81 -23.36 81 -22 81 C-22 78.03 -22 75.06 -22 72 C-20.68 72 -19.36 72 -18 72 C-18 70.68 -18 69.36 -18 68 C-16.35 68 -14.7 68 -13 68 C-13 66.68 -13 65.36 -13 64 C-5.74 64 1.52 64 9 64 C9 62.68 9 61.36 9 60 C0.09 60 -8.82 60 -18 60 C-18 58.68 -18 57.36 -18 56 C-20.64 56 -23.28 56 -26 56 C-26 53.03 -26 50.06 -26 47 C-27.32 47 -28.64 47 -30 47 C-30 42.71 -30 38.42 -30 34 C-31.32 34 -32.64 34 -34 34 C-34 31.03 -34 28.06 -34 25 C-35.32 25 -36.64 25 -38 25 C-38 22.36 -38 19.72 -38 17 C-36.68 17 -35.36 17 -34 17 C-34 15.68 -34 14.36 -34 13 C-32.68 13 -31.36 13 -30 13 C-30 10.03 -30 7.06 -30 4 C-23.07 4 -16.14 4 -9 4 C-9 8.29 -9 12.58 -9 17 C-7.68 17 -6.36 17 -5 17 C-5 14.03 -5 11.06 -5 8 C-2.03 8 0.94 8 4 8 C4 6.68 4 5.36 4 4 C2.68 4 1.36 4 0 4 C0 2.68 0 1.36 0 0 Z " fill="#730000" transform="translate(647,1890)"/>
<path d="M0 0 C12.54 0 25.08 0 38 0 C38 48.51 38 97.02 38 147 C25.46 147 12.92 147 0 147 C-0.33 144.69 -0.66 142.38 -1 140 C-1.72445312 140.55429688 -2.44890625 141.10859375 -3.1953125 141.6796875 C-4.64550781 142.76636719 -4.64550781 142.76636719 -6.125 143.875 C-7.55199219 144.95394531 -7.55199219 144.95394531 -9.0078125 146.0546875 C-17.32382663 151.46118233 -27.41716564 150.99223916 -37 150 C-45.13987828 148.03731676 -51.24518601 143.97466082 -57 138 C-57.54269531 137.46632813 -58.08539062 136.93265625 -58.64453125 136.3828125 C-66.75019907 127.80516908 -68.55213405 117.42337443 -71 106 C-91.79 106 -112.58 106 -134 106 C-129.89074767 112.16387849 -126.98088681 115.69591517 -120 118 C-110.98610525 118.99920654 -103.65038365 118.15392069 -95.48828125 114.19140625 C-93.28391571 113.1359408 -91.36306311 112.5451779 -89 112 C-86.6255212 115.73749825 -84.27907065 119.49181279 -81.9375 123.25 C-80.92333008 124.84521484 -80.92333008 124.84521484 -79.88867188 126.47265625 C-79.25380859 127.49746094 -78.61894531 128.52226562 -77.96484375 129.578125 C-77.3730835 130.52075195 -76.78132324 131.46337891 -76.17163086 132.43457031 C-75 135 -75 135 -75.20043945 137.24121094 C-77.06589206 141.34463708 -82.13241524 143.14096764 -86 145 C-103.49621349 151.47932205 -125.50173448 153.59669323 -143 146 C-156.74175694 139.30282351 -165.93049239 128.96726746 -171.22265625 114.58984375 C-175.93182711 98.90049561 -175.28224703 81.63401511 -168.375 66.6875 C-160.66799926 52.52945421 -149.10385582 43.89308314 -134 39 C-120.81665414 35.19109813 -105.04223494 37.26417546 -93.12109375 43.5078125 C-81.24673792 50.45471455 -75.52637869 59.85923681 -70 72 C-69.50371094 70.9378125 -69.00742188 69.875625 -68.49609375 68.78125 C-62.1631063 55.49642663 -54.63286799 44.03274819 -40.16796875 38.6953125 C-30.58497158 36.59201596 -19.25085237 36.49866516 -10.203125 40.5390625 C-6.91184479 42.7215781 -3.99842918 45.42991785 -1 48 C-0.67 32.16 -0.34 16.32 0 0 Z M-131 73 C-133.18702362 75.98893229 -134 77.27944454 -134 81 C-123.77 81 -113.54 81 -103 81 C-105.18708065 74.43875805 -106.83183318 72.08408341 -113 69 C-119.90756362 68.36921949 -125.69735858 67.96928891 -131 73 Z M-26.875 78.3125 C-31.18482217 83.76315745 -33.54079206 89.16667099 -32.75 96.234375 C-31.36196518 103.62070316 -28.25815031 108.6674344 -22 113 C-16.29900468 114.90033177 -10.99144571 114.78993868 -5.5625 112.125 C-3.29300354 110.88709284 -1.84905433 109.84905433 0 108 C0.54346282 103.41638518 0.46330514 98.79958527 0.5 94.1875 C0.54125 92.90294922 0.5825 91.61839844 0.625 90.29492188 C0.8883282 83.89778459 0.8883282 83.89778459 -1.21948242 78.05126953 C-9.13826102 71.14913324 -19.04821785 72.01704479 -26.875 78.3125 Z " fill="#FFFFFF" transform="translate(3668,2277)"/>
<path d="M0 0 C19.47 0 38.94 0 59 0 C61.866875 8.745 64.73375 17.49 67.6875 26.5 C68.58170654 29.22572266 69.47591309 31.95144531 70.3972168 34.75976562 C74.34786432 46.81463479 78.2792948 58.87185232 82 71 C83.77369197 65.70928754 85.54404168 60.41746408 87.3125 55.125 C87.57922516 54.32710052 87.84595032 53.52920105 88.12075806 52.7071228 C91.19322883 43.50970413 94.23950966 34.30483108 97.2109375 25.07421875 C97.46395126 24.28853516 97.71696503 23.50285156 97.97764587 22.69335938 C99.19304564 18.91517532 100.4035461 15.1354864 101.60864258 11.35400391 C102.04503895 9.99249838 102.48147856 8.63100671 102.91796875 7.26953125 C103.29719482 6.07948486 103.6764209 4.88943848 104.06713867 3.66333008 C105 1 105 1 106 0 C125.14 0 144.28 0 164 0 C164 48.51 164 97.02 164 147 C150.14 147 136.28 147 122 147 C121.67 118.95 121.34 90.9 121 62 C118.99035156 68.05214844 116.98070313 74.10429687 114.91015625 80.33984375 C113.6390015 84.16352176 112.36767139 87.98713964 111.09570312 91.81054688 C109.07484823 97.88508749 107.05466182 103.95984494 105.03833008 110.03588867 C103.41348838 114.93207468 101.7857547 119.82729027 100.15597343 124.72183418 C99.53332909 126.59347513 98.91174452 128.46546896 98.2912159 130.33781242 C97.42485597 132.95131721 96.55480559 135.56356493 95.68383789 138.17553711 C95.42561249 138.95740387 95.16738708 139.73927063 94.90133667 140.54483032 C93.11405216 145.88594784 93.11405216 145.88594784 92 147 C90.5112814 147.08669432 89.018555 147.10703494 87.52734375 147.09765625 C86.62822266 147.09443359 85.72910156 147.09121094 84.80273438 147.08789062 C83.85720703 147.07951172 82.91167969 147.07113281 81.9375 147.0625 C80.5134082 147.05573242 80.5134082 147.05573242 79.06054688 147.04882812 C76.70696935 147.0370011 74.35351523 147.02052025 72 147 C62.17453918 118.38497759 52.54050887 89.71153142 43 61 C42.67 89.38 42.34 117.76 42 147 C28.14 147 14.28 147 0 147 C0 98.49 0 49.98 0 0 Z " fill="#FFFFFF" transform="translate(3325,2277)"/>
<path d="M0 0 C1.08539062 -0.01160156 2.17078125 -0.02320312 3.2890625 -0.03515625 C16.1064215 0.01072928 28.48294257 2.7802034 38.32421875 11.4140625 C50.08208735 23.71527068 50.31044179 39.64855441 50.1953125 55.76171875 C50.19157368 57.31541256 50.18873082 58.86910876 50.18673706 60.42280579 C50.17916894 64.47515589 50.15958068 68.52735836 50.1373291 72.57965088 C50.1130871 77.46153463 50.10405715 82.34346826 50.09242249 87.2253952 C50.073151 94.6086989 50.03478141 101.99167984 50 109.375 C37.46 109.375 24.92 109.375 12 109.375 C11.505 105.91 11.505 105.91 11 102.375 C10.56171875 102.76171875 10.1234375 103.1484375 9.671875 103.546875 C-0.64118348 112.0153214 -12.0610301 113.50763696 -24.99707031 112.58935547 C-34.22221374 111.60207171 -41.01347898 106.20005854 -47 99.375 C-53.62381479 88.99870298 -54.84699258 76.98760673 -52.28125 65.0234375 C-49.36740926 56.49340371 -45.33819401 51.72465689 -37.37890625 47.453125 C-30.89380223 44.51406308 -25.35677096 43.98811695 -18.3125 44 C-17.33023438 44.00161133 -16.34796875 44.00322266 -15.3359375 44.00488281 C-5.59630292 44.16979694 3.85278251 46.22778251 11 53.375 C11.34820897 46.96537561 11.44155752 41.92589923 8 36.375 C2.58143736 31.46048969 -3.90969519 31.61761359 -10.91015625 31.91796875 C-18.20320293 32.52274137 -24.62138829 35.59557958 -30.5625 39.75 C-31.366875 40.28625 -32.17125 40.8225 -33 41.375 C-36.86069696 40.08810101 -37.0871084 38.87121319 -38.91796875 35.31640625 C-39.44970703 34.29095703 -39.98144531 33.26550781 -40.52929688 32.20898438 C-41.07650391 31.12939453 -41.62371094 30.04980469 -42.1875 28.9375 C-42.74630859 27.86177734 -43.30511719 26.78605469 -43.88085938 25.67773438 C-48 17.66577953 -48 17.66577953 -48 15.375 C-34.11841156 4.52659329 -17.37932896 -0.1857648 0 0 Z M-15 74.375 C-15.52245555 79.08016025 -15.52245555 79.08016025 -13.6875 83.25 C-8.58709752 86.65026832 -1.85504363 85.79218984 4 85.375 C7.56108467 84.04713792 9.35513566 83.01986434 12 80.375 C12.50059916 77.96017587 12.50059916 77.96017587 12 75.375 C9.24886774 71.67155273 6.4453103 70.38148535 2 69.375 C-4.74404729 68.68485512 -9.99018124 69.36518124 -15 74.375 Z " fill="#FFFFFF" transform="translate(3811,2314.625)"/>
<path d="M0 0 C4.62 0 9.24 0 14 0 C14 1.32 14 2.64 14 4 C17.96 4 21.92 4 26 4 C26 5.65 26 7.3 26 9 C27.65 9 29.3 9 31 9 C31 12.96 31 16.92 31 21 C32.32 21 33.64 21 35 21 C35 22.32 35 23.64 35 25 C36.32 25 37.64 25 39 25 C39 26.65 39 28.3 39 30 C41.64 30 44.28 30 47 30 C47 28.35 47 26.7 47 25 C49.97 25 52.94 25 56 25 C56 26.65 56 28.3 56 30 C57.32 30 58.64 30 60 30 C60 31.65 60 33.3 60 35 C61.32 35 62.64 35 64 35 C64 37.64 64 40.28 64 43 C70.93 43 77.86 43 85 43 C85 44.32 85 45.64 85 47 C83.68 47 82.36 47 81 47 C81 48.65 81 50.3 81 52 C78.03 52 75.06 52 72 52 C72 53.32 72 54.64 72 56 C69.36 56 66.72 56 64 56 C64 57.32 64 58.64 64 60 C33.31 60 2.62 60 -29 60 C-29 58.68 -29 57.36 -29 56 C-32.96 56 -36.92 56 -41 56 C-41 41.81 -41 27.62 -41 13 C-39.68 13 -38.36 13 -37 13 C-37 11.68 -37 10.36 -37 9 C-34.36 9 -31.72 9 -29 9 C-29 10.32 -29 11.64 -29 13 C-27.68 13 -26.36 13 -25 13 C-25 11.68 -25 10.36 -25 9 C-23.68 9 -22.36 9 -21 9 C-21 7.35 -21 5.7 -21 4 C-15.39 4 -9.78 4 -4 4 C-4 5.65 -4 7.3 -4 9 C-2.68 9 -1.36 9 0 9 C0 6.03 0 3.06 0 0 Z " fill="#6F0000" transform="translate(411,2366)"/>
<path d="M0 0 C12.54 0 25.08 0 38 0 C38 34.98 38 69.96 38 106 C25.46 106 12.92 106 0 106 C0 71.02 0 36.04 0 0 Z " fill="#FFFFFF" transform="translate(3717,2318)"/>
<path d="M0 0 C2.64 0 5.28 0 8 0 C8 2.64 8 5.28 8 8 C9.65 8 11.3 8 13 8 C13 9.65 13 11.3 13 13 C14.32 13 15.64 13 17 13 C17 11.35 17 9.7 17 8 C18.32 8 19.64 8 21 8 C21 13.94 21 19.88 21 26 C27.93 26 34.86 26 42 26 C42 23.03 42 20.06 42 17 C43.32 17 44.64 17 46 17 C46 19.97 46 22.94 46 26 C47.32 26 48.64 26 50 26 C50 28.97 50 31.94 50 35 C51.32 35 52.64 35 54 35 C54 36.32 54 37.64 54 39 C51.36 39 48.72 39 46 39 C46 37.68 46 36.36 46 35 C44.68 35 43.36 35 42 35 C42 33.35 42 31.7 42 30 C36.39 30 30.78 30 25 30 C25 36.93 25 43.86 25 51 C27.64 51 30.28 51 33 51 C33 53.97 33 56.94 33 60 C31.68 60 30.36 60 29 60 C29 70.89 29 81.78 29 93 C26.36 93 23.72 93 21 93 C21 89.04 21 85.08 21 81 C19.68 81 18.36 81 17 81 C17 82.32 17 83.64 17 85 C15.68 85 14.36 85 13 85 C13 87.64 13 90.28 13 93 C11.35 93 9.7 93 8 93 C8 90.36 8 87.72 8 85 C5.36 85 2.72 85 0 85 C0.33 83.68 0.66 82.36 1 81 C1.99 81 2.98 81 4 81 C4 74.07 4 67.14 4 60 C2.68 60 1.36 60 0 60 C0 57.03 0 54.06 0 51 C-1.32 51 -2.64 51 -4 51 C-4 52.65 -4 54.3 -4 56 C-5.32 56 -6.64 56 -8 56 C-8 61.28 -8 66.56 -8 72 C-12.29 72 -16.58 72 -21 72 C-21 69.36 -21 66.72 -21 64 C-18.03 64 -15.06 64 -12 64 C-12 62.68 -12 61.36 -12 60 C-13.65 60 -15.3 60 -17 60 C-17 55.71 -17 51.42 -17 47 C-15.35 47 -13.7 47 -12 47 C-12 45.68 -12 44.36 -12 43 C-10.68 43 -9.36 43 -8 43 C-8 41.68 -8 40.36 -8 39 C-5.36 39 -2.72 39 0 39 C0 34.71 0 30.42 0 26 C1.32 26 2.64 26 4 26 C4 23.03 4 20.06 4 17 C2.68 17 1.36 17 0 17 C0 11.39 0 5.78 0 0 Z " fill="#800000" transform="translate(668,1911)"/>
<path d="M0 0 C5.35581254 5.35581254 7.56988569 10.98559975 8.375 18.5 C7.46911018 26.95497162 4.54080822 33.38633547 -2 39 C-8.47056965 42.90216805 -14.62934085 43.00809464 -22 42 C-28.48571586 39.38718304 -32.45295526 34.87479284 -36 29 C-38.18415515 22.44753454 -38.3455619 12.82529409 -35.4375 6.4375 C-31.78761846 0.47559386 -26.06809547 -3.83768701 -19.375 -5.75 C-12.1213827 -6.28730498 -5.63341789 -4.71634986 0 0 Z " fill="#FFFFFF" transform="translate(3905,2385)"/>
<path d="M0 0 C5.01286794 4.55894682 8.5176155 9.12569084 9.37109375 15.98046875 C9.53087179 23.69680829 8.83340676 29.77277362 4 36 C-1.12928455 40.77823085 -6.01609244 43 -13 43 C-19.12147657 42.22469011 -24.36076155 40.12428768 -28.4453125 35.2890625 C-33.65149811 28.2383997 -33.67051295 21.63045954 -33 13 C-31.35421843 6.68456109 -27.25944982 2.64207915 -22 -1 C-15.42630119 -4.80582563 -6.36404084 -3.90638279 0 0 Z " fill="#FFFFFF" transform="translate(3748,2265)"/>
<path d="M0 0 C4.29 0 8.58 0 13 0 C13 5.61 13 11.22 13 17 C14.32 17 15.64 17 17 17 C17 15.68 17 14.36 17 13 C18.32 13 19.64 13 21 13 C21 17.29 21 21.58 21 26 C19.68 26 18.36 26 17 26 C17 28.64 17 31.28 17 34 C18.32 34 19.64 34 21 34 C21 38.29 21 42.58 21 47 C19.68 47 18.36 47 17 47 C17 50.96 17 54.92 17 59 C15.68 59 14.36 59 13 59 C13 57.68 13 56.36 13 55 C11.35 55 9.7 55 8 55 C8 53.68 8 52.36 8 51 C6.68 51 5.36 51 4 51 C4 44.07 4 37.14 4 30 C5.32 30 6.64 30 8 30 C8 27.03 8 24.06 8 21 C5.36 21 2.72 21 0 21 C0 14.07 0 7.14 0 0 Z " fill="#5B0000" transform="translate(693,1941)"/>
<path d="M0 0 C2.64 0 5.28 0 8 0 C8 1.32 8 2.64 8 4 C12.29 4 16.58 4 21 4 C21 12.58 21 21.16 21 30 C9.78 30 -1.44 30 -13 30 C-13 28.35 -13 26.7 -13 25 C-14.32 25 -15.64 25 -17 25 C-17 19.72 -17 14.44 -17 9 C-14.36 9 -11.72 9 -9 9 C-9 10.32 -9 11.64 -9 13 C-7.68 13 -6.36 13 -5 13 C-5 14.32 -5 15.64 -5 17 C-3.35 17 -1.7 17 0 17 C0.33 15.68 0.66 14.36 1 13 C5.95 13 10.9 13 16 13 C16 11.68 16 10.36 16 9 C12.04 9 8.08 9 4 9 C4 7.35 4 5.7 4 4 C2.68 4 1.36 4 0 4 C0 2.68 0 1.36 0 0 Z " fill="#780000" transform="translate(563,2282)"/>
<path d="M0 0 C2.97 0 5.94 0 9 0 C9 2.97 9 5.94 9 9 C10.32 9 11.64 9 13 9 C13 10.32 13 11.64 13 13 C14.65 13 16.3 13 18 13 C18 15.64 18 18.28 18 21 C15.03 21 12.06 21 9 21 C9 22.65 9 24.3 9 26 C7.68 26 6.36 26 5 26 C5 27.32 5 28.64 5 30 C0.71 30 -3.58 30 -8 30 C-8 27.03 -8 24.06 -8 21 C-3.71 21 0.58 21 5 21 C5 18.36 5 15.72 5 13 C3.35 13 1.7 13 0 13 C0 11.68 0 10.36 0 9 C-1.32 9 -2.64 9 -4 9 C-4 7.68 -4 6.36 -4 5 C-2.68 5 -1.36 5 0 5 C0 3.35 0 1.7 0 0 Z " fill="#600000" transform="translate(629,1898)"/>
<path d="M0 0 C8.25 0 16.5 0 25 0 C25 2.64 25 5.28 25 8 C26.32 8 27.64 8 29 8 C29 10.97 29 13.94 29 17 C26.36 17 23.72 17 21 17 C21 14.03 21 11.06 21 8 C19.68 8 18.36 8 17 8 C17 6.68 17 5.36 17 4 C15.68 4 14.36 4 13 4 C13 5.32 13 6.64 13 8 C8.71 8 4.42 8 0 8 C0 5.36 0 2.72 0 0 Z " fill="#7F0000" transform="translate(475,2042)"/>
<path d="M0 0 C1.32 0 2.64 0 4 0 C4 1.32 4 2.64 4 4 C5.65 4 7.3 4 9 4 C9 5.65 9 7.3 9 9 C10.32 9 11.64 9 13 9 C13 13.29 13 17.58 13 22 C8.71 22 4.42 22 0 22 C0 14.74 0 7.48 0 0 Z " fill="#540000" transform="translate(697,1915)"/>
<path d="M0 0 C6.93 0 13.86 0 21 0 C21 4.29 21 8.58 21 13 C19.35 13 17.7 13 16 13 C16 14.32 16 15.64 16 17 C14.68 17 13.36 17 12 17 C12 15.68 12 14.36 12 13 C10.68 13 9.36 13 8 13 C8 10.03 8 7.06 8 4 C5.36 4 2.72 4 0 4 C0 2.68 0 1.36 0 0 Z " fill="#730000" transform="translate(374,2211)"/>
<path d="M0 0 C2.64 0 5.28 0 8 0 C8 5.28 8 10.56 8 16 C9.32 16 10.64 16 12 16 C12 20.29 12 24.58 12 29 C10.68 29 9.36 29 8 29 C8 27.68 8 26.36 8 25 C5.36 25 2.72 25 0 25 C0 23.68 0 22.36 0 21 C1.32 21 2.64 21 4 21 C4 16.71 4 12.42 4 8 C2.68 8 1.36 8 0 8 C0 5.36 0 2.72 0 0 Z " fill="#760000" transform="translate(282,2118)"/>
<path d="M0 0 C1.65 0 3.3 0 5 0 C5 1.65 5 3.3 5 5 C6.32 5 7.64 5 9 5 C9 6.32 9 7.64 9 9 C12.96 9 16.92 9 21 9 C21 10.32 21 11.64 21 13 C18.36 13 15.72 13 13 13 C13 14.32 13 15.64 13 17 C8.71 17 4.42 17 0 17 C0 11.39 0 5.78 0 0 Z " fill="#750000" transform="translate(340,2177)"/>
<path d="M0 0 C1.32 0 2.64 0 4 0 C4 1.65 4 3.3 4 5 C6.97 5 9.94 5 13 5 C13 8.96 13 12.92 13 17 C8.71 17 4.42 17 0 17 C0 15.68 0 14.36 0 13 C-1.65 13 -3.3 13 -5 13 C-5 11.68 -5 10.36 -5 9 C-3.35 9 -1.7 9 0 9 C0 6.03 0 3.06 0 0 Z " fill="#5D0000" transform="translate(634,1983)"/>
<path d="M0 0 C1.65 0 3.3 0 5 0 C4.67 5.61 4.34 11.22 4 17 C0.04 17 -3.92 17 -8 17 C-8 15.35 -8 13.7 -8 12 C-9.65 12 -11.3 12 -13 12 C-13 10.68 -13 9.36 -13 8 C-11.35 8 -9.7 8 -8 8 C-8 6.68 -8 5.36 -8 4 C-5.36 4 -2.72 4 0 4 C0 2.68 0 1.36 0 0 Z " fill="#790000" transform="translate(403,1971)"/>
<path d="M0 0 C1.32 0 2.64 0 4 0 C4 2.97 4 5.94 4 9 C5.32 9 6.64 9 8 9 C8 14.61 8 20.22 8 26 C5.36 26 2.72 26 0 26 C0 24.68 0 23.36 0 22 C1.32 22 2.64 22 4 22 C4 20.68 4 19.36 4 18 C2.68 18 1.36 18 0 18 C0 12.06 0 6.12 0 0 Z " fill="#660000" transform="translate(282,1932)"/>
<path d="M0 0 C1.32 0 2.64 0 4 0 C4 2.64 4 5.28 4 8 C5.32 8 6.64 8 8 8 C8 6.68 8 5.36 8 4 C10.97 4 13.94 4 17 4 C17 6.97 17 9.94 17 13 C11.39 13 5.78 13 0 13 C0 8.71 0 4.42 0 0 Z " fill="#770000" transform="translate(378,2299)"/>
<path d="M0 0 C1.32 0 2.64 0 4 0 C4 3.96 4 7.92 4 12 C2.68 12 1.36 12 0 12 C0 13.32 0 14.64 0 16 C-4.62 16 -9.24 16 -14 16 C-14 14.68 -14 13.36 -14 12 C-10.7 12 -7.4 12 -4 12 C-4 10.68 -4 9.36 -4 8 C-5.32 8 -6.64 8 -8 8 C-8 6.68 -8 5.36 -8 4 C-5.36 4 -2.72 4 0 4 C0 2.68 0 1.36 0 0 Z " fill="#760000" transform="translate(425,1946)"/>
<path d="M0 0 C1.32 0 2.64 0 4 0 C4 2.97 4 5.94 4 9 C8.29 9 12.58 9 17 9 C17 10.32 17 11.64 17 13 C14.03 13 11.06 13 8 13 C8 14.32 8 15.64 8 17 C6.68 17 5.36 17 4 17 C4 15.68 4 14.36 4 13 C1.36 13 -1.28 13 -4 13 C-4 11.68 -4 10.36 -4 9 C-2.68 9 -1.36 9 0 9 C0 6.03 0 3.06 0 0 Z " fill="#6F0000" transform="translate(425,1979)"/>
<path d="M0 0 C2.64 0 5.28 0 8 0 C8 1.65 8 3.3 8 5 C6.68 5 5.36 5 4 5 C4 8.96 4 12.92 4 17 C5.32 17 6.64 17 8 17 C8 18.32 8 19.64 8 21 C5.36 21 2.72 21 0 21 C0 14.07 0 7.14 0 0 Z " fill="#5F0000" transform="translate(693,1941)"/>
<path d="M0 0 C4.29 0 8.58 0 13 0 C13 2.97 13 5.94 13 9 C8.71 9 4.42 9 0 9 C0 6.03 0 3.06 0 0 Z " fill="#400000" transform="translate(621,1919)"/>
<path d="M0 0 C2.64 0 5.28 0 8 0 C8 1.32 8 2.64 8 4 C9.32 4 10.64 4 12 4 C12 6.97 12 9.94 12 13 C9.36 13 6.72 13 4 13 C4 10.03 4 7.06 4 4 C2.68 4 1.36 4 0 4 C0 2.68 0 1.36 0 0 Z " fill="#640000" transform="translate(492,2046)"/>
<path d="M0 0 C1.98 0 3.96 0 6 0 C6 5.61 6 11.22 6 17 C4.02 17 2.04 17 0 17 C0 11.39 0 5.78 0 0 Z " fill="#570000" transform="translate(411,2370)"/>
<path d="M0 0 C2.97 0 5.94 0 9 0 C9 4.29 9 8.58 9 13 C7.68 13 6.36 13 5 13 C5 11.35 5 9.7 5 8 C3.35 8 1.7 8 0 8 C0 5.36 0 2.72 0 0 Z " fill="#650000" transform="translate(701,1924)"/>
<path d="M0 0 C2.97 0 5.94 0 9 0 C9 2.64 9 5.28 9 8 C4.71 8 0.42 8 -4 8 C-4 6.68 -4 5.36 -4 4 C-2.68 4 -1.36 4 0 4 C0 2.68 0 1.36 0 0 Z " fill="#710000" transform="translate(336,2063)"/>
<path d="M0 0 C1.32 0 2.64 0 4 0 C4 1.65 4 3.3 4 5 C5.32 5 6.64 5 8 5 C8 6.32 8 7.64 8 9 C9.32 9 10.64 9 12 9 C12 10.32 12 11.64 12 13 C9.36 13 6.72 13 4 13 C4 11.68 4 10.36 4 9 C2.68 9 1.36 9 0 9 C0 6.03 0 3.06 0 0 Z " fill="#620000" transform="translate(588,2164)"/>
<path d="M0 0 C1.32 0 2.64 0 4 0 C4 1.32 4 2.64 4 4 C5.32 4 6.64 4 8 4 C8 7.3 8 10.6 8 14 C6.68 14 5.36 14 4 14 C4 12.35 4 10.7 4 9 C2.68 9 1.36 9 0 9 C0 6.03 0 3.06 0 0 Z " fill="#5B0000" transform="translate(417,2387)"/>
<path d="M0 0 C3.96 0 7.92 0 12 0 C12 1.65 12 3.3 12 5 C9.36 5 6.72 5 4 5 C4 6.32 4 7.64 4 9 C2.68 9 1.36 9 0 9 C0 6.03 0 3.06 0 0 Z " fill="#770000" transform="translate(421,2286)"/>
<path d="M0 0 C2.97 0 5.94 0 9 0 C9.79953138 3.28696233 10.09658936 4.71023192 9 8 C5.62182575 8.84454356 3.32534757 9.10844919 0 8 C0 5.36 0 2.72 0 0 Z " fill="#660000" transform="translate(697,2042)"/>
<path d="M0 0 C2.64 0 5.28 0 8 0 C8 2.97 8 5.94 8 9 C5.36 9 2.72 9 0 9 C0 6.03 0 3.06 0 0 Z " fill="#930000" transform="translate(668,1958)"/>
<path d="M0 0 C2.64 0 5.28 0 8 0 C8 1.65 8 3.3 8 5 C9.32 5 10.64 5 12 5 C12 6.32 12 7.64 12 9 C9.36 9 6.72 9 4 9 C4 7.68 4 6.36 4 5 C2.68 5 1.36 5 0 5 C0 3.35 0 1.7 0 0 Z " fill="#830000" transform="translate(710,1941)"/>
<path d="M0 0 C2.97 0 5.94 0 9 0 C9 2.64 9 5.28 9 8 C6.03 8 3.06 8 0 8 C0 5.36 0 2.72 0 0 Z " fill="#6B0000" transform="translate(433,1911)"/>
<path d="M0 0 C1.32 0 2.64 0 4 0 C4 1.32 4 2.64 4 4 C5.65 4 7.3 4 9 4 C9 6.64 9 9.28 9 12 C7.35 12 5.7 12 4 12 C4 10.68 4 9.36 4 8 C2.68 8 1.36 8 0 8 C0 5.36 0 2.72 0 0 Z " fill="#810000" transform="translate(625,1907)"/>
<path d="M0 0 C2.97 0 5.94 0 9 0 C9 1.32 9 2.64 9 4 C7.35 4 5.7 4 4 4 C4 6.64 4 9.28 4 12 C2.68 12 1.36 12 0 12 C0 8.04 0 4.08 0 0 Z " fill="#5C0000" transform="translate(625,2076)"/>
<path d="M0 0 C2.64 0 5.28 0 8 0 C8 1.32 8 2.64 8 4 C6.68 4 5.36 4 4 4 C4 6.97 4 9.94 4 13 C2.68 13 1.36 13 0 13 C0 8.71 0 4.42 0 0 Z " fill="#7B0000" transform="translate(324,2021)"/>
<path d="M0 0 C1.65 0 3.3 0 5 0 C5 2.97 5 5.94 5 9 C2.03 9 -0.94 9 -4 9 C-4 7.68 -4 6.36 -4 5 C-2.68 5 -1.36 5 0 5 C0 3.35 0 1.7 0 0 Z " fill="#790000" transform="translate(390,2134)"/>
<path d="M0 0 C2.97 0 5.94 0 9 0 C9 2.97 9 5.94 9 9 C7.35 9 5.7 9 4 9 C4 7.35 4 5.7 4 4 C2.68 4 1.36 4 0 4 C0 2.68 0 1.36 0 0 Z " fill="#520000" transform="translate(638,2004)"/>
<path d="M0 0 C3.96 0 7.92 0 12 0 C12 1.65 12 3.3 12 5 C8.04 5 4.08 5 0 5 C0 3.35 0 1.7 0 0 Z " fill="#750000" transform="translate(442,2198)"/>
<path d="M0 0 C2.64 0 5.28 0 8 0 C8 2.97 8 5.94 8 9 C6.68 9 5.36 9 4 9 C4 7.68 4 6.36 4 5 C2.68 5 1.36 5 0 5 C0 3.35 0 1.7 0 0 Z " fill="#6F0000" transform="translate(525,2349)"/>
<path d="M0 0 C1.32 0 2.64 0 4 0 C4 4.62 4 9.24 4 14 C2.68 14 1.36 14 0 14 C0 9.38 0 4.76 0 0 Z " fill="#700000" transform="translate(382,2155)"/>
<path d="M0 0 C2.64 0 5.28 0 8 0 C8 1.65 8 3.3 8 5 C6.68 5 5.36 5 4 5 C4 6.32 4 7.64 4 9 C2.68 9 1.36 9 0 9 C0 6.03 0 3.06 0 0 Z " fill="#700000" transform="translate(278,2092)"/>
<path d="M0 0 C4.29 0 8.58 0 13 0 C13 1.32 13 2.64 13 4 C8.71 4 4.42 4 0 4 C0 2.68 0 1.36 0 0 Z " fill="#710000" transform="translate(475,2067)"/>
<path d="M0 0 C2.64 0 5.28 0 8 0 C8 1.32 8 2.64 8 4 C6.68 4 5.36 4 4 4 C4 5.65 4 7.3 4 9 C2.68 9 1.36 9 0 9 C0 6.03 0 3.06 0 0 Z " fill="#710000" transform="translate(345,1979)"/>
<path d="M0 0 C1.32 0 2.64 0 4 0 C4 1.65 4 3.3 4 5 C5.32 5 6.64 5 8 5 C8 6.32 8 7.64 8 9 C5.36 9 2.72 9 0 9 C0 6.03 0 3.06 0 0 Z " fill="#730000" transform="translate(492,1898)"/>
<path d="M0 0 C4.29 0 8.58 0 13 0 C13 1.32 13 2.64 13 4 C8.71 4 4.42 4 0 4 C0 2.68 0 1.36 0 0 Z " fill="#6A0000" transform="translate(596,1894)"/>
<path d="M0 0 C2.64 0 5.28 0 8 0 C8 2.97 8 5.94 8 9 C6.68 9 5.36 9 4 9 C4 7.35 4 5.7 4 4 C2.68 4 1.36 4 0 4 C0 2.68 0 1.36 0 0 Z " fill="#6C0000" transform="translate(496,1873)"/>
<path d="M0 0 C1.32 0 2.64 0 4 0 C4 3.96 4 7.92 4 12 C2.68 12 1.36 12 0 12 C0 8.04 0 4.08 0 0 Z " fill="#7A0000" transform="translate(429,2375)"/>
<path d="M0 0 C2.64 0 5.28 0 8 0 C8 2.64 8 5.28 8 8 C6.68 8 5.36 8 4 8 C4 6.68 4 5.36 4 4 C2.68 4 1.36 4 0 4 C0 2.68 0 1.36 0 0 Z " fill="#740000" transform="translate(521,2249)"/>
<path d="M0 0 C3.96 0 7.92 0 12 0 C12 1.32 12 2.64 12 4 C8.04 4 4.08 4 0 4 C0 2.68 0 1.36 0 0 Z " fill="#770000" transform="translate(521,2232)"/>
<path d="M0 0 C1.98 0 3.96 0 6 0 C6 2.64 6 5.28 6 8 C4.02 8 2.04 8 0 8 C0 5.36 0 2.72 0 0 Z " fill="#700000" transform="translate(411,2105)"/>
<path d="M0 0 C1.32 0 2.64 0 4 0 C4 3.96 4 7.92 4 12 C2.68 12 1.36 12 0 12 C0 8.04 0 4.08 0 0 Z " fill="#5D0000" transform="translate(634,2055)"/>
<path d="M0 0 C2.64 0 5.28 0 8 0 C8 2.64 8 5.28 8 8 C6.68 8 5.36 8 4 8 C4 6.68 4 5.36 4 4 C2.68 4 1.36 4 0 4 C0 2.68 0 1.36 0 0 Z " fill="#9F0000" transform="translate(450,1903)"/>
<path d="M0 0 C1.65 0 3.3 0 5 0 C5 2.97 5 5.94 5 9 C3.35 9 1.7 9 0 9 C0 6.03 0 3.06 0 0 Z " fill="#470000" transform="translate(390,2303)"/>
<path d="M0 0 C1.65 0 3.3 0 5 0 C5 2.97 5 5.94 5 9 C3.35 9 1.7 9 0 9 C0 6.03 0 3.06 0 0 Z " fill="#640000" transform="translate(651,2134)"/>
<path d="M0 0 C2.97 0 5.94 0 9 0 C9 1.65 9 3.3 9 5 C6.03 5 3.06 5 0 5 C0 3.35 0 1.7 0 0 Z " fill="#2F0000" transform="translate(625,1919)"/>
<path d="M0 0 C1.65 0 3.3 0 5 0 C5 2.64 5 5.28 5 8 C3.35 8 1.7 8 0 8 C0 5.36 0 2.72 0 0 Z " fill="#570000" transform="translate(437,2379)"/>
<path d="M0 0 C2.64 0 5.28 0 8 0 C8 1.65 8 3.3 8 5 C5.36 5 2.72 5 0 5 C0 3.35 0 1.7 0 0 Z " fill="#5B0000" transform="translate(378,2349)"/>
<path d="M0 0 C2.64 0 5.28 0 8 0 C8 1.65 8 3.3 8 5 C5.36 5 2.72 5 0 5 C0 3.35 0 1.7 0 0 Z " fill="#750000" transform="translate(320,2164)"/>
<path d="M0 0 C2.64 0 5.28 0 8 0 C8 1.65 8 3.3 8 5 C5.36 5 2.72 5 0 5 C0 3.35 0 1.7 0 0 Z " fill="#760000" transform="translate(513,1898)"/>
<path d="M0 0 C1.65 0 3.3 0 5 0 C4.67 2.97 4.34 5.94 4 9 C2.68 9 1.36 9 0 9 C0 6.03 0 3.06 0 0 Z " fill="#720000" transform="translate(433,2050)"/>
<path d="M0 0 C1.32 0 2.64 0 4 0 C4 2.97 4 5.94 4 9 C2.68 9 1.36 9 0 9 C0 6.03 0 3.06 0 0 Z " fill="#440000" transform="translate(458,2396)"/>
<path d="M0 0 C1.32 0 2.64 0 4 0 C4 2.97 4 5.94 4 9 C2.68 9 1.36 9 0 9 C0 6.03 0 3.06 0 0 Z " fill="#590000" transform="translate(429,2387)"/>
<path d="M0 0 C1.32 0 2.64 0 4 0 C4 2.97 4 5.94 4 9 C2.68 9 1.36 9 0 9 C0 6.03 0 3.06 0 0 Z " fill="#490000" transform="translate(417,2387)"/>
<path d="M0 0 C2.97 0 5.94 0 9 0 C9 1.32 9 2.64 9 4 C6.03 4 3.06 4 0 4 C0 2.68 0 1.36 0 0 Z " fill="#9D0000" transform="translate(529,2215)"/>
<path d="M0 0 C1.32 0 2.64 0 4 0 C4 2.97 4 5.94 4 9 C2.68 9 1.36 9 0 9 C0 6.03 0 3.06 0 0 Z " fill="#750000" transform="translate(621,2164)"/>
<path d="M0 0 C1.32 0 2.64 0 4 0 C4 2.97 4 5.94 4 9 C2.68 9 1.36 9 0 9 C0 6.03 0 3.06 0 0 Z " fill="#670000" transform="translate(403,2164)"/>
<path d="M0 0 C1.32 0 2.64 0 4 0 C4 2.97 4 5.94 4 9 C2.68 9 1.36 9 0 9 C0 6.03 0 3.06 0 0 Z " fill="#6E0000" transform="translate(600,2134)"/>
<path d="M0 0 C2.97 0 5.94 0 9 0 C9 1.32 9 2.64 9 4 C6.03 4 3.06 4 0 4 C0 2.68 0 1.36 0 0 Z " fill="#510000" transform="translate(647,2084)"/>
<path d="M0 0 C2.97 0 5.94 0 9 0 C9 1.32 9 2.64 9 4 C6.03 4 3.06 4 0 4 C0 2.68 0 1.36 0 0 Z " fill="#620000" transform="translate(701,2076)"/>
<path d="M0 0 C1.32 0 2.64 0 4 0 C4 2.97 4 5.94 4 9 C2.68 9 1.36 9 0 9 C0 6.03 0 3.06 0 0 Z " fill="#660000" transform="translate(278,2050)"/>
<path d="M0 0 C1.32 0 2.64 0 4 0 C4 2.97 4 5.94 4 9 C2.68 9 1.36 9 0 9 C0 6.03 0 3.06 0 0 Z " fill="#5A0000" transform="translate(617,1919)"/>
<path d="M0 0 C2.64 0 5.28 0 8 0 C8 1.32 8 2.64 8 4 C5.36 4 2.72 4 0 4 C0 2.68 0 1.36 0 0 Z " fill="#770000" transform="translate(467,2312)"/>
<path d="M0 0 C1.32 0 2.64 0 4 0 C4 2.64 4 5.28 4 8 C2.68 8 1.36 8 0 8 C0 5.36 0 2.72 0 0 Z " fill="#750000" transform="translate(265,2143)"/>
<path d="M0 0 C1.32 0 2.64 0 4 0 C4 2.64 4 5.28 4 8 C2.68 8 1.36 8 0 8 C0 5.36 0 2.72 0 0 Z " fill="#700000" transform="translate(353,2139)"/>
<path d="M0 0 C2.64 0 5.28 0 8 0 C8 1.32 8 2.64 8 4 C5.36 4 2.72 4 0 4 C0 2.68 0 1.36 0 0 Z " fill="#670000" transform="translate(282,2118)"/>
<path d="M0 0 C1.32 0 2.64 0 4 0 C4 2.64 4 5.28 4 8 C2.68 8 1.36 8 0 8 C0 5.36 0 2.72 0 0 Z " fill="#4F0000" transform="translate(685,2059)"/>
<path d="M0 0 C2.64 0 5.28 0 8 0 C8 1.32 8 2.64 8 4 C5.36 4 2.72 4 0 4 C0 2.68 0 1.36 0 0 Z " fill="#700000" transform="translate(496,2055)"/>
<path d="M0 0 C1.32 0 2.64 0 4 0 C4 2.64 4 5.28 4 8 C2.68 8 1.36 8 0 8 C0 5.36 0 2.72 0 0 Z " fill="#770000" transform="translate(504,1996)"/>
<path d="M0 0 C2.64 0 5.28 0 8 0 C8 1.32 8 2.64 8 4 C5.36 4 2.72 4 0 4 C0 2.68 0 1.36 0 0 Z " fill="#600000" transform="translate(286,1979)"/>
<path d="M0 0 C1.32 0 2.64 0 4 0 C4 2.64 4 5.28 4 8 C2.68 8 1.36 8 0 8 C0 5.36 0 2.72 0 0 Z " fill="#930000" transform="translate(613,1924)"/>
<path d="M0 0 C1.65 0 3.3 0 5 0 C5 1.65 5 3.3 5 5 C3.35 5 1.7 5 0 5 C0 3.35 0 1.7 0 0 Z " fill="#730000" transform="translate(315,2177)"/>
<path d="M0 0 C1.65 0 3.3 0 5 0 C5 1.65 5 3.3 5 5 C3.35 5 1.7 5 0 5 C0 3.35 0 1.7 0 0 Z " fill="#5E0000" transform="translate(390,2134)"/>
<path d="M0 0 C1.65 0 3.3 0 5 0 C5 1.65 5 3.3 5 5 C3.35 5 1.7 5 0 5 C0 3.35 0 1.7 0 0 Z " fill="#3F0000" transform="translate(701,1983)"/>
<path d="M0 0 C1.65 0 3.3 0 5 0 C5 1.65 5 3.3 5 5 C3.35 5 1.7 5 0 5 C0 3.35 0 1.7 0 0 Z " fill="#540000" transform="translate(269,1919)"/>
<path d="M0 0 C1.98 0 3.96 0 6 0 C6 1.32 6 2.64 6 4 C4.02 4 2.04 4 0 4 C0 2.68 0 1.36 0 0 Z " fill="#490000" transform="translate(411,2383)"/>
<path d="M0 0 C1.98 0 3.96 0 6 0 C5.67 1.32 5.34 2.64 5 4 C3.35 4 1.7 4 0 4 C0 2.68 0 1.36 0 0 Z " fill="#710000" transform="translate(508,2034)"/>
<path d="M0 0 C1.65 0 3.3 0 5 0 C4.67 1.65 4.34 3.3 4 5 C2.68 5 1.36 5 0 5 C0 3.35 0 1.7 0 0 Z " fill="#670000" transform="translate(685,1983)"/>
<path d="M0 0 C1.65 0 3.3 0 5 0 C5 1.32 5 2.64 5 4 C3.35 4.33 1.7 4.66 0 5 C0 3.35 0 1.7 0 0 Z " fill="#6B0000" transform="translate(533,1979)"/>
<path d="M0 0 C1.65 0 3.3 0 5 0 C5 1.32 5 2.64 5 4 C3.35 4 1.7 4 0 4 C0 2.68 0 1.36 0 0 Z " fill="#5D0000" transform="translate(462,2422)"/>
<path d="M0 0 C1.32 0 2.64 0 4 0 C4 1.65 4 3.3 4 5 C2.68 5 1.36 5 0 5 C0 3.35 0 1.7 0 0 Z " fill="#5C0000" transform="translate(467,2413)"/>
<path d="M0 0 C1.32 0 2.64 0 4 0 C4 1.65 4 3.3 4 5 C2.68 5 1.36 5 0 5 C0 3.35 0 1.7 0 0 Z " fill="#610000" transform="translate(458,2391)"/>
<path d="M0 0 C1.65 0 3.3 0 5 0 C5 1.32 5 2.64 5 4 C3.35 4 1.7 4 0 4 C0 2.68 0 1.36 0 0 Z " fill="#4B0000" transform="translate(390,2387)"/>
<path d="M0 0 C1.32 0 2.64 0 4 0 C4 1.65 4 3.3 4 5 C2.68 5 1.36 5 0 5 C0 3.35 0 1.7 0 0 Z " fill="#790000" transform="translate(475,2328)"/>
<path d="M0 0 C1.32 0 2.64 0 4 0 C4 1.65 4 3.3 4 5 C2.68 5 1.36 5 0 5 C0 3.35 0 1.7 0 0 Z " fill="#770000" transform="translate(479,2307)"/>
<path d="M0 0 C1.32 0 2.64 0 4 0 C4 1.65 4 3.3 4 5 C2.68 5 1.36 5 0 5 C0 3.35 0 1.7 0 0 Z " fill="#9D0000" transform="translate(399,2307)"/>
<path d="M0 0 C1.65 0 3.3 0 5 0 C5 1.32 5 2.64 5 4 C3.35 4 1.7 4 0 4 C0 2.68 0 1.36 0 0 Z " fill="#A00000" transform="translate(483,2282)"/>
<path d="M0 0 C1.32 0 2.64 0 4 0 C4 1.65 4 3.3 4 5 C2.68 5 1.36 5 0 5 C0 3.35 0 1.7 0 0 Z " fill="#750000" transform="translate(550,2240)"/>
<path d="M0 0 C1.32 0 2.64 0 4 0 C4 1.65 4 3.3 4 5 C2.68 5 1.36 5 0 5 C0 3.35 0 1.7 0 0 Z " fill="#790000" transform="translate(467,2240)"/>
<path d="M0 0 C1.32 0 2.64 0 4 0 C4 1.65 4 3.3 4 5 C2.68 5 1.36 5 0 5 C0 3.35 0 1.7 0 0 Z " fill="#760000" transform="translate(433,2198)"/>
<path d="M0 0 C1.32 0 2.64 0 4 0 C4 1.65 4 3.3 4 5 C2.68 5 1.36 5 0 5 C0 3.35 0 1.7 0 0 Z " fill="#600000" transform="translate(567,2164)"/>
<path d="M0 0 C1.32 0 2.64 0 4 0 C4 1.65 4 3.3 4 5 C2.68 5 1.36 5 0 5 C0 3.35 0 1.7 0 0 Z " fill="#710000" transform="translate(454,2164)"/>
<path d="M0 0 C1.32 0 2.64 0 4 0 C4 1.65 4 3.3 4 5 C2.68 5 1.36 5 0 5 C0 3.35 0 1.7 0 0 Z " fill="#730000" transform="translate(500,2134)"/>
<path d="M0 0 C1.32 0 2.64 0 4 0 C4 1.65 4 3.3 4 5 C2.68 5 1.36 5 0 5 C0 3.35 0 1.7 0 0 Z " fill="#6E0000" transform="translate(345,2134)"/>
<path d="M0 0 C1.32 0 2.64 0 4 0 C4 1.65 4 3.3 4 5 C2.68 5 1.36 5 0 5 C0 3.35 0 1.7 0 0 Z " fill="#750000" transform="translate(261,2113)"/>
<path d="M0 0 C1.32 0 2.64 0 4 0 C4 1.65 4 3.3 4 5 C2.68 5 1.36 5 0 5 C0 3.35 0 1.7 0 0 Z " fill="#790000" transform="translate(521,2092)"/>
<path d="M0 0 C1.32 0 2.64 0 4 0 C4 1.65 4 3.3 4 5 C2.68 5 1.36 5 0 5 C0 3.35 0 1.7 0 0 Z " fill="#790000" transform="translate(382,2092)"/>
<path d="M0 0 C1.65 0 3.3 0 5 0 C5 1.32 5 2.64 5 4 C3.35 4 1.7 4 0 4 C0 2.68 0 1.36 0 0 Z " fill="#730000" transform="translate(437,2080)"/>
<path d="M0 0 C1.32 0 2.64 0 4 0 C4 1.65 4 3.3 4 5 C2.68 5 1.36 5 0 5 C0 3.35 0 1.7 0 0 Z " fill="#680000" transform="translate(668,2071)"/>
<path d="M0 0 C1.32 0 2.64 0 4 0 C4 1.65 4 3.3 4 5 C2.68 5 1.36 5 0 5 C0 3.35 0 1.7 0 0 Z " fill="#570000" transform="translate(634,2071)"/>
<path d="M0 0 C1.32 0 2.64 0 4 0 C4 1.65 4 3.3 4 5 C2.68 5 1.36 5 0 5 C0 3.35 0 1.7 0 0 Z " fill="#5F0000" transform="translate(621,2071)"/>
<path d="M0 0 C1.32 0 2.64 0 4 0 C4 1.65 4 3.3 4 5 C2.68 5 1.36 5 0 5 C0 3.35 0 1.7 0 0 Z " fill="#520000" transform="translate(500,2050)"/>
<path d="M0 0 C1.32 0 2.64 0 4 0 C4 1.65 4 3.3 4 5 C2.68 5 1.36 5 0 5 C0 3.35 0 1.7 0 0 Z " fill="#8C0000" transform="translate(710,2029)"/>
<path d="M0 0 C1.32 0 2.64 0 4 0 C4 1.65 4 3.3 4 5 C2.68 5 1.36 5 0 5 C0 3.35 0 1.7 0 0 Z " fill="#7C0000" transform="translate(625,2008)"/>
<path d="M0 0 C1.65 0 3.3 0 5 0 C5 1.32 5 2.64 5 4 C3.35 4 1.7 4 0 4 C0 2.68 0 1.36 0 0 Z " fill="#540000" transform="translate(294,2004)"/>
<path d="M0 0 C1.32 0 2.64 0 4 0 C4 1.65 4 3.3 4 5 C2.68 5 1.36 5 0 5 C0 3.35 0 1.7 0 0 Z " fill="#5E0000" transform="translate(656,1983)"/>
<path d="M0 0 C1.32 0 2.64 0 4 0 C4 1.65 4 3.3 4 5 C2.68 5 1.36 5 0 5 C0 3.35 0 1.7 0 0 Z " fill="#690000" transform="translate(600,1941)"/>
<path d="M0 0 C1.32 0 2.64 0 4 0 C4 1.65 4 3.3 4 5 C2.68 5 1.36 5 0 5 C0 3.35 0 1.7 0 0 Z " fill="#690000" transform="translate(575,1941)"/>
<path d="M0 0 C1.32 0 2.64 0 4 0 C4 1.65 4 3.3 4 5 C2.68 5 1.36 5 0 5 C0 3.35 0 1.7 0 0 Z " fill="#980000" transform="translate(399,1941)"/>
<path d="M0 0 C1.65 0 3.3 0 5 0 C5 1.32 5 2.64 5 4 C3.35 4 1.7 4 0 4 C0 2.68 0 1.36 0 0 Z " fill="#6D0000" transform="translate(508,1924)"/>
<path d="M0 0 C1.65 0 3.3 0 5 0 C5 1.32 5 2.64 5 4 C3.35 4 1.7 4 0 4 C0 2.68 0 1.36 0 0 Z " fill="#3F0000" transform="translate(437,1911)"/>
<path d="M0 0 C1.65 0 3.3 0 5 0 C5 1.32 5 2.64 5 4 C3.35 4 1.7 4 0 4 C0 2.68 0 1.36 0 0 Z " fill="#7A0000" transform="translate(642,1907)"/>
<path d="M0 0 C1.32 0 2.64 0 4 0 C4 1.65 4 3.3 4 5 C2.68 5 1.36 5 0 5 C0 3.35 0 1.7 0 0 Z " fill="#6C0000" transform="translate(672,1898)"/>
</svg>
