<?xml version="1.0" encoding="UTF-8"?>
<svg id="Layer_1" data-name="Layer 1" xmlns="http://www.w3.org/2000/svg" viewBox="100 420 820 200">
  <g>
    <path d="M156.41,453.42c0-20.36-7.31-31.91-21.24-31.91-6.76,0-11.75,2.78-14.89,8.34-3.14,5.56-4.72,13.58-4.72,24.07s1.58,18.51,4.72,24.07c3.14,5.56,8.13,8.34,14.89,8.34,13.93,0,21.24-10.65,21.24-31.91Z"/>
    <path d="M200.03,453.41c0-20.36-7.31-31.91-21.24-31.91-6.76,0-11.75,2.78-14.89,8.34-3.14,5.56-4.72,13.58-4.72,24.07s1.58,18.51,4.72,24.07c3.14,5.56,8.13,8.34,14.89,8.34,13.93,0,21.24-10.65,21.24-31.91Z"/>
    <path d="M161.31,483.23h-11.03v-59.61h11.03v59.61Z"/>
    <rect x="105.145" y="443.23" width="25.902" height="66.25"/>
  </g>
  <g transform="translate(209.977 532.015) scale(.941 1)">
    <path d="M0,0H29.5c11.3,0,18.94,7.06,18.94,17.34,0,6.91-3.73,11.85-9.62,14.18v.25c7.61,1.91,12.38,7.3,12.38,15.44,0,10.87-8.13,18.22-20.56,18.22H0V0ZM13.6,27.64h11.26c4.58,0,7.56-2.41,7.56-6.28,0-3.91-2.98-6.26-7.56-6.26H13.6v12.54Zm0,24.91h12.38c5.15,0,8.34-2.54,8.34-6.76,0-4.36-3.19-6.78-8.34-6.78H13.6v13.54Z"/>
    <path d="M64.98,0h24.44c16.3,0,27.23,11.98,27.23,30.57s-10.93,30.54-27.23,30.54H64.98V0Zm13.6,52.07h9.77c9.05,0,14.84-6.76,14.84-17.86s-5.79-17.9-14.84-17.9h-9.77v35.76Z"/>
    <path d="M129.18,0h37.92v12.3h-24.32v13.6h22.47v12.3h-22.47v13.74h24.32v12.3h-37.92V0Z"/>
    <path d="M181.31,0h13.6v53.39h23.69v11.73h-37.29V0Z"/>
    <path d="M233.71,0h13.6v65.12h-13.6V0Z"/>
    <path d="M268.42,0h13.6v65.12h-13.6V0Z"/>
    <path d="M303.13,0h13.6v52.01h23.46v13.12h-37.06V0Z"/>
    <path d="M355.52,0h37.92v12.3h-24.32v13.6h22.47v12.3h-22.47v13.74h24.32v12.3h-37.92V0Z"/>
    <path d="M407.65,0h13.6v65.12h-13.6V0Z"/>
  </g>
  <g transform="translate(796.515 581.514) scale(.941 1)">
    <path d="M0,0h11.32l5.9,17.4h.16l5.8-17.4h11.26V27.4h-7.3V10.06h-.16l-5.58,17.34h-6.62L7.44,10.06h-.16V27.4H0V0Z"/>
    <path d="M38.25,0h7.52v4.36h.16c.9-2.83,3.41-4.83,7.28-4.83,3.44,0,5.93,1.48,6.95,4.58h.16c.99-2.81,3.62-4.58,7.16-4.58,5.65,0,8.51,4.13,8.51,10.6V27.4h-7.54v-14.4c0-2.73-1.28-4.22-3.56-4.22s-3.6,1.55-3.6,4.3v14.32h-7.54v-14.4c0-2.73-1.28-4.22-3.56-4.22s-3.6,1.55-3.6,4.3v14.32h-7.54V0Z"/>
    <path d="M87.52,13.62c0-8.23,5.3-13.94,13.3-13.94s13.3,5.71,13.3,13.94-5.3,13.94-13.3,13.94-13.3-5.71-13.3-13.94Zm19.09,0c0-4.33-2.05-7.09-5.79-7.09s-5.79,2.76-5.79,7.09,2.05,7.09,5.79,7.09,5.79-2.76,5.79-7.09Z"/>
    <path d="M122.63,0h7.52v3.96h.16c1.04-2.53,3.68-4.04,7.44-4.04,6.01,0,9.15,3.6,9.15,10.6v16.88h-7.54v-14.4c0-2.73-1.28-4.22-3.56-4.22s-3.6,1.55-3.6,4.3v14.32h-7.54V0Z"/>
    <path d="M161.92,21.47h7.05c.22,1.93,1.99,3.1,4.5,3.1,2.25,0,3.52-1.1,3.52-2.77,0-1.55-1.15-2.33-4.76-3.41-6.62-2.05-9.17-4.61-9.17-8.76,0-4.86,4.27-8.01,10.13-8.01s10.09,3.12,10.46,8.01h-6.88c-.26-1.73-1.55-2.84-3.68-2.84-2.05,0-3.26.99-3.26,2.54,0,1.51,1.2,2.19,4.58,3.23,7.36,2.32,9.43,4.77,9.43,8.84,0,5.13-4.49,8.42-11.24,8.42s-10.84-3.25-11.28-8.36Z"/>
    <circle cx="194.85" cy="25.64" r="3.52"/>
  </g>
</svg>
